<?xml version="1.0" standalone="no"?>
<!DOCTYPE svg PUBLIC "-//W3C//DTD SVG 1.1//EN" "http://www.w3.org/Graphics/SVG/1.1/DTD/svg11.dtd" >
<svg xmlns="http://www.w3.org/2000/svg">
<metadata></metadata>
<defs>
<font id="broken_squaresregular" horiz-adv-x="1014" >
<font-face units-per-em="2048" ascent="1638" descent="-410" />
<missing-glyph horiz-adv-x="508" />
<glyph horiz-adv-x="2048" />
<glyph horiz-adv-x="2048" />
<glyph unicode="&#xd;" horiz-adv-x="508" />
<glyph unicode=" "  horiz-adv-x="508" />
<glyph unicode="&#x09;" horiz-adv-x="508" />
<glyph unicode="&#xa0;" horiz-adv-x="508" />
<glyph unicode="!" horiz-adv-x="460" d="M50 260v25q0 13 26 26q17 -2 17 -17v-34q0 -18 -17 -18h-9q-17 0 -17 18zM59 0v17h26v-17h-26zM59 1176v130q2 17 17 17q17 -2 17 -17v-130q0 -17 -17 -17t-17 17zM67 87v129q3 18 18 18q17 -3 17 -18v-129q0 -18 -17 -18q-18 0 -18 18zM76 744v9h17v-9h-17zM76 934l17 9 l9 -17v-113h-17v9q-9 107 -9 112zM93 986v121q3 18 18 18h147q17 -3 17 -18v-121q0 -17 -17 -17h-147q-18 0 -18 17zM102 268v43q3 18 17 18h130q17 -3 17 -18v-43q0 -17 -17 -17h-130q-17 0 -17 17zM102 631v130q3 18 17 18h130q17 -3 17 -18v-130q0 -17 -17 -17h-130 q-17 0 -17 17zM111 398q2 17 17 17h121q17 -3 17 -17q0 -17 -17 -17h-121q-17 0 -17 17zM137 813v130q2 17 17 17h112q18 -3 18 -17v-130q0 -17 -18 -17h-112q-17 0 -17 17zM137 1176v130q2 17 17 17h112q18 -2 18 -17v-130q0 -17 -18 -17h-112q-17 0 -17 17zM154 17 q3 18 17 18h113v17h-113q-17 0 -17 17v113q3 17 17 17h104q17 -3 17 -17v-130h61q17 -3 17 -17t-35 -35h-164q-17 0 -17 17zM154 441v121q3 18 17 18h104q17 -3 17 -18v-121q0 -17 -17 -17h-104q-17 0 -17 17zM284 623v121q2 17 17 17h9q17 -3 17 -17q-6 -138 -35 -138z M301 251v26q3 17 17 17h35q17 -3 17 -17v-26q0 -17 -17 -17h-35q-17 0 -17 17zM318 78v121q3 17 17 17h18q17 -2 17 -17v-121q0 -17 -17 -17h-18q-17 0 -17 17zM318 986v121q3 18 17 18q18 -3 18 -18v-121q0 -17 -18 -17q-17 0 -17 17zM335 917v17h18v-17h-18zM335 1150v130 h18v-130h-18z" />
<glyph unicode="&#x22;" horiz-adv-x="672" d="M55 1113h69q18 -3 18 -17v-9q0 -17 -70 -26q-17 28 -17 52zM64 1148q38 147 60 147q18 -3 18 -18v-129q0 -18 -18 -18h-43q-17 0 -17 18zM116 1321q8 34 8 60h18v-60q0 -18 -18 -18zM159 1130v113q3 17 17 17h95v-9q0 -43 -69 -138h-26q-17 0 -17 17zM159 1511v8 q0 26 156 35l8 -17v-26q0 -17 -17 -17h-130q-17 0 -17 17zM193 1312v112q3 18 18 18h112q17 -3 17 -18q-41 -127 -60 -129h-69q-18 0 -18 17zM340 1148q0 77 44 129h104q17 -2 17 -17v-78q0 -46 -35 -60h-112q-18 0 -18 26zM358 1087v9q2 17 17 17h95v-17q-5 -26 -69 -26 h-26q-17 0 -17 17zM392 1321q33 155 52 155h52q17 -3 17 -17v-130q0 -17 -17 -17h-86zM453 1511v8q0 13 26 26h26q17 -2 17 -17v-17q0 -17 -17 -17h-35q-17 0 -17 17zM574 1372v52q3 18 17 18l18 -9q-18 -35 -18 -61h-17zM574 1485q3 17 17 17h18q17 -3 17 -17 q0 -17 -17 -17h-18q-17 0 -17 17z" />
<glyph unicode="#" horiz-adv-x="969" d="M63 327v66q3 15 17 15h18q17 -2 17 -15v-74q0 -15 -17 -15h-9q-12 0 -26 23zM141 631v67q3 15 17 15h130q17 -3 17 -15v-97l18 -22v-111q0 -15 -18 -15h-17v7q0 48 17 127q-52 0 -52 29h-95q-17 0 -17 15zM167 30q5 59 26 59h86q18 -2 18 -15v-59q0 -15 -18 -15h-86 q-22 0 -26 30zM184 319v104q0 17 130 22l9 -14v-112q0 -15 -18 -15h-104q-17 0 -17 15zM236 148q11 112 35 112h43q43 -20 43 -30q-9 -74 -26 -104q-95 8 -95 22zM331 609v89q3 15 17 15h122q17 -3 17 -15v-67q0 -15 -17 -15h-52q-20 -163 -44 -163l-8 15v119q-35 0 -35 22z M331 943v52q0 55 26 59h87q34 -15 34 -37q-4 -89 -26 -89h-104q-17 0 -17 15zM366 319v112l8 14l44 -7h69q17 -2 17 -15v-104q0 -15 -17 -15h-104q-17 0 -17 15zM366 765v89q2 15 17 15h52q17 -3 17 -15q-8 -63 -8 -104h-61q-17 0 -17 15zM513 15v104q3 15 17 15h87l17 -8 q-12 -126 -35 -126h-69q-17 0 -17 15zM513 624v74q3 15 17 15h121q18 -3 18 -15v-230q0 -15 -18 -15h-104v7q0 74 18 127q-34 37 -52 37zM530 156v104q3 15 17 15h104v-8q0 -126 -34 -126h-70q-17 0 -17 15zM530 319v104q9 22 52 22h78q17 -2 17 -14v-112q0 -15 -17 -15 h-113q-17 0 -17 15zM573 780q18 133 35 133h35q17 -2 17 -15v-111q0 -15 -17 -15h-52zM651 943q0 18 18 104h17v-104q0 -15 -17 -15q-18 0 -18 15zM694 631v111l18 23v89q2 15 17 15q17 -3 17 -15q0 -5 -8 -97h95q17 -2 17 -15v-111q0 -15 -17 -15h-121q-18 0 -18 15z M712 319v104q2 15 17 15h78q12 0 26 -22v-89q0 -11 -26 -23h-78q-17 0 -17 15zM729 921v74q3 15 17 15h9l17 -8q-11 -96 -34 -96zM859 631v97h17v-97h-17z" />
<glyph unicode="$" horiz-adv-x="884" d="M54 122q0 13 26 26h9q17 -2 17 -17v-43h-17q-14 0 -35 34zM106 875v9h17v-26q-17 0 -17 17zM158 901v130q46 62 121 86q10 -67 26 -86v-44q-22 -103 -43 -103h-87q-17 0 -17 17zM175 62v35q3 17 17 17h104q18 -3 18 -17v-61l-9 -17q-130 20 -130 43zM175 157v43 q3 18 17 18h9q113 -59 113 -70l-18 -8h-104q-17 0 -17 17zM175 702v104q3 17 17 17h104q18 -3 18 -17v-104q0 -17 -18 -17h-104q-17 0 -17 17zM201 624v17h87q17 -2 17 -17v-34q0 -18 -17 -18q0 15 -87 52zM305 1091v69q0 24 43 26q0 139 43 139h70q17 -3 17 -17 q-9 -122 -9 -208v-9q0 -17 -17 -17h-130q-17 0 -17 17zM331 -102q3 17 17 17h104q17 -3 17 -17v-44q0 -17 -17 -17h-87q-13 0 -34 35v26zM339 36v95q3 17 18 17h112q18 -2 18 -17v-130q0 -17 -18 -17h-86zM339 728v52h18q35 -28 104 -52v-17h-104q-18 0 -18 17zM357 555v86 q2 18 17 18h104q17 -3 17 -18v-112q0 -17 -17 -17h-26q-95 23 -95 43zM357 1013v9q2 17 17 17h268q18 -2 18 -17v-35l-9 -17q-93 52 -199 52h-9zM487 -59h17v-78h-17v78zM487 174v18q52 42 103 121h44q17 -3 17 -18v-121q0 -17 -17 -17h-130q-17 0 -17 17zM504 477v17h138 q18 -2 18 -17v-121q0 -17 -18 -17h-34q-53 87 -104 138zM504 1091v104q156 -14 156 -43v-61q0 -17 -18 -17h-121q-17 0 -17 17zM521 53v44q3 17 17 17h122v-9q-42 -47 -130 -69zM521 538v121q3 17 17 17h35q104 -44 104 -121q112 -61 112 -190v-18l-17 -8h-52q-17 0 -17 17 v138q-15 0 -43 26h-122q-17 0 -17 18zM685 183v130q3 17 18 17h60q18 0 18 -26q0 -81 -70 -138h-8q-18 0 -18 17zM703 1091v35q2 17 17 17q0 -17 26 -17v-35q0 -17 -17 -17h-9q-17 0 -17 17z" />
<glyph unicode="%" horiz-adv-x="1610" d="M37 822v104q3 17 17 17h121q18 -3 18 -17v-87l8 -60h9q156 0 156 -26v-104q0 -18 -18 -18h-95q-137 0 -190 165q-12 0 -26 26zM72 1021v43q13 95 34 95h87q17 -3 17 -17v-121q0 -18 -17 -18h-104q-17 0 -17 18zM115 1194q38 112 95 112v-95q0 -17 -17 -17h-78zM219 848 v147h26v-26q0 -49 17 -130l-17 -9h-9q-17 0 -17 18zM236 1047v78q3 17 17 17l18 -9q-18 -40 -18 -86h-17zM253 1202v113q6 26 69 26h96q76 0 138 -61v-78q0 -17 -17 -17h-268q-18 0 -18 17zM331 35q17 28 17 43h18v-61q0 -17 -18 -17zM383 17v52q3 18 17 18h130 q17 -3 17 -18v-8q0 -47 -34 -61h-113q-17 0 -17 17zM418 1133l17 9h112q18 -3 18 -17v-113q0 -17 -18 -17h-77q-18 0 -52 138zM435 121v17q112 192 112 208h18v-52l8 -43l44 9v121q2 17 17 17h104q0 -36 -165 -303l-17 9h-104q-17 0 -17 17zM435 649v112q3 18 17 18h113v43 h-130q20 155 35 155h77q11 -13 104 -25v-9q0 -241 -207 -312zM565 1202v44h17q0 -12 26 -52l-17 -9h-9q-17 0 -17 17zM599 1029v130q3 17 18 17q34 -73 34 -155l-17 -9h-17q-18 0 -18 17zM608 467v17q54 110 95 147h26q17 -2 17 -17v-130q0 -17 -17 -17h-121zM677 649 q0 16 35 86h17v-69q0 -17 -17 -17h-35zM764 450v112q2 18 17 18h43l17 -9q-60 -108 -60 -121h-17zM764 657v122q36 27 112 164h26q17 -3 17 -17v-191q-26 -95 -52 -95h-86q-17 0 -17 17zM945 839v130l18 26v60q10 65 34 70h95q18 -3 18 -18v-26q0 -38 -139 -259h-8 q-18 0 -18 17zM963 294v87q2 17 17 17h112q18 -3 18 -17v-269q0 -17 -18 -17h-52q-77 67 -77 199zM980 484q0 111 130 191q8 -19 17 -78h138q18 -3 18 -17v-9h-35q-73 0 -95 -121h-17l-26 17h-113q-17 0 -17 17zM1006 1202q75 153 95 156l9 -17v-130q0 -17 -18 -17h-69z M1110 43v26q2 18 17 18h130q17 -3 17 -18v-43q0 -17 -17 -17h-26q-121 0 -121 34zM1127 112v122q3 17 17 17h18q55 -78 121 -78v-61q0 -17 -18 -17h-121q-17 0 -17 17zM1144 1150v9q3 17 18 17v-26h-18zM1162 649v43q0 23 147 43q0 9 8 9q147 -37 147 -78v-9q0 -17 -26 -17 q-227 -9 -268 -9zM1162 1176v113q2 17 17 17h52q-7 -58 -69 -130zM1326 35v34q15 13 26 113l34 34h78q18 -2 18 -17v-78q-39 -57 -147 -104zM1326 562v35q3 17 17 17h113q17 -3 17 -17v-121q0 -18 -17 -18h-87q-17 0 -43 104zM1360 285l9 87v9l-9 43l18 9h78q17 -3 17 -18 v-121q0 -17 -17 -17h-78zM1490 285v113q3 17 18 17h43q17 -3 17 -17v-17q0 -113 -26 -113h-34q-18 0 -18 17zM1490 476v121q3 17 18 17q51 -84 51 -147l-17 -9h-34q-18 0 -18 18z" />
<glyph unicode="&#x26;" horiz-adv-x="1259" d="M29 277v95q3 17 17 17h95q18 -2 18 -17v-104q0 -17 -18 -17h-86q-12 0 -26 26zM46 458q61 182 95 182h9q0 -22 17 -43v-130q0 -17 -17 -17h-86zM90 199l17 9h60v8q0 9 -8 9l8 17v130q3 17 18 17h104q11 0 43 -138v-139q0 -17 -18 -17h-112l-43 -8q-69 78 -69 112z M185 467v121q2 18 17 18h121q17 -3 17 -18v-60q-17 -78 -43 -78h-95q-17 0 -17 17zM185 1038q0 130 52 130q112 81 112 130q0 34 69 34h78q17 -3 17 -17v-121q0 -18 -17 -18h-147l-9 -43v-112q0 -18 -17 -18h-112q-13 0 -26 35zM193 960l18 9h112q17 -3 17 -17v-122 q0 -17 -17 -17h-52q-32 0 -78 147zM219 640v35q104 80 104 95h17q18 -3 18 -17v-113q0 -17 -18 -17h-103q-18 0 -18 17zM263 26v17h77l26 18h130q17 -3 17 -18v-26q0 -17 -17 -17h-69q-54 0 -164 26zM366 104v121q3 17 18 17h121q17 -3 17 -17v-121q0 -17 -17 -17h-121 q-18 0 -18 17zM366 1012v121q3 17 18 17h129v-17q-54 0 -60 -78l9 -60h-78q-18 0 -18 17zM384 554v69h17v130q3 17 17 17h113l26 -17h129q18 -3 18 -18q0 -26 -9 -26l9 -43v-43h52q5 0 52 -52q8 52 25 52h44v-147q0 -18 -18 -18h-276q-18 0 -18 18v130q0 17 -17 17h-17v-95 h-9q-54 52 -78 52l-43 -26h-17zM401 813v104q3 17 17 17h78q52 -30 52 -78q12 0 95 78h43q18 -3 18 -17v-104q0 -17 -18 -17h-268q-17 0 -17 17zM548 112v130q0 18 87 26l25 35q-8 0 -51 78v8h86q17 -2 17 -17q-8 -210 -8 -268l-18 -9h-121q-17 0 -17 17zM565 35l18 8h43 v-17q-7 0 -52 -9zM583 1185v113q2 17 17 17h112q151 -95 156 -147h-268q-17 0 -17 17zM609 1107v9h95q17 -3 17 -17v-104q0 -18 -17 -18h-9q-12 0 -35 78q-12 0 -51 52zM712 95v95q3 18 18 18h129q18 -3 18 -18v-103q0 -18 -18 -18l-69 69q-19 -32 -69 -60zM730 277v112 q2 18 17 18h121q17 -3 17 -18v-112q0 -17 -17 -17h-121q-17 0 -17 17zM747 830v269q3 17 17 17h113q17 -3 17 -17v-122q0 -74 -78 -164h-52q-17 0 -17 17zM877 623v8q2 18 17 18h9v-9q0 -17 -18 -17h-8zM894 43q3 18 17 18h130q17 -3 17 -18q0 -17 -17 -17h-130 q-17 0 -17 17zM894 112v130q3 18 17 18h130q17 -3 17 -18v-130q0 -17 -17 -17h-130q-17 0 -17 17zM894 467v121q3 18 17 18h130q17 -3 17 -18v-112q0 -13 -26 -26h-121q-17 0 -17 17zM929 640q2 17 17 17h112q18 -2 18 -17q0 -17 -18 -17h-112q-17 0 -17 17zM946 285v122 q3 17 17 17h61v-17l-35 -52l61 -78v-9h-87q-17 0 -17 17zM1110 112v87h18q0 -12 69 -95v-9h-69q-18 0 -18 17z" />
<glyph unicode="'" horiz-adv-x="346" d="M51 1054q30 173 87 173l8 44v69q3 17 17 17h139v-9q-61 -285 -78 -285h-26q-17 0 -17 17v139h-43v-147q0 -18 -18 -18h-69zM181 1409v17q0 26 95 26h35v-26q0 -17 -18 -17h-112zM207 1011v17h8v-17h-8z" />
<glyph unicode="(" horiz-adv-x="502" d="M42 278l17 8h130q17 -2 17 -17v-104q0 -17 -17 -17h-95q-20 0 -52 130zM59 364v121q3 18 18 18h112q26 0 26 -147l-17 -9h-121q-18 0 -18 17zM68 892q38 121 61 121h60q17 -3 17 -17v-104l18 -26v-52q0 -95 -26 -95h-104q-17 0 -17 17v61l8 86zM94 537v113q3 17 17 17h78 q17 -3 17 -17v-113q0 -17 -17 -17h-78q-17 0 -17 17zM129 113l17 9h86q5 35 26 35q69 -139 69 -165h-86l-26 -17h-17q-23 0 -69 138zM154 1065q40 86 52 86h9v-77q0 -18 -17 -18h-26zM172 -51l17 9h9q17 -3 17 -18v-43h-17q0 12 -26 52zM224 -94q2 17 17 17h95q14 0 52 -69 v-35q0 -17 -17 -17h-95q-52 30 -52 78v26zM224 183v69h17q0 -38 17 -78l-17 -9q-17 0 -17 18zM241 1091v121q3 17 17 17h121q-62 -155 -86 -155h-35q-17 0 -17 17zM293 1255v18q0 13 34 34h78q18 -3 18 -17v-9q0 -12 -26 -26h-104z" />
<glyph unicode=")" horiz-adv-x="502" d="M60 -158l9 43h17v-43q0 -17 -17 -17zM86 1261v43q3 17 17 17h69q12 0 44 -43l-18 -9h-95zM138 6q57 147 69 147h35q17 -2 17 -17v-121q0 -17 -17 -17h-87zM138 -72q0 13 26 26h104v-8q-43 -92 -96 -130h-17q-17 0 -17 17v95zM138 1209v34q3 18 17 18h69q52 -41 52 -87 v-60q0 -18 -17 -18h-61q-26 0 -60 113zM172 1027h70q17 -3 17 -17v-104q0 -17 -17 -17h-18q-29 0 -52 138zM190 197q32 138 52 138h8v-138q0 -18 -17 -18h-26q-17 0 -17 18zM242 837l17 8l9 -17v-60h-18q0 21 -8 69zM276 551v113q3 17 18 17h112q12 0 26 -26v-26 q0 -259 -35 -259h-77q-18 0 -18 17v147q-26 0 -26 17zM285 923v121q3 18 17 18h26q25 0 61 -147l-18 -9h-69q-17 0 -17 17zM302 742v121q3 17 18 17h60q29 0 43 -147l-17 -9h-86q-18 0 -18 18zM320 67v86q2 18 17 18h26q0 -22 -26 -104h-17zM320 205v130q2 17 17 17h60 l18 -8q-33 -156 -52 -156h-26q-17 0 -17 17z" />
<glyph unicode="*" horiz-adv-x="827" d="M90 1314v86l9 17q138 -17 138 -34v-52q0 -26 -138 -35zM125 1634q2 17 17 17h60q18 -3 18 -17v-130h-9q-86 86 -86 130zM151 1097v9h51q18 -3 18 -17v-35h-9q-60 29 -60 43zM159 1132q61 71 61 86h17v-86q0 -17 -17 -17h-43q-18 0 -18 17zM228 1668v17q13 0 35 26 q12 0 26 -26q0 -17 -17 -17h-44zM254 1314v103l9 18q-9 0 -9 8l18 9h121q17 -3 17 -17v-121q0 -18 -17 -18h-121q-18 0 -18 18zM254 1487v112q3 17 18 17h34q18 0 69 -129h18v17h17v-17q0 -18 -17 -18h-121q-18 0 -18 18zM272 1080v9q2 17 17 17v-26h-17zM289 1141v129 q3 18 17 18h104q17 -3 17 -18v-26l-34 -8v8l-18 -8h-8v17h-9q-43 -130 -60 -130zM436 1314v121q3 17 17 17h9q33 -26 78 -26l43 9l9 -18v-95q0 -17 -26 -17h-87v-9h-26q-17 0 -17 18zM453 1487v103q0 13 26 26h104l17 -8q-6 -24 -103 -139h-26q-18 0 -18 18zM471 1132v104 q2 17 17 17h26q95 -81 95 -130v-8q-74 -61 -104 -61q-34 46 -34 78zM505 1651v9q9 25 52 25q0 -17 26 -17v-17h-78zM618 1322v121q2 18 17 18h52q12 0 26 -26v-113q0 -17 -17 -17h-61q-17 0 -17 17z" />
<glyph unicode="+" horiz-adv-x="1082" d="M47 458l17 9h70q17 -3 17 -17v-9q0 -17 -17 -17h-52q-14 0 -35 34zM108 510v9q2 17 17 17h34q18 -2 18 -17l-18 -9h-51zM185 441v9q3 17 18 17h121q17 -3 17 -17v-9q0 -17 -17 -17h-121q-18 0 -18 17zM203 536q2 18 17 18h112q18 -3 18 -18q0 -17 -18 -17h-112 q-17 0 -17 17zM367 441v43q3 18 17 18h121q18 -3 18 -18v-121q0 -17 -18 -17h-17q-17 0 -26 69q-95 9 -95 26zM402 545v9q2 17 17 17h86v112q-34 0 -34 26v104q3 17 17 17h17q18 -2 18 -17v-121q104 0 104 -43q0 -78 43 -78q34 0 34 -17v-9q0 -17 -17 -17h-268q-17 0 -17 17 zM454 891v35q0 13 34 34h9q17 -3 17 -17v-52q0 -17 -17 -17h-26q-17 0 -17 17zM488 26v112q0 18 43 18v17q-26 0 -26 17v130q3 17 18 17q7 0 26 -26l-9 -17v-9h69q18 -2 18 -17v-104q0 -17 -18 -17h-78v-130q0 -17 -17 -17q-12 0 -26 26zM549 17v70q2 17 17 17h43 q18 -3 18 -17v-61q0 -12 -26 -26h-35q-17 0 -17 17zM549 346v104q2 17 17 17h121q17 -3 17 -17v-9q0 -17 -17 -17h-60v-78q0 -17 -18 -17h-43q-17 0 -17 17zM549 727v121q2 17 17 17h43q18 -3 18 -17v-121q0 -18 -18 -18h-43q-17 0 -17 18zM549 900v60q2 17 17 17h43 q18 -2 18 -17v-60q0 -18 -18 -18h-43q-17 0 -17 18zM713 441v43l69 52h121v-8q0 -18 -26 -18v-69q0 -17 -17 -17h-130q-17 0 -17 17zM903 536q6 52 26 52h70q13 0 34 -34q0 -18 -17 -18h-113zM947 441v43q2 18 17 18h52q17 -3 17 -18v-26q0 -13 -34 -34h-35q-17 0 -17 17z " />
<glyph unicode="," horiz-adv-x="453" d="M30 -128h17v-18h-17v18zM65 -111q77 55 77 130h70q17 -3 17 -18v-129q0 -18 -17 -18h-130q-17 0 -17 18v17zM65 -232q2 17 17 17h130v-17q-112 -52 -139 -52l-8 17v35zM99 218v69q3 17 18 17h112q17 -3 17 -17q9 -145 9 -225v-9q0 -17 -17 -17h-104q-17 0 -17 17v139z M281 209v61q3 17 17 17h43q18 -3 18 -17v-217q0 -17 -18 -17h-26q-17 0 -17 17v130zM298 -50q3 17 17 17h18l17 -9q-35 -75 -35 -86h-17v78z" />
<glyph unicode="-" horiz-adv-x="644" d="M60 385v26q3 18 17 18h121q18 -3 18 -18v-26q0 -17 -18 -17h-121q-17 0 -17 17zM77 472l26 17h104q17 -3 17 -17q0 -17 -17 -17h-112q-18 0 -18 17zM224 385v26q3 18 18 18h129q18 -3 18 -18v-26q0 -17 -18 -17h-129q-18 0 -18 17zM276 489v17q3 18 18 18h103 q18 -3 18 -18v-17q0 -17 -18 -17h-103q-18 0 -18 17zM458 385v26q3 18 17 18h52q17 -3 17 -18v-8q0 -14 -34 -35h-35q-17 0 -17 17zM458 489v17q3 18 17 18h52q17 -3 17 -18v-17q0 -17 -17 -17h-52q-17 0 -17 17z" />
<glyph unicode="." horiz-adv-x="474" d="M66 17v95q3 18 17 18l9 -18v-112h-9q-17 0 -17 17zM66 199v61q3 17 17 17h9v-78q0 -17 -17 -17zM109 182v69q3 17 18 17h129q26 0 26 -225v-17q0 -17 -17 -17h-121q-17 0 -17 17v130zM291 26v225q3 17 17 17h61q12 0 26 -26v-216q0 -17 -18 -17h-69q-17 0 -17 17z" />
<glyph unicode="/" horiz-adv-x="728" d="M43 0v17q38 0 78 130l17 9h26q17 -3 17 -18v-103q0 -14 -34 -35h-104zM147 199v9q32 147 43 147h113v-9q-27 -138 -87 -138q-62 -9 -69 -9zM190 398q20 121 52 121h86q18 -3 18 -17v-26q-13 -95 -35 -95h-104q-17 0 -17 17zM225 588v9q0 20 95 233v9h17v-233 q0 -18 -17 -18h-95zM372 597v268q2 17 17 17h104l17 -8q-102 -284 -130 -294zM380 952v8q96 286 121 286q18 -3 18 -18q8 -186 8 -268l-17 -8h-130zM536 1125v103q3 18 17 18h78q18 -3 18 -18q-78 -184 -78 -207h-18v78zM553 1315l18 8h103v-8q0 -17 -17 -17h-86 q-18 0 -18 17z" />
<glyph unicode="0" horiz-adv-x="1089" d="M54 770q0 121 26 121h112q18 -3 18 -17v-113q0 -17 -18 -17h-121q-17 0 -17 26zM80 934v9q29 147 61 147h51q18 -3 18 -17v-121q0 -18 -18 -18h-112zM89 554l17 8l-9 18v95q3 17 18 17h224q18 -3 18 -17v-78q0 -125 26 -190l-18 -9h-86q-17 0 -17 17v139h-35v-139 q0 -17 -17 -17h-87q-26 0 -34 156zM115 355l17 8h86l26 18h130q17 -3 17 -18v-129q0 -18 -17 -18h-69q-44 0 -130 -8q-26 31 -60 147zM184 1116v17q61 113 95 121h95q17 -2 17 -17v-112q0 -18 -17 -18h-86zM210 156l17 8q3 -17 17 -17h130q17 -3 17 -17v-95l-8 -18 q-165 65 -165 130q-8 0 -8 9zM262 753v103q2 18 17 18h69l17 -9l-8 -43v-69q0 -18 -18 -18h-60q-17 0 -17 18zM262 943v112q2 18 17 18h130v164q2 17 17 17h130q17 -2 17 -17v-147h-43q-103 0 -147 -130q0 -34 -26 -34h-78q-17 0 -17 17zM409 52v130q2 17 17 17h130 q17 -3 17 -17v-130q0 -17 -17 -17h-130q-17 0 -17 17zM426 1315q0 26 138 26q18 -3 18 -18v-8q0 -17 -18 -17h-121q-17 0 -17 17zM461 225v43h8q130 -20 130 -43q0 -17 -17 -17h-104q-17 0 -17 17zM599 0v17h9v-17h-9zM608 1315q0 17 26 17q78 -17 86 -17v-17h-95 q-17 0 -17 17zM625 216v18l95 112h35q17 -3 17 -17v-113q0 -17 -17 -17h-113q-17 0 -17 17zM625 1064v9q3 17 17 17h130v26h-130q-17 0 -17 17v121q3 18 17 18h113q0 -9 103 -96q41 -63 78 -95v-129q0 -18 -17 -18h-199q-42 79 -95 130zM642 17v130q3 17 18 17h103 q18 -2 18 -17v-69q-54 -61 -130 -61h-9zM685 381q12 129 35 129h17q18 -2 18 -17v-104q0 -17 -18 -17h-34zM703 900l17 8h26q17 -2 17 -17v-121q0 -17 -17 -17h-9q-20 0 -34 147zM737 580v112q3 17 18 17q17 -2 17 -17v-112q0 -18 -17 -18q-18 0 -18 18zM789 216v113 q3 17 18 17h121q17 -3 17 -17v-35q-26 -95 -52 -95h-86q-18 0 -18 17zM807 415v130q2 17 17 17h112q18 -2 18 -17v-130q0 -17 -18 -17h-112q-17 0 -17 17zM807 779v129q2 18 17 18h112q18 -3 18 -18v-129q0 -18 -18 -18h-112q-17 0 -17 18zM824 112v52q3 18 17 18h43v-9 q-36 -61 -51 -61h-9zM824 588v121q3 18 17 18h104l61 -52v-78q0 -63 -18 -190h-17v147q0 17 -17 17h-113q-17 0 -17 17zM988 761v87h18v-87h-18z" />
<glyph unicode="1" horiz-adv-x="806" d="M83 830v18q3 17 17 17h26q18 -3 18 -17v-26q0 -18 -18 -18h-17q-12 0 -26 26zM100 908v69q0 13 26 26h9q17 -2 17 -17v-78q0 -17 -17 -17h-17q-18 0 -18 17zM195 934v104q0 26 130 43q18 0 18 -34h147q17 -3 17 -18v-112q0 -17 -17 -17h-130l-26 17h-121q-18 0 -18 17z M213 822v43q2 17 17 17h113l25 -17h130q18 -3 18 -17v-113q0 -17 -18 -17h-78q-15 0 -34 86h-156q-17 0 -17 18zM386 363v104q2 17 17 17h87q17 -2 17 -17v-104q0 -17 -17 -17h-87q-17 0 -17 17zM394 1116q38 0 104 147h18q17 0 17 -35h138q18 -2 18 -17v-112q0 -18 -18 -18 h-130l-25 18h-104q-18 0 -18 17zM403 17v104q3 17 17 17h78q18 -2 18 -17v-104q0 -17 -18 -17h-78q-17 0 -17 17zM403 190v113q3 17 17 17h78q18 -3 18 -17v-113q0 -17 -18 -17h-78q-17 0 -17 17zM403 562v121q3 18 17 18h78q18 -3 18 -18v-121q0 -17 -18 -17h-78 q-17 0 -17 17zM524 363v104q3 17 17 17h130q18 -2 18 -17v-104q0 -17 -18 -17h-130q-17 0 -17 17zM533 1280v18h147v-18h-147zM541 926v121q3 17 18 17h121q17 -3 17 -17v-121q0 -18 -17 -18h-121q-18 0 -18 18zM559 17v104q2 17 17 17h104q17 -2 17 -17v-95q0 -12 -26 -26 h-95q-17 0 -17 17zM559 562v268q2 18 17 18h104q17 -3 17 -18v-268q0 -17 -17 -17h-104q-17 0 -17 17zM576 182v103q3 18 17 18h87q17 -3 17 -18v-103q0 -18 -17 -18h-87q-17 0 -17 18z" />
<glyph unicode="2" horiz-adv-x="1089" d="M74 26v26q0 64 26 69h112q18 -3 18 -17v-87q0 -17 -18 -17h-112q-12 0 -26 26zM109 199q44 124 86 156h26q17 -3 17 -18v-129q0 -18 -17 -18h-95zM109 787q31 260 77 260h35q17 -3 17 -18v-242q0 -17 -17 -17h-86zM212 372v9q3 17 18 17h8v-9q0 -17 -17 -17h-9zM212 1099 q18 0 18 26h17v-26q0 -18 -17 -18q-18 0 -18 18zM264 17v104q3 17 18 17h121q17 -2 17 -17v-104q0 -17 -17 -17h-121q-18 0 -18 17zM264 182v103q3 18 18 18h121q17 -3 17 -18v-103q0 -18 -17 -18h-121q-18 0 -18 18zM264 389v44q43 56 121 103h18q17 -2 17 -17v-130 q0 -17 -17 -17h-121q-18 0 -18 17zM264 787v78q0 22 35 26v121q3 17 17 17h104q17 -2 17 -17v-9q-34 -97 -52 -224l-17 -9h-86q-18 0 -18 17zM264 1107v78q39 61 87 61h52q17 -3 17 -18v-121q0 -17 -17 -17h-121q-18 0 -18 17zM429 17v87q2 17 17 17h130q17 -3 17 -17v-87 q0 -17 -17 -17h-130q-17 0 -17 17zM446 372v112q3 18 17 18h121q18 -3 18 -18v-95q0 -13 -35 -34h-104q-17 0 -17 17zM463 182v103q3 18 18 18h17v-9l-17 -26h26v-8l-9 -18h26v-8l-9 -18q95 0 95 -26v-17h147q18 -3 18 -17v-130q0 -17 -18 -17h-129q-18 0 -18 17v138h-129 q-18 0 -18 18zM472 1263v17q74 18 130 18l8 -18q0 -17 -17 -17h-121zM481 562q114 87 138 87v-87q0 -17 -17 -17h-104q-17 0 -17 17zM481 1107v121q2 18 17 18h104q17 -3 17 -18v-121q0 -17 -17 -17h-104q-17 0 -17 17zM610 407v77q3 18 18 18h129v-9q0 -7 -138 -104z M628 1272q8 0 8 8l18 -8h51v-18h-60q-17 0 -17 18zM645 571v130q3 17 17 17h113q17 -3 17 -17v-130q0 -17 -17 -17h-113q-17 0 -17 17zM662 199v35q3 17 18 17h268q17 -3 17 -17v-35q0 -17 -17 -17h-268q-18 0 -18 17zM662 1090v104q3 17 18 17h112v9q0 8 -9 8q13 35 26 35 h18q81 -47 129 -121v-26q0 -17 -17 -17h-138v-26h-121q-18 0 -18 17zM671 1021v8h130l8 35h139q17 -3 17 -17v-121q0 -18 -17 -18h-139q-12 0 -26 -26v-138q0 -17 -17 -17h-86v8q43 44 60 147q17 0 17 26zM809 17v104q3 17 18 17h121q17 -2 17 -17v-104q0 -17 -17 -17h-121 q-18 0 -18 17zM844 562v121q3 18 17 18h104v-18q-32 -52 -112 -121h-9zM844 753v129q3 18 17 18h104q17 -3 17 -18v-129q0 -18 -17 -18h-104q-17 0 -17 18zM1008 173v35h18v-35h-18z" />
<glyph unicode="3" horiz-adv-x="1096" d="M70 389v69q3 18 17 18h130q17 -3 17 -18v-69q0 -17 -17 -17h-130q-17 0 -17 17zM96 908q26 130 52 130h69q17 -3 17 -17v-113l18 -26v-17q0 -17 -18 -17h-95zM105 337l17 9h112q18 -3 18 -17v-121q0 -18 -18 -18h-69q-31 0 -60 147zM157 173l17 9h52q17 -3 17 -18v-77h-9 q-57 43 -77 86zM208 1099v8q30 61 44 61h8v-52q0 -17 -17 -17h-35zM252 372v52q2 17 17 17h69q13 -11 43 -104q59 -95 156 -95h35l17 9l9 -17v-18q0 -17 -18 -17h-259q-17 0 -17 17v139q-52 0 -52 17zM286 52v78q3 17 18 17h112q17 -3 17 -17v-113q0 -17 -17 -17 q-130 23 -130 52zM286 865v26q3 17 18 17h69l17 -8q-18 -52 -35 -52h-51q-18 0 -18 17zM304 943v130q2 17 17 17h104q17 -3 17 -17v-35l-69 -112h-52q-17 0 -17 17zM304 1116v104q0 12 43 34h78q17 -2 17 -17v-121q0 -17 -17 -17h-104q-17 0 -17 17zM364 1289v17l61 9v-9 q0 -17 -18 -17h-43zM451 1298q0 25 112 25h26q17 -2 17 -17v-8q0 -18 -17 -18h-121q-17 0 -17 18zM468 26v121q3 17 17 17h113q17 -2 17 -17v-121q0 -17 -17 -17h-113q-17 0 -17 17zM468 1073q3 17 17 17h277q17 -3 17 -17v-130q0 -17 -17 -17h-52l-52 95q-35 52 -112 52 q-16 0 -69 -18zM485 597v147q0 29 130 35l9 -18v-181l-9 -18q-130 6 -130 35zM485 1125v129q3 18 18 18h147q0 26 17 26q121 -21 121 -44v-129q0 -18 -17 -18h-268q-18 0 -18 18zM632 190v9q54 40 113 112h26q17 -2 17 -17v-121h9v130l17 8h130q17 -2 17 -17v-104 q0 -17 -17 -17h-139v-121q-36 -43 -104 -43h-17q-17 0 -17 17v138q-35 0 -35 26zM650 562v95q2 18 17 18h130v17h69q0 -26 86 -78l9 -17v-199q0 -17 -17 -17h-130q-17 0 -17 17v138h-9v-147l-17 -8h-18q-14 0 -34 121q-69 49 -69 60zM650 735v35q51 37 86 86h43 q18 -2 18 -17v-104q0 -17 -18 -17h-112q-17 0 -17 17zM797 926v112q2 17 17 17h130q17 -2 17 -17v-112q0 -18 -17 -18h-130q-17 0 -17 18zM814 735v104q3 17 17 17h121q18 -2 18 -17q-33 -80 -96 -121h-43q-17 0 -17 17zM831 1099v103l9 18q85 -46 121 -113v-26h-112 q-18 0 -18 18zM849 78v34q2 18 17 18h43v-9q-26 -43 -60 -43zM978 571h18v-17q-18 0 -18 17zM996 268v61q2 17 17 17h9v-17l-9 -61h-17zM996 389v121q2 18 17 18q17 -29 17 -52v-87q0 -17 -17 -17t-17 17z" />
<glyph unicode="4" horiz-adv-x="1096" d="M79 381v121q3 17 17 17h121q18 -3 18 -17v-121q0 -18 -18 -18h-121q-17 0 -17 18zM88 285v18h138v-18h-138zM114 571v9q91 147 155 147q0 -9 9 -9q0 113 69 147h61q17 -3 17 -17v-44q0 -158 -61 -216l-34 -34h-199q-17 0 -17 17zM243 372v112q3 18 18 18h129 q18 -3 18 -18v-112q0 -17 -18 -17h-129q-18 0 -18 17zM261 303q2 17 17 17h121q17 -3 17 -17q0 -18 -17 -18h-121q-17 0 -17 18zM373 926v8q61 49 61 113h138q17 -3 17 -18v-77l9 -87q-53 0 -95 -95l-43 -35q-18 0 -18 18v138q0 21 -69 35zM442 372v112q3 18 18 18h121 q17 -3 17 -18v-112q0 -17 -17 -17h-121q-18 0 -18 17zM460 303v17q2 17 17 17h112l26 -17h139q17 -3 17 -17v-113q0 -17 -17 -17h-130q-17 0 -17 17v78l-61 17h-69q-17 0 -17 18zM512 1073v8q75 113 86 113h9v-113h147q17 -2 17 -17v-130q0 -17 -17 -17h-130q-17 0 -17 17 v139h-95zM607 571v130q2 17 17 17h130q17 -3 17 -17v-130q0 -17 -17 -17h-130q-17 0 -17 17zM624 17v87q3 17 17 17h121q18 -3 18 -17v-87q0 -17 -18 -17h-121q-17 0 -17 17zM624 363v104q3 17 17 17h121q18 -2 18 -17v-104q0 -17 -18 -17h-121q-17 0 -17 17zM624 1116v130 q3 17 17 17h121q18 -3 18 -17v-130q0 -17 -18 -17h-121q-17 0 -17 17zM659 744v121q2 17 17 17h104q17 -2 17 -17v-121q0 -17 -17 -17h-104q-17 0 -17 17zM788 208v276q3 18 18 18h129q18 -3 18 -18v-181q0 -18 -18 -18h-69v-77q0 -18 -17 -18h-43q-18 0 -18 18zM832 1280 v18h8v-18h-8zM840 17v87q3 17 18 17l8 -17v-69q0 -18 -17 -18h-9zM840 562v121q3 18 18 18l8 -18v-121q0 -17 -17 -17zM840 753v129q3 18 18 18l8 -18v-129q0 -18 -17 -18zM840 926v121q3 17 18 17l8 -17v-121q0 -18 -17 -18zM840 1116v130q3 17 18 17l8 -17v-130 q0 -17 -17 -17zM987 303q3 17 18 17q17 -3 17 -17l-26 -18zM1005 372v138h17v-138h-17z" />
<glyph unicode="5" horiz-adv-x="1075" d="M69 311v18q3 17 17 17h121q18 -3 18 -17v-121q0 -18 -18 -18h-86q-32 0 -52 121zM95 597q17 130 35 130h77q18 -3 18 -18v-121q0 -17 -18 -17h-86q-13 0 -26 26zM104 389v9q2 17 17 17h104q17 -3 17 -17v-9q0 -17 -17 -17h-104q-17 0 -17 17zM112 744q11 164 35 164h52 q17 -2 17 -17v-130q0 -17 -17 -17h-87zM156 934q20 156 43 156h8q18 -3 18 -17v-130q0 -17 -18 -17h-34zM164 173l17 9h44q17 -3 17 -18v-52q0 -17 -17 -17zM207 1125q15 129 35 129h138q18 -2 18 -17v-121q0 -17 -18 -17h-121q-45 0 -52 26zM251 588v251q2 17 17 17h121 q17 -2 17 -17v-208q0 -12 -60 -60h-78q-17 0 -17 17zM268 52v78q3 17 17 17h113q17 -3 17 -17v-113q0 -17 -17 -17q-130 23 -130 52zM268 398v17q3 18 17 18h44q14 0 25 -44l-17 -8h-52q-17 0 -17 17zM285 216v130q3 17 18 17h43l78 -95v-52q0 -17 -18 -17h-103 q-18 0 -18 17zM285 934v121q3 18 18 18h112q2 -35 17 -35q-17 -121 -34 -121h-95q-18 0 -18 17zM432 1116v121q3 17 18 17h121q17 -2 17 -17v-121q0 -17 -17 -17h-121q-18 0 -18 17zM450 17v113q2 17 17 17h112q18 -3 18 -17v-113q0 -17 -18 -17h-112q-17 0 -17 17zM450 761 v95q41 52 138 52l9 -17v-130q0 -17 -18 -17h-112q-17 0 -17 17zM458 1289v17h130v-17h-130zM467 208v26l9 17q70 -26 121 -26l121 138h34q18 -2 18 -17v-130q0 -17 -26 -17q-228 -9 -268 -9zM467 675v17q3 17 17 17h113l26 -17h129q18 -3 18 -17v-277q0 -17 -18 -17h-34v8 q0 22 8 69q0 102 -129 191q-14 10 -87 17q-15 -9 -34 -9zM614 35v129q3 18 17 18h121q18 -3 18 -18v-112q0 -23 -70 -35h-69q-17 0 -17 18zM614 1064v9q3 17 17 17h121q18 -3 18 -17v-9q0 -17 -18 -17h-121q-17 0 -17 17zM623 1289v17h138v-17h-138zM631 735v104q3 17 18 17 h77q52 -5 52 -26v-95q0 -17 -17 -17h-112q-18 0 -18 17zM649 1125v129q2 18 17 18h104q17 -3 17 -18v-129q0 -18 -17 -18h-104q-17 0 -17 18zM778 61v51q3 18 18 18h69v-9q-20 -32 -69 -60h-18zM796 381v112q2 17 17 17h121q17 -2 17 -17v-112q0 -18 -17 -18h-121 q-17 0 -17 18zM796 761v87l8 17q89 -48 121 -112v-9h-112q-17 0 -17 17zM813 190v104q3 17 17 17h156v-8q-26 -98 -78 -130h-78q-17 0 -17 17zM830 571v121q3 17 18 17h95q12 0 26 -26v-112q0 -17 -18 -17h-103q-18 0 -18 17zM830 1107v113q3 17 18 17h86q17 -3 17 -17v-113 q0 -17 -17 -17h-86q-18 0 -18 17zM960 381v112q3 17 17 17h18q17 -2 17 -17v-112q0 -18 -17 -18h-18q-17 0 -17 18z" />
<glyph unicode="6" horiz-adv-x="1103" d="M80 761q14 139 43 139h104q17 -3 17 -18v-121q0 -17 -17 -17h-130q-17 0 -17 17zM115 571v112q2 18 17 18h112q18 -3 18 -18q8 -231 8 -285l-17 -9h-78q-24 0 -52 173q-8 0 -8 9zM123 346v9h104q17 -3 17 -18v-121q0 -17 -17 -17h-35q-69 95 -69 147zM132 943 q33 101 69 138h35q17 -2 17 -17v-121q0 -17 -17 -17h-87q-17 0 -17 17zM244 156h9q17 -3 17 -18v-17h-17zM244 1116v9q9 16 9 25h17v-17q0 -17 -17 -17h-9zM262 199v104q2 17 17 17h121q12 0 26 -26v-95q0 -17 -17 -17h-130q-17 0 -17 17zM262 770v130q2 17 17 17h121v-9 q0 -22 -17 -86l34 26l9 -18v-60q0 -17 -17 -17h-130q-17 0 -17 17zM262 952v129q2 18 17 18h130q17 -3 17 -18v-78q0 -63 -26 -69h-121q-17 0 -17 18zM296 78v43q3 17 18 17h112q17 -2 17 -17v-95q0 -17 -17 -17q-130 43 -130 69zM296 571v112q3 18 18 18h276q18 -3 18 -18 v-8q-12 -12 -139 -44l-60 -77h-95q-18 0 -18 17zM296 1125v69q36 49 78 69h52q17 -3 17 -17v-121q0 -18 -17 -18h-112q-18 0 -18 18zM314 389v113q2 17 17 17h69v-78l9 -60l-18 -9h-60q-17 0 -17 17zM443 1029q3 18 18 18v-18h-18zM478 17v104q3 17 17 17h113q17 -2 17 -17 v-104q0 -17 -17 -17h-113q-17 0 -17 17zM495 225v35q139 -6 139 -26v-9q0 -17 -18 -17h-103q-18 0 -18 17zM495 761v78q0 26 130 52q17 -21 17 -35h9q147 -5 147 -43v-233q0 -18 -17 -18h-52q-87 57 -87 130l-8 52h-121q-18 0 -18 17zM495 1125v121q3 17 18 17h103 q18 -3 18 -17v-121q0 -18 -18 -18h-103q-18 0 -18 18zM495 1315q0 19 95 34q102 -8 182 -34v-17h-259q-18 0 -18 17zM660 26v112q2 18 17 18h112q18 -3 18 -18v-69q0 -32 -113 -60h-17q-17 0 -17 17zM660 1064v17h112q17 -2 17 -17v-104q0 -17 -17 -17h-26q-64 120 -78 121 h-8zM677 208v8q39 34 104 121h17q17 -2 17 -17v-112q0 -18 -17 -18h-104q-17 0 -17 18zM677 1133v130q3 17 17 17h104q32 -52 43 -52q43 0 139 -129v-139q0 -17 -18 -17h-121q-17 0 -17 17v113l-9 43h-121q-17 0 -17 17zM772 502q61 0 61 52h129q18 -3 18 -18v-129 q0 -18 -18 -18h-147q0 -26 -17 -26q-20 0 -26 139zM807 580v121q8 26 52 26v69l8 17q104 -45 104 -112v-121q0 -18 -17 -18h-130q-17 0 -17 18zM859 104v199q2 17 17 17h121l9 43h17v-8q-27 -136 -156 -251h-8zM988 398v121q3 17 18 17h17q17 -2 17 -17v-43q0 -95 -26 -95 h-8q-18 0 -18 17z" />
<glyph unicode="7" d="M59 1029q3 18 17 18h95q18 -3 18 -18q0 -17 -18 -17h-95q-17 0 -17 17zM94 1116v130q2 17 17 17h78q17 -3 17 -17v-130q0 -17 -17 -17h-78q-17 0 -17 17zM197 1029v18q3 17 18 17h129q18 -3 18 -17v-18q0 -17 -18 -17h-129q-18 0 -18 17zM232 1107v121q0 18 26 18l277 8 l8 -17v-130q0 -17 -17 -17h-277q-17 0 -17 17zM249 17q9 139 35 139h78q17 -3 17 -18v-121q0 -17 -17 -17h-95q-18 0 -18 17zM258 1280v18h121v-18h-121zM293 199q26 164 69 277h17v-104q5 -52 26 -52h130q17 -3 17 -17v-113q0 -17 -17 -17h-18q-224 0 -224 26zM396 17v121 q3 18 18 18h112q17 0 17 -26q0 -130 -26 -130h-103q-18 0 -18 17zM396 363v104q3 17 18 17h121q17 -2 17 -17v-104q0 -17 -17 -17h-121q-18 0 -18 17zM414 554v43q17 80 43 86h86q18 -2 18 -17v-112q0 -18 -18 -18h-112q-17 0 -17 18zM414 1029q2 18 17 18h112q18 -3 18 -18 q0 -17 -18 -17h-112q-17 0 -17 17zM440 718q0 45 86 147q17 -3 17 -17v-113q0 -17 -17 -17h-86zM578 934v26l35 52q-35 0 -35 17v35q0 17 35 17v113q2 17 17 17h112q0 35 18 35h129q18 -3 18 -18v-121q0 -17 -18 -17h-129q-13 0 -26 -26v-130q0 -17 -18 -17h-121 q-17 0 -17 17zM595 545v104q3 17 18 17h60v-9q-43 -118 -43 -138h-9q-12 0 -26 26zM595 744v121q3 17 18 17h112q17 -2 17 -17v-78q-33 -60 -43 -60h-86q-18 0 -18 17zM742 917v112q3 18 18 18h129q18 -3 18 -18v-17q-96 -112 -104 -112h-43q-18 0 -18 17zM924 1099v138h17 v-138h-17z" />
<glyph unicode="8" horiz-adv-x="1089" d="M64 337h156q17 -2 17 -17v-112q0 -18 -17 -18h-121q-26 0 -35 147zM81 943v34q0 122 61 122q1 21 95 103l9 -17q-9 -154 -9 -251l-17 -8h-121q-18 0 -18 17zM107 580q98 110 147 129v-129q0 -18 -17 -18h-112q-18 0 -18 18zM116 874l17 8h104q17 -2 17 -17v-112 q0 -18 -17 -18h-17q-69 0 -104 139zM125 389v113q2 17 17 17h104q17 -3 17 -17v-130h9q8 0 8 9l18 -9h8v130q3 17 18 17h34q-17 -62 -17 -69v-43q0 -72 78 -147v-35q0 -17 -18 -17h-129q-18 0 -18 17v147h-112q-17 0 -17 17zM133 147v9h87q17 -3 17 -18v-69h-17 q-43 20 -87 78zM254 61v60q3 17 18 17h129q18 -2 18 -17v-104q0 -17 -18 -17q-147 36 -147 61zM272 753v112q2 17 17 17h86q11 0 52 -60v-87h26q0 39 9 52q28 -17 52 -17h95l-9 -104v-69l-8 -17q-48 8 -70 8q-92 -17 -121 -17h-95q-17 0 -17 17v139zM289 943v121q3 17 17 17 h121v-8q-69 -58 -69 -147h-52q-17 0 -17 17zM289 1116v112q3 18 17 18h113q17 -3 17 -18v-112q0 -17 -17 -17h-113q-17 0 -17 17zM436 26v112q3 18 17 18h130q17 -3 17 -18v-112q0 -17 -17 -17h-130q-17 0 -17 17zM436 216v18l86 -9h52l18 9l8 -18q0 -17 -17 -17h-130 q-17 0 -17 17zM453 1315v8q0 21 78 26q78 -6 78 -26v-8q0 -17 -17 -17h-121q-18 0 -18 17zM488 1107v104q3 17 17 17h104q17 -2 17 -17v-112h9q9 0 9 8l17 -8h9v112q2 17 17 17h104q17 -2 17 -17v-104l-17 -26v-129q0 -18 -18 -18h-52l-60 113q-26 28 -26 43h-9 q-19 0 -34 -9q-40 18 -87 18q0 -9 -8 -9zM618 17v104q2 17 17 17h130q17 -2 17 -17v-60q0 -35 -156 -61zM635 580v129q15 19 26 87q6 0 69 69h52q17 -3 17 -17q-8 -204 -8 -277l-18 -9h-121q-17 0 -17 18zM652 1306q3 17 18 17q64 -17 77 -17v-17h-77q-18 0 -18 17zM670 225 v26q45 39 103 121h18q17 -3 17 -17v-130q0 -17 -17 -17h-104q-17 0 -17 17zM713 545v9h78q17 -3 17 -18v-129q0 -18 -17 -18h-9q-12 0 -35 113q-12 0 -34 43zM817 87v51q2 18 17 18h69q17 -3 17 -18l-95 -69zM817 588v130q2 17 17 17h9q0 -26 86 -78l43 -60v-9 q0 -17 -17 -17h-121q-17 0 -17 17zM817 770v130q2 17 17 17h112l18 -9q-49 -137 -96 -155h-34q-17 0 -17 17zM834 407v129q3 18 17 18h113q17 -3 17 -18v-129q0 -18 -17 -18h-113q-17 0 -17 18zM834 1107v104h17q113 -91 113 -199v-60q0 -18 -18 -18h-78q-17 0 -17 18v129z M851 216v121q3 18 17 18h104q13 0 26 26v103h18v-86q-20 -199 -70 -199h-78q-17 0 -17 17z" />
<glyph unicode="9" d="M55 303v60q3 18 17 18h121q18 -3 18 -18v-129q0 -18 -18 -18h-103q-24 0 -35 87zM72 666v52l18 26v112q2 18 17 18h121q0 20 26 52v112q3 17 17 17h87v-17q-52 -57 -52 -156q0 -46 26 -129h-104l-9 -44v-17h121q12 0 44 -43v-78q0 -17 -18 -17h-129l-26 17h-78 q-61 42 -61 95zM81 190l17 9h87q17 -3 17 -17v-104h-9q-29 0 -112 112zM90 934v69q5 52 26 52h95q17 -2 17 -17v-121h-121q-17 0 -17 17zM90 1116q88 95 103 95h9v-95q0 -17 -17 -17h-78q-17 0 -17 17zM176 536v9h52v-17h138q18 -3 18 -18v-52q0 -17 -18 -17q-130 0 -190 95 zM237 1133v121q2 18 17 18h121q17 -3 17 -18v-121q0 -17 -17 -17h-121q-17 0 -17 17zM254 52v112q3 18 17 18h113q17 -3 17 -18v-121q0 -17 -17 -17h-78q-45 0 -52 26zM254 234v129q3 18 17 18h26q17 -2 52 -87q12 0 52 -52v-8q0 -18 -17 -18h-113q-17 0 -17 18zM375 1289 v17h26v-17h-26zM401 1081v9q3 17 17 17h130q17 -3 17 -17v-26q-90 26 -95 26q-47 -9 -69 -9zM401 1133v121q3 18 17 18h130q17 -3 17 -18v-121q0 -17 -17 -17h-130q-17 0 -17 17zM418 52v130q3 17 18 17h121q17 -3 17 -17v-130q0 -17 -17 -17h-121q-18 0 -18 17zM444 0v17 h69v-17h-69zM453 234q17 17 121 26q61 74 87 250h69q17 -2 17 -17q9 -204 9 -277q-17 -8 -26 -8q-228 8 -268 8zM453 458v165l9 17l43 -9h34l44 9v52q2 17 17 17h130q17 -2 17 -17v-112q0 -18 -17 -18h-139v-52h26v-17q-103 -52 -155 -52zM453 1323v18l9 17q129 -6 129 -35 q0 -17 -17 -17h-104q-17 0 -17 17zM600 1133v121q3 18 17 18h121q18 -3 18 -18v-121q0 -17 -18 -17h-121q-17 0 -17 17zM635 43v87q2 17 17 17h104l26 17h8v-8q-97 -113 -155 -113zM635 1021v34q2 18 17 18h104q17 -3 17 -18v-129l17 8q0 -8 9 -8v112q3 17 17 17h69 q21 0 52 -112l-8 -61v-103q0 -18 -18 -18h-147q0 -26 -17 -26h-78l-17 9q17 34 17 95v35h95v52h-78q-23 0 -51 95zM635 1315l17 8q17 -8 26 -8v-17h-26q-17 0 -17 17zM782 208v103q2 18 17 18h78l17 -9q-47 -105 -78 -130h-17q-17 0 -17 18zM782 1133v87h8q41 -26 78 -95 l-17 -9h-52q-17 0 -17 17zM799 580v112q3 17 17 17h113q17 -2 17 -17v-112q0 -18 -17 -18h-113q-17 0 -17 18zM816 389v104q3 17 18 17h95l17 -8q-26 -130 -43 -130h-69q-18 0 -18 17z" />
<glyph unicode=":" horiz-adv-x="467" d="M62 239v52q3 17 17 17h9v-69q0 -17 -17 -17zM79 57v130h18v-130h-18zM79 784v112h18v-112h-18zM114 689v69h147q17 -3 17 -17v-52q0 -18 -17 -18h-130q-17 0 -17 18zM123 75v225q2 17 17 17h121q17 -3 17 -17v-225q0 -18 -17 -18h-121q-17 0 -17 18zM140 810v130 q3 17 17 17h113q17 -3 17 -17v-130q0 -17 -17 -17h-113q-17 0 -17 17zM287 248v69q3 17 17 17h69q13 0 26 -26v-60q0 -18 -17 -18h-78q-17 0 -17 18zM304 689v17q3 17 18 17h60q17 -2 17 -17q0 -13 -34 -35h-43q-18 0 -18 18zM304 784v104q3 17 18 17h60q17 -3 17 -17v-104 q0 -17 -17 -17h-60q-18 0 -18 17zM322 57v104q2 17 17 17h43q17 -2 17 -17v-86q0 -14 -34 -35h-26q-17 0 -17 17z" />
<glyph unicode=";" horiz-adv-x="446" d="M47 760v121h17v-138q-17 0 -17 17zM64 207v60q3 18 18 18h138q17 -3 17 -18v-60q0 -18 -17 -18h-138q-18 0 -18 18zM108 -148q77 74 77 130h52l26 -17h87q0 -92 -87 -147q-62 -87 -138 -87v95zM108 743v113q2 17 17 17h112q18 0 18 -26q0 -42 8 -199l-17 -9h-104 q-17 0 -26 95q-8 0 -8 9zM125 34v112q3 18 17 18h104q17 -3 17 -18v-112q0 -18 -17 -18h-104q-17 0 -17 18zM255 224v78q2 17 17 17h69q13 0 26 -26v-69q0 -17 -17 -17h-78q-17 0 -17 17zM289 657v17q3 17 18 17h43q17 -3 17 -17t-35 -35h-25q-18 0 -18 18zM289 778v129 q3 18 18 18h43q17 -3 17 -18v-129q0 -18 -17 -18h-43q-18 0 -18 18zM307 42v122q2 17 17 17h26q17 -3 17 -17v-122q0 -17 -17 -17h-26q-17 0 -17 17z" />
<glyph unicode="&#x3c;" d="M63 594v26q3 17 17 17h121q18 -3 18 -17v-104q-45 0 -156 78zM98 680v18q149 88 181 121q54 0 104 26l17 -26v-87q0 -20 -138 -69h-147q-17 0 -17 17zM279 481v104q3 18 18 18h17q26 0 104 -44l8 18q132 -70 147 -70v-17h-155q0 -26 -18 -26h-103q-18 0 -18 17zM426 758 v26q3 17 18 17h86v-17q-15 0 -95 -43zM461 395v9q3 17 17 17h104q17 -3 17 -17v-87h-17q-120 62 -121 78zM461 853v9q0 22 138 78v-87q0 -17 -17 -17h-104q-17 0 -17 17zM625 862v112q0 13 26 26h104q17 -2 17 -17v-60q0 -23 -138 -78zM643 326v121l8 17q130 -59 130 -78 v-60q0 -18 -17 -18h-104q-17 0 -17 18zM694 1026v18l61 17v-17q0 -18 -17 -18h-44zM729 239v18h17q18 -3 18 -18q-9 0 -9 -8q-17 8 -26 8zM772 1035v17q0 14 130 78q35 -13 35 -26v-69q0 -17 -18 -17h-129q-18 0 -18 17zM807 231v121l9 17q121 -55 121 -69v-113 q0 -17 -18 -17q-112 35 -112 61zM807 949v34q3 17 17 17h104v-17q-15 0 -112 -52z" />
<glyph unicode="=" horiz-adv-x="1103" d="M56 738l17 9q18 -3 18 -17v-18h-9q-12 0 -26 26zM73 453q3 17 18 17h8l9 -86v-18h-17v61zM73 825q3 17 18 17h8v-17q0 -18 -17 -18zM125 366v18q3 17 18 17h121q17 -3 17 -17v-18q0 -17 -17 -17h-121q-18 0 -18 17zM125 799q3 17 18 17h121q26 -9 26 -52v-43 q0 -17 -18 -17h-112q-17 0 -26 86q-9 0 -9 9zM143 444q2 17 17 17h112q18 -2 18 -17q0 -17 -18 -17h-112q-17 0 -17 17zM290 833v18q2 17 17 17h130q17 -3 17 -17v-18q0 -17 -17 -17h-130q-17 0 -17 17zM307 721v9q3 17 17 17h121q18 -3 18 -17v-9q0 -17 -18 -17h-121 q-17 0 -17 17zM324 366v18q3 17 17 17h113q17 -3 17 -17v-18q0 -17 -17 -17h-113q-17 0 -17 17zM341 470v26q3 17 18 17h95q17 0 17 -34h147q11 0 35 -61v-52q0 -17 -17 -17h-113q-17 0 -17 17v70q-22 0 -43 17h-104q-18 0 -18 17zM489 807l17 9h121l43 -52h130 q17 -3 17 -17v-26q0 -17 -17 -17h-260q-17 0 -17 17v61q-34 0 -34 25zM670 436v8q3 17 17 17h122q26 -5 26 -69v-26q0 -17 -18 -17h-112q-16 0 -26 78q-9 0 -9 9zM687 816q3 17 18 17h112q18 -2 18 -17q0 -17 -18 -17h-112q-18 0 -18 17zM869 833v18q3 17 17 17h113 q17 -3 17 -17v-18q0 -17 -17 -17h-113q-17 0 -17 17zM886 366v18q3 17 18 17h104q17 -3 17 -17v-18q0 -17 -17 -17h-104q-18 0 -18 17zM886 461v18q3 17 18 17h104q17 -3 17 -17v-18q0 -17 -17 -17h-104q-18 0 -18 17zM886 721v9q3 17 18 17h104q17 -3 17 -17v-9 q0 -17 -17 -17h-104q-18 0 -18 17z" />
<glyph unicode="&#x3e;" d="M59 261v86q0 11 104 35l8 -18q-17 -2 -17 -17v-78q0 -22 -69 -43zM102 1065v87q18 34 52 34q0 -19 130 -78v-17h-104v-69q-78 17 -78 43zM206 295v52q3 17 17 17h113v-17q-113 -52 -130 -52zM206 1005v34q3 17 17 17h113q17 -2 17 -17v-95q0 -17 -17 -17q-130 58 -130 78 zM223 390v35q0 19 130 78l9 -17v-96q0 -17 -18 -17h-103q-18 0 -18 17zM388 927v112q0 17 26 17q121 -48 121 -86q8 -107 8 -113q-30 0 -155 70zM405 408v103q3 18 17 18h104q17 -3 17 -18v-43q-24 -31 -129 -78zM483 555v17q46 0 207 87l9 -18v-86q0 -18 -17 -18h-130 l-26 18h-43zM552 935v52q23 0 121 -52v-17h-104q-17 0 -17 17zM569 823v52q3 17 18 17h112q17 -3 17 -17v-113l-8 -17q-139 64 -139 78zM716 581v129q0 18 52 18v112q3 17 18 17q121 -55 121 -69v-52q0 -17 -26 -17v-78q0 -28 -147 -78q-18 0 -18 18zM915 659v17q3 17 18 17 l8 -17q0 -17 -17 -17h-9z" />
<glyph unicode="?" horiz-adv-x="1025" d="M42 995q29 155 95 155q0 12 43 44h9q-9 -87 -9 -130v-69q0 -18 -17 -18h-104q-17 0 -17 18zM51 882v26q2 18 17 18h104q17 -3 17 -18v-26q0 -17 -17 -17h-104q-17 0 -17 17zM215 882v26q3 18 17 18h95q18 -3 18 -18v-26q0 -17 -18 -17h-95q-17 0 -17 17zM232 1150v52 q65 78 156 78q0 9 9 9h129q18 -3 18 -17v-113q0 -17 -26 -17q-44 0 -277 -9zM250 977v113q2 17 17 17h104q20 -17 60 -17v-17q-39 0 -86 -113h-78q-17 0 -17 17zM327 260v25q0 13 26 26q18 -2 18 -17v-34q0 -18 -18 -18h-8q-18 0 -18 18zM336 0v17h17v-17h-17zM345 61v103 q2 18 17 18q17 -3 17 -18v-103q0 -18 -17 -18t-17 18zM353 433v86h18v-86h-18zM414 78v130q24 69 35 69h103l18 -9l-9 -104v-86q0 -17 -17 -17h-113q-17 0 -17 17zM414 606q47 78 104 121h26q17 -3 17 -18q9 -186 9 -268l-18 -8h-103q-18 0 -18 17v130zM440 0v17h130v-17 h-130zM578 623v121q3 17 18 17h121q17 -3 17 -17v-121q0 -17 -17 -17h-121q-18 0 -18 17zM578 796v8q27 27 78 122h61q17 -3 17 -18v-112q0 -17 -17 -17h-121q-18 0 -18 17zM578 1176v130q3 17 18 17h86q52 -5 52 -25v-122q0 -17 -17 -17h-121q-18 0 -18 17zM596 69v113 q2 17 17 17h17q18 -3 18 -17v-113q0 -17 -18 -17h-17q-17 0 -17 17zM596 1055v35q2 17 17 17h112q18 -3 18 -17v-113q0 -17 -18 -17h-60zM613 268v52h9q12 0 26 -26v-26q0 -17 -18 -17q-17 0 -17 17zM613 398v9h17v-9h-17zM613 441v139q3 17 17 17h69v-17q-51 0 -69 -139 h-17zM760 796v112q3 18 17 18h121q18 -3 18 -18v-95q0 -73 -139 -156v113zM795 969v104q2 17 17 17h112q26 0 35 -113l-43 -25h-104q-17 0 -17 17zM795 1150v96q69 0 121 -104l-18 -9h-86q-17 0 -17 17zM924 839v69q3 18 18 18q8 -17 8 -26l-8 -61h-18z" />
<glyph unicode="@" horiz-adv-x="1386" d="M63 253l17 9h78q17 -3 17 -17v-17q0 -61 9 -191h-9q-96 114 -112 216zM80 504q23 139 52 139h35q17 -3 17 -18v-121q0 -17 -17 -17h-69q-18 0 -18 17zM106 331v130q3 17 18 17h60q26 -5 26 -69v-104q-104 9 -104 26zM124 686q43 80 43 95h17v-86q0 -18 -17 -18h-26z M193 -6v86q0 22 34 26v104h18q7 -68 112 -190v-61q0 -17 -17 -17h-95q-13 0 -52 52zM210 539v86q0 22 35 26v121q2 18 17 18h69v-9q-104 -153 -104 -242h-17zM279 833v9q0 11 78 78h17v-70q0 -17 -17 -17h-78zM314 -101h43q17 -3 17 -17v-9l-8 -17q-52 20 -52 34v9zM323 349 q6 86 25 86h9v-121q0 -17 -17 -17q-17 35 -17 52zM374 504v26q0 115 156 121h9v-112q0 -45 -26 -52h-121q-18 0 -18 17zM392 -49q2 17 17 17q0 -29 138 -43v-104q0 -17 -17 -17q-138 31 -138 52v95zM409 158v87q3 17 17 17h113q17 -3 17 -17v-113q0 -17 -17 -17h-52 q-78 17 -78 43zM426 331v130q3 17 18 17h69q-17 -110 -17 -129q8 -17 8 -26l-17 -9h-43q-18 0 -18 17zM426 885v95q0 35 139 35v-61l-121 -69h-18zM547 651v18h18q0 -18 -18 -18zM556 -136q3 18 17 18h130q17 -3 17 -18v-43q0 -12 -26 -26h-121q-17 0 -17 17v52zM565 1041 q14 52 155 52l9 -18v-26q0 -17 -17 -17h-130zM573 582v26q3 17 18 17h26v-8q0 -14 -35 -35h-9zM591 677v35q0 22 138 60l9 -17v-78q0 -17 -18 -17h-112q-17 0 -17 17zM608 124v78h35q121 32 121 95h129q18 -3 18 -18v-129q0 -18 -18 -18h-34q-16 1 -61 78l-17 9 q0 -50 -164 -113zM608 963v8q3 18 17 18h113v-18h-9q-108 -8 -121 -8zM738 1032v9q2 17 17 17q147 -9 147 -35l-17 -8h-130q-17 0 -17 17zM755 695v95q3 17 17 17h70q63 0 69 -26v-86q0 -18 -18 -18h-121q-17 0 -17 18zM772 980l18 9h112q17 -3 17 -18v-34h-8 q-139 29 -139 43zM790 -84q2 17 17 17h69q43 0 43 52h9q12 0 26 -26q-17 -8 -26 -8v-87q0 -23 -130 -52l-8 18v86zM790 331v18q34 86 34 129l-17 9l26 138h60q18 -2 18 -17v-121l17 -26v-130q0 -17 -17 -17h-104q-17 0 -17 17zM919 1049v9l61 -9v-17h-43q-18 0 -18 17z M928 98v17h35v-17h-35zM937 496v129q2 18 17 18h9l17 -9l-26 -138h-17zM937 686v69q0 17 26 17q34 -8 34 -34q-5 -69 -26 -69h-17q-17 0 -17 17zM954 -110l17 9l9 -17l-17 -9zM971 150v78q0 17 87 25q0 6 43 35h9v-121q0 -14 -35 -35h-86q-18 0 -18 18zM971 920v69 q3 17 18 17h60q47 0 61 -35v-103q0 -18 -18 -18h-8q-41 0 -113 70zM1058 816v8h17q17 -2 17 -17v-26h-17q0 14 -17 35zM1118 721v95q15 12 26 112h9q121 -147 121 -251l-17 -8h-113q-26 8 -26 52zM1153 202v95q14 147 43 147h61q17 -3 17 -18q0 -97 -112 -224h-9zM1170 617 l18 8h77q18 0 26 -60q-6 -87 -26 -87h-69q-17 0 -17 18v103z" />
<glyph unicode="A" horiz-adv-x="1403" d="M57 33l35 112h17v-121q0 -17 -17 -17h-9q-12 0 -26 26zM109 171v26q43 156 69 156h95q18 -3 18 -17v-147q0 -13 26 -26h86l17 -9q-50 -147 -69 -147h-207q-18 0 -18 17v147h-17zM178 414q53 159 78 164h17q18 -3 18 -17v-147q0 -18 -18 -18h-78q-17 0 -17 18zM256 604 q26 63 26 78h17v-69q0 -18 -17 -18h-9zM317 388v147q2 17 17 17h147q17 -3 17 -17v-147q0 -18 -17 -18h-147q-17 0 -17 18zM317 613v147q2 17 17 17h147q17 -3 17 -17v-147q0 -18 -17 -18h-147q-17 0 -17 18zM325 786v8q129 355 147 355q18 -3 18 -17v-329q0 -17 -18 -17 h-147zM334 197v147q3 18 17 18h147q17 -3 17 -18v-43l-60 -34q-20 -87 -43 -87h-61q-17 0 -17 17zM481 1201v17h17v-17h-17zM507 794v147q3 18 17 18h147q17 -3 17 -18v-8q-41 -156 -69 -156h-95q-17 0 -17 17zM515 414v147q3 17 18 17h8q18 0 18 -26h121q17 -3 17 -17v-121 q0 -18 -17 -18h-147q-18 0 -18 18zM515 604v147q3 17 18 17h78q17 -3 17 -17q-53 -159 -78 -164h-17q-18 0 -18 17zM515 1209v61q0 64 26 69h139q17 -3 17 -17v-113q0 -17 -17 -17h-147q-18 0 -18 17zM533 301v43q2 18 17 18h147q17 -3 17 -18v-43q0 -17 -17 -17h-147 q-17 0 -17 17zM533 984v148q2 17 17 17h147q17 -3 17 -17v-165h-164q-17 0 -17 17zM706 388v121q2 17 17 17h78v26h69q17 -3 17 -17v-165l61 -8h130q17 -3 17 -18v-155l17 -26v-139q0 -17 -17 -17h-69q-18 12 -78 173q-35 12 -35 78v17l-43 9h-121q-17 0 -17 17v69 q-26 0 -26 18zM714 837v130h165q17 -3 17 -17v-147q0 -17 -17 -17h-139q-26 8 -26 51zM732 1010v147q2 18 17 18h147q35 -50 147 -372l-17 -9h-95q-18 0 -18 17v182h-164q-17 0 -17 17zM732 1209v113q2 17 17 17h87q14 0 60 -138l-17 -9h-130q-17 0 -17 17zM740 742l18 9 h121q17 -3 17 -17v-147q0 -18 -17 -18h-69q-21 0 -70 173zM913 396v147q3 18 18 18h147q17 -3 17 -18v-147q0 -17 -17 -17h-147q-18 0 -18 17zM922 587v147q3 17 17 17h113q26 0 52 -138v-26q0 -18 -18 -18h-147q-17 0 -17 18zM1130 24v130q2 17 17 17h121q24 0 52 -138 q0 -12 -26 -26h-147q-17 0 -17 17zM1130 215v147q2 17 17 17h43q19 0 69 -173v-9h-112q-17 0 -17 18zM1130 414v121h17q0 -18 43 -130l-17 -9h-26q-17 0 -17 18z" />
<glyph unicode="B" horiz-adv-x="1231" d="M46 182v121q3 17 17 17h113q17 -3 17 -17v-121q0 -18 -17 -18h-113q-17 0 -17 18zM63 597v138q0 22 35 26v121q3 18 17 18h95q0 34 18 34h138q17 -3 17 -17v-147h-155q-13 0 -26 -26v-147q0 -17 -18 -17h-103q-18 0 -18 17zM81 1185v78q0 13 34 35h78q17 -3 17 -18v-95 q0 -17 -17 -17h-95q-17 0 -17 17zM98 17v52q3 18 17 18h95v25q0 9 -8 9q11 52 26 52h147q17 -3 17 -17v-139q0 -17 -17 -17h-260q-17 0 -17 17zM98 381v121q3 17 17 17h87q17 -3 17 -17v-121q0 -18 -17 -18h-87q-17 0 -17 18zM115 995v138q3 17 18 17h77q18 -2 18 -17v-138 q0 -18 -18 -18h-77q-18 0 -18 18zM236 995v155h18v-155h-18zM245 398v147l17 26v95q3 17 18 17h121q17 -2 17 -17v-86q0 -18 -35 -18v-164q0 -17 -17 -17h-104q-17 0 -17 17zM245 1185v95q3 18 17 18h130q17 -3 17 -18v-60l9 -87h156q17 -3 17 -17v-43q0 -18 -17 -18h-191 v-52q0 -17 -17 -17h-86q-18 0 -18 17v156zM262 199v138q3 18 18 18h86q17 -3 17 -18v-69q35 0 35 -17v-52q0 -17 -17 -17h-121q-18 0 -18 17zM409 17v70q3 17 18 17h147q17 -3 17 -17v-70q0 -17 -17 -17h-147q-18 0 -18 17zM444 580v121q3 17 17 17h130q17 -3 17 -17v-121 q0 -18 -17 -18h-130q-17 0 -17 18zM496 208v43q3 17 17 17h87q11 0 34 -52q64 0 165 26v-60q0 -18 -18 -18h-147q-17 0 -17 26h-104q-17 0 -17 18zM496 804l17 9h104q17 -3 17 -17l-17 -9h-104q-17 0 -17 17zM496 1202v113q3 17 17 17h104q17 -3 17 -17v-113q0 -17 -17 -17 h-104q-17 0 -17 17zM626 1064v35q2 17 17 17h138q18 -3 18 -17v-122q0 -17 -18 -17q0 71 -155 104zM643 571v95q3 17 17 17h130q17 -2 17 -17v-112q26 0 26 -18v-17h-8q-112 43 -182 52zM643 1202v113q3 17 17 17l9 -17v-113q0 -17 -17 -17zM652 761l17 9l8 -17l-17 -9z M669 718l17 9h104q17 -3 17 -18l-17 -8h-104q-17 0 -17 17zM677 17v104q3 17 18 17h112q18 -2 18 -17v-95q0 -26 -113 -26h-17q-18 0 -18 17zM677 1202v113l9 17q139 -9 139 -34v-96q0 -17 -18 -17h-112q-18 0 -18 17zM807 182v86q6 52 26 52h139q17 -3 17 -17v-139 q26 0 26 -17v-43q-15 -38 -147 -78l-9 17v113q-45 0 -52 26zM833 26v112h17v-112h-17zM842 779q8 73 8 112h18v-112q0 -18 -18 -18zM850 502v8q3 18 18 18l8 -18v-26h-8q-18 0 -18 18zM850 735l18 9l8 -17l-17 -9zM850 1176v104h18v-104h-18zM876 779v121q3 17 18 17h121 l43 35h17q18 -3 18 -18q0 -86 -87 -173h-112q-18 0 -18 18zM876 1003v147q15 13 26 113h18q62 0 121 -78l-9 -17q52 0 61 -165q0 -17 -18 -17h-181q-18 0 -18 17zM894 467v35q2 17 17 17h104q17 -3 17 -17v-121q0 -18 -17 -18h-87q-19 0 -34 104zM894 580v121q2 17 17 17h43 q53 0 130 -104q69 -63 69 -181v-26q0 -18 -17 -18h-43q-18 0 -18 18v138q0 17 -17 17h-147q-17 0 -17 18zM1023 190v130q3 17 18 17h95l17 -8q-26 -130 -69 -156h-43q-18 0 -18 17zM1041 407v121q2 17 17 17l9 -17v-121q0 -18 -18 -18z" />
<glyph unicode="C" horiz-adv-x="1322" d="M55 597v112q3 18 17 18h147q18 -3 18 -18v-112q0 -17 -18 -17h-147q-17 0 -17 17zM64 519l17 9h138q18 -3 18 -18v-112q0 -17 -18 -17h-103q-29 0 -52 138zM64 545v17h164v-17h-164zM90 753l17 8h112q18 -3 18 -17l-18 -9h-112q-17 0 -17 18zM133 337v18q196 -9 294 -9 l9 -17v-121q0 -18 -18 -18h-147l-26 -17q-95 87 -95 130l17 8h87v26h-121zM133 796q29 112 52 112h69q17 -2 17 -17v-104q0 -17 -17 -17h-104q-17 0 -17 26zM159 995l78 130h17v-122q0 -17 -17 -17h-61zM280 787v113h17v-121h9v121l17 8h87v-8q-44 -147 -44 -225 q9 -48 9 -69l-17 -9q-18 0 -18 17v130q-17 21 -17 35h-8v-18h-9q-13 0 -26 26zM306 112v18h121q17 -3 17 -18v-51l-8 -18zM306 1021v138q0 24 95 35q29 34 69 34q-8 -101 -8 -147v-60q0 -18 -18 -18h-121q-17 0 -17 18zM323 424v138q3 18 17 18h26q11 0 61 -139q9 0 17 -26 l-17 -8h-87q-17 0 -17 17zM453 216v139h9q93 -87 173 -104v-35q0 -17 -18 -17h-147q-17 0 -17 17zM470 43v87q3 17 18 17h138q17 -3 17 -17v-113q0 -17 -26 -17q-147 17 -147 43zM470 1125v17h18v-17h-18zM479 1211v61h17v-61h-17zM488 1021v69q2 17 17 17h138v-17 q-65 -10 -147 -69h-8zM505 1220v95q0 34 156 43v-138q0 -18 -18 -18h-121q-17 0 -17 18zM652 26v138q3 18 17 18h147q18 -3 18 -18v-138q0 -17 -18 -17h-147q-17 0 -17 17zM678 1090v17h147q17 -3 17 -17v-35h-8q-69 35 -113 35h-43zM686 234v26q0 25 165 43v-69 q0 -18 -17 -18h-130q-18 0 -18 18zM695 1133v17h139v-17h-139zM704 1194v104q2 17 17 17h87q51 -6 51 -26v-95q0 -18 -17 -18h-121q-17 0 -17 18zM903 225v95q0 13 60 61h78q17 -3 17 -18v-138q0 -17 -17 -17h-121q-17 0 -17 17zM903 1220v112l8 17q133 -52 147 -86v-43 q0 -18 -17 -18h-121q-17 0 -17 18zM937 52v78q3 17 18 17h103l44 35h17v-9q-93 -107 -182 -121zM937 407q38 129 52 129h35q17 -2 17 -17v-104q0 -17 -17 -17h-69zM937 1029v130q3 17 18 17h103q18 -2 18 -17v-9h-18v-8l44 8h43v-17h-61v-26h70q67 -57 86 -130l-17 -8h-156 v-78q0 -17 -17 -17h-18q-23 8 -60 121h86v8h-103zM1084 882v52q3 18 18 18h129q18 -3 18 -18l-18 -8h-129v-44h-18zM1084 1194v8h9q17 -8 26 -8v-18h-17q-18 0 -18 18zM1119 891q3 17 17 17h95q18 -2 18 -17q0 -17 -18 -17h-95q-17 0 -17 17zM1136 234v250q3 18 18 18h95 q17 -3 17 -18q-35 -189 -112 -268q-18 0 -18 18z" />
<glyph unicode="D" horiz-adv-x="1273" d="M63 804v148q3 17 17 17l9 -17v-148q0 -17 -17 -17zM98 17v121q2 18 17 18h9v-18h138q17 -2 17 -17v-104q0 -17 -17 -17h-147q-17 0 -17 17zM98 363v130l43 -9h121q17 -2 17 -17v-112l18 -26v-147q0 -18 -18 -18h-147q-17 0 -17 18v112q0 17 26 17zM98 606v121h8 q18 0 18 -26h147q17 -3 17 -18v-112q0 -17 -17 -17h-147q-26 8 -26 52zM98 977v113q0 23 43 26l-9 60v78q3 18 18 18l8 -18v-112h17v86q3 18 18 18h104q17 -3 17 -18v-69q0 -17 -35 -17v-165q0 -17 -17 -17h-147q-17 0 -17 17zM124 510v18h147v-18h-147zM132 926l18 8h8v-8 q0 -18 -17 -18zM158 718v17h121v-17h-121zM175 770v112q3 18 18 18h112q0 37 52 60l9 -17v-147q0 -17 -52 -17v-9q52 0 52 -17v-147q0 -18 -18 -18l-8 18v147h-147q-18 0 -18 17zM323 208v147l17 26v138q3 17 17 17l9 -17v-225h104q17 -3 17 -17v-69h130l43 8l26 -78h8 q26 0 35 113q26 0 95 52h43q18 -3 18 -18v-112l-18 -26v-86q0 -41 -250 -61h-243q-17 0 -17 17v52q3 18 17 18h130q0 21 17 43v8q-34 0 -34 52h-147q-17 0 -17 18zM323 1194v69q2 17 17 17l8 -17v-69q0 -18 -17 -18zM331 1125l17 8l9 -17l-17 -9zM357 1194v104q3 17 17 17 h104q8 0 69 17h26q113 0 113 -26v-104q0 -17 -26 -17l-294 -9zM374 1055v26q3 18 18 18h112q7 52 35 69h130q17 -3 17 -18v-69h164q17 -2 17 -17v-95q26 0 26 -17v-70h-17q-31 95 -121 95q-55 61 -251 61h-112q-18 0 -18 17zM772 1202v87q3 17 18 17q99 -32 121 -60v-44 q0 -17 -18 -17h-103q-18 0 -18 17zM816 381v8q34 63 34 95h17v-86q0 -17 -17 -17h-34zM902 78v78q3 17 17 17h52v147q3 17 18 17h129l18 -8q-71 -165 -217 -251h-17zM919 588v95q3 18 18 18h129q18 -3 18 -18q8 -196 8 -294l-17 -8h-121q-17 0 -17 17v121q0 8 -18 69z M919 787v130q3 17 18 17h129q18 -3 18 -17v-130q0 -17 -18 -17h-129q-18 0 -18 17zM928 1185v52h9q17 -3 17 -17v-35q0 -17 -17 -17zM937 986v130q2 17 17 17h95q43 -22 43 -69v-78q0 -17 -17 -17h-121q-17 0 -17 17zM971 1185v17h18q12 0 26 -26v-8h-26q-18 0 -18 17z M1118 389v130q3 17 18 17h34q18 -2 18 -17q-20 -147 -44 -147h-8q-18 0 -18 17zM1153 804v122h17q18 -99 18 -139h-18q-17 0 -17 17zM1170 588v130q3 17 18 17l8 -17v-130q0 -17 -17 -17z" />
<glyph unicode="E" horiz-adv-x="1153" d="M78 580v121q3 17 17 17h104q17 -3 17 -17v-121q0 -18 -17 -18h-104q-17 0 -17 18zM78 995v138q9 26 52 26v69q0 14 35 35h60q17 -3 17 -17v-78h26q9 0 9 8l17 -8h26v112q3 18 18 18h95q17 0 34 -52h147q26 0 26 -199l-17 -9h-121q-20 0 -26 121q-7 0 -52 9v-69 q0 -113 -26 -113h-130q-17 0 -17 17v147h-35v-155q0 -18 -17 -18h-104q-17 0 -17 18zM95 372v112q3 18 18 18h95q17 -3 17 -18v-112q0 -17 -17 -17h-95q-18 0 -18 17zM95 787v130q3 17 18 17h95q17 -3 17 -17v-130q0 -17 -17 -17h-95q-18 0 -18 17zM130 329v17h78l60 17v104 q3 17 18 17h112q17 -2 17 -17v-268q0 -17 -17 -17h-138l-26 -18h-69q-18 0 -18 18v121q0 17 87 17v9h-104zM147 17v70q3 17 18 17h43q61 -17 69 -17h121q17 -3 17 -18v-52q0 -17 -17 -17h-233q-18 0 -18 17zM234 121v17h8v-17h-8zM234 761v104q2 17 17 17h147q17 -2 17 -17 v-104q0 -17 -17 -17h-147q-17 0 -17 17zM260 727l17 8h147q17 -2 17 -17l-17 -9h-147q-17 0 -17 18zM286 510v18h121v-18h-121zM286 571v112q2 18 17 18h121q17 -3 17 -18v-112q0 -17 -17 -17h-121q-17 0 -17 17zM485 753l17 8q264 -8 337 -8q3 -18 18 -18h147q17 -2 17 -17 v-121q0 -45 -26 -52h-147q-17 0 -17 17l8 18h-303q-17 0 -17 17v138q-34 0 -34 18zM519 17v208q3 17 17 17h113l52 35h121q17 -3 17 -17v-61q0 -17 -17 -17h-164v-165q0 -17 -18 -17h-104q-17 0 -17 17zM675 17v130q3 17 17 17l9 -17v-130q0 -17 -17 -17zM684 1185v61 q2 17 17 17h121q17 0 26 -104q9 0 9 -9v-95q0 -17 -18 -17h-104q-17 0 -17 17v87zM692 770v17h139v-17h-139zM718 17v121q3 18 17 18h147v52q3 17 18 17h121q17 -3 17 -17v-191q0 -17 -17 -17h-286q-17 0 -17 17zM865 1055v61q3 17 17 17l9 -17v-61q0 -17 -17 -17zM900 1055 v26q2 18 17 18h113q17 -3 17 -18v-26q0 -17 -17 -17h-113q-17 0 -17 17zM917 796l17 8h78q18 -2 18 -17l-18 -8h-78q-17 0 -17 17zM917 1202v113q3 17 17 17h104q17 -3 17 -17v-113q0 -17 -17 -17h-104q-17 0 -17 17zM1064 1064v52h17v-52h-17z" />
<glyph unicode="F" horiz-adv-x="1025" d="M46 597v138q5 26 69 26v104q3 17 18 17h121q0 11 8 87h-112q-17 0 -17 17v130q2 17 17 17h104q17 -3 17 -17v-147h17v130q3 17 18 17l8 -17v-130h17v112q3 18 18 18h104q17 -3 17 -18v-26q0 -17 -17 -17h-104v-251h-87q0 -43 -34 -43v-147q0 -17 -18 -17h-147 q-17 0 -17 17zM63 190v130q3 17 18 17h138q17 -2 17 -17v-147q33 0 44 -86h51q18 -3 18 -18v-43q0 -12 -26 -26h-190q-18 0 -18 17v156q-52 0 -52 17zM81 407v147q2 17 17 17h130q17 -3 17 -17v-147q0 -18 -17 -18h-130q-17 0 -17 18zM133 1176v87q2 17 17 17h104 q17 -3 17 -17v-87q0 -17 -17 -17h-104q-17 0 -17 17zM262 718v9h18v-9h-18zM280 588v95q2 18 17 18h130q17 -3 17 -18v-103l17 -26v-9q0 -17 -17 -17h-78q-17 -3 -17 -18v-103q0 -18 -18 -18q-17 0 -17 18v138q0 5 -34 43zM288 1185v87q3 17 18 17l8 -17v-87q0 -17 -17 -17z M331 182v147h18v-147h-18zM331 1185v95q3 18 18 18h86q26 -9 26 -52h156q17 -3 17 -18v-60q35 0 35 -18v-95q0 -17 -17 -17h-104q-18 0 -18 17v87q-34 0 -34 26h-9q0 -26 -17 -26t-17 26h-104q-18 0 -18 17zM487 1055v61q3 17 17 17l9 -17v-61q0 -17 -17 -17zM496 571v112 q3 18 17 18h121q18 -3 18 -18v-112h17q8 0 8 9l18 -9h17v156h130q17 -3 17 -18v-129q-43 -34 -43 -52h-294v17h121v9h-139zM677 1055v173q3 18 18 18h130q17 -3 17 -18v-78q17 0 17 -25h87v-18h-87v-26h78q17 -2 17 -17q0 -12 -26 -26h-199q-17 0 -17 87h-9q0 -87 -17 -87z M842 1107h8v18h-8v-18zM859 1150v96q3 17 17 17h61q17 -3 17 -17v-78q0 -18 -17 -18h-78z" />
<glyph unicode="G" horiz-adv-x="1344" d="M55 683q7 96 26 96h9q17 -3 17 -18v-138q0 -17 -17 -17h-9q-21 0 -26 77zM64 571l17 9h9q17 -3 17 -18v-121h-17zM90 804l8 87h18v-69q0 -18 -18 -18h-8zM142 631v148q2 17 17 17h138q18 -3 18 -17v-148q0 -17 -18 -17h-138q-17 0 -17 17zM150 1003q64 182 156 182l9 -17 v-147q0 -18 -18 -18h-147zM159 415v130q3 17 17 17h130q17 0 17 -52h52q23 0 52 -138h-95v-138q0 -18 -17 -18h-44q-51 21 -112 199zM193 830v147q3 18 18 18h112q17 -3 17 -18v-147q0 -17 -17 -17h-112q-18 0 -18 17zM271 190v9h35q17 -3 17 -17v-35h-8q-12 0 -44 43z M349 545l17 9h9q17 -3 17 -18l-17 -8h-9q-17 0 -17 17zM349 822v164h17v-164h-17zM358 104v8q2 18 17 18h130q17 -3 17 -18v-86q-84 0 -164 78zM358 329v8q2 18 17 18h95q18 -3 18 -18v-8h-130zM358 1211v17q5 25 155 87l9 -17v-87q0 -17 -17 -17h-130q-17 0 -17 17z M375 156l17 8h113q17 -2 17 -17l-17 -9h-113q-17 0 -17 18zM375 580v26h17v-26h-17zM375 830v147q3 18 17 18h87v-9l-95 -173zM392 190v104q3 17 18 17h112q17 -2 17 -17v-104q0 -17 -17 -17h-112q-18 0 -18 17zM392 1021v138q3 17 18 17h112q17 -2 17 -17v-112 q0 -13 -51 -44h-78q-18 0 -18 18zM548 164v9h17v-9h-17zM548 1055v95h17v-95h-17zM565 225v78h18v-78h-18zM574 26v121q3 17 17 17h121q18 -2 18 -17v-130q0 -17 -18 -17h-86q-45 0 -52 26zM574 1073v52l35 51v87q0 11 147 52q135 0 155 -43v-78q0 -18 -26 -18h-138v-8h147 v-18h-147v-8h147l9 -17v-104h-9q-84 69 -156 69h-69q-85 -17 -95 -17zM609 234v43l8 17q121 0 121 -52v-8q94 0 165 51h8v-95q44 0 44 -43q22 -35 43 -35v-8q0 -35 -182 -95l-8 17v156q-78 0 -78 34h-104q-17 0 -17 18zM738 597v86q3 18 18 18h138q17 -3 17 -18v-86 q0 -17 -17 -17h-138q-18 0 -18 17zM764 536v18h156v-18h-156zM920 1012v95q0 12 17 95v52h9q52 0 156 -86v-165q0 -17 -18 -17h-138q-12 0 -26 26zM937 234v138q0 12 26 26h61q8 27 8 69q-25 0 -43 35v43q3 17 18 17h112q17 -2 17 -17v-130q0 -17 -26 -17v-164 q0 -18 -17 -18h-138q-18 0 -18 18zM955 623v112q2 18 17 18h130q17 -3 17 -18v-112q0 -17 -17 -17h-130q-17 0 -17 17zM1007 934l17 9h104q17 -3 17 -17v-26q0 -18 -17 -18h-96q-25 9 -25 52zM1041 95q3 17 17 17h208q17 -2 17 -17v-34q0 -14 -34 -35h-130q-49 0 -61 52 q-17 0 -17 17zM1136 597v86q3 18 18 18h112q17 -3 17 -18v-268q0 -17 -17 -17h-78q-17 0 -17 17v147h-9v-155h-17v129l9 44q-18 0 -18 17zM1162 900v26q3 17 18 17l8 -17v-26q0 -18 -17 -18zM1188 1012v104h17q44 -100 44 -113l-18 -8h-26q-17 0 -17 17zM1205 225v138 q3 18 18 18h43q17 -3 17 -18v-138q0 -17 -17 -17h-43q-18 0 -18 17zM1205 900v26q3 17 18 17h26q17 -3 17 -17v-9q0 -14 -35 -35h-8q-18 0 -18 18z" />
<glyph unicode="H" horiz-adv-x="1238" d="M46 1176v52q0 14 35 35h26q17 -3 17 -17v-87h9v113l17 8h147q17 -3 17 -17v-95l17 -26v-147q0 -18 -17 -18h-181q-18 0 -18 18v155q-64 0 -69 26zM81 588v130q2 17 17 17h43l9 -34h156q17 -3 17 -18v-285q0 -17 -17 -17h-148v-9h156l9 -17v-147q0 -18 -17 -18h-96l-86 -8 l-9 17v268q35 28 35 95q-69 9 -69 26zM81 779v121q2 17 17 17h26q17 -3 17 -17v-121q0 -18 -17 -18h-26q-17 0 -17 18zM115 17v87q1 12 43 34h148q17 -2 17 -17v-104q0 -17 -17 -17h-173q-18 0 -18 17zM193 718v17h121v-17h-121zM219 770v112q3 18 17 18h104q17 -3 17 -18 v-103l9 -44h17l-8 44v43q2 17 17 17l9 -17v-69h17q0 43 17 43q18 0 18 -43h69v-165q0 -17 -18 -17h-138q-17 0 -17 17v121l-9 44h-104q-17 0 -17 17zM331 381v121q3 17 18 17q17 -3 17 -17v-121q0 -18 -17 -18q-18 0 -18 18zM349 960v130h17v-130h-17zM574 761l17 9l9 -17 l-18 -9zM617 606v147q3 17 17 17h95l26 17h78v113q3 17 17 17h52q18 -3 18 -17v-121q0 -18 -18 -18h-147v-155q0 -18 -17 -18h-104q-17 0 -17 18zM773 580v138q2 17 17 17h9v-155q0 -18 -18 -18zM816 35v121q3 17 17 17h52v130q3 17 17 17h199q18 -3 18 -17v-121 q0 -18 -18 -18h-190v-147q0 -17 -17 -17h-44q-13 0 -34 35zM816 554v129q3 18 17 18h268q18 -3 18 -18v-112q0 -17 -18 -17h-155v-9h164v-17h-156v-9h156l9 -17v-121q0 -18 -18 -18h-147q-69 25 -69 35v130q-64 0 -69 26zM868 1168v60q0 28 60 35v52q3 17 18 17h147 q17 -3 17 -17v-113q0 -17 -17 -17h-156q0 -35 -17 -35h-35q-17 0 -17 18zM885 977v122q3 17 17 17h26q18 -3 18 -17v-130h155q18 -3 18 -17v-148q0 -17 -18 -17h-138q-17 0 -17 17v156h-44q-17 0 -17 17zM885 1125v17h52v-17h-52zM963 986v139h17v-139h-17zM980 17v87 q3 17 18 17h121q17 -3 17 -17v-87q0 -17 -17 -17h-121q-18 0 -18 17zM998 995v138q2 17 17 17h112q13 0 26 -25v-148h-138q-17 0 -17 18zM1127 208v311q3 17 18 17l8 -17v-311q0 -18 -17 -18zM1127 1194v112h9q17 -3 17 -17v-95q0 -18 -17 -18z" />
<glyph unicode="I" horiz-adv-x="431" d="M42 571v121l9 17l17 -8h138q18 -3 18 -18v-112q0 -17 -18 -17h-147q-17 0 -17 17zM42 960v121h164q18 -2 18 -17q8 -160 8 -268q0 -17 -17 -17h-130q-17 0 -17 17v104q0 60 -26 60zM68 519v17h164v-17h-164zM85 372v112q3 18 18 18h121q17 -3 17 -18v-112q0 -17 -17 -17 h-121q-18 0 -18 17zM103 1194v104q2 17 17 17h112q30 -35 104 -43v-96q0 -17 -17 -17h-52l-26 17h-121q-17 0 -17 18zM111 311v18h130v-18h-130zM120 17v52q3 18 17 18h113v17h-113q-17 0 -17 17l17 9h87l43 -9v17l-43 9h-87q-17 0 -17 17v104q3 17 17 17h182q17 -2 17 -17 v-242q0 -12 -26 -26h-173q-17 0 -17 17zM267 977v87q3 17 17 17h35q17 -2 17 -17v-268q0 -17 -17 -17t-17 17v130zM284 588v95q3 18 18 18h17q17 -3 17 -18v-285h-17v147q0 5 -35 43z" />
<glyph unicode="J" horiz-adv-x="1011" d="M49 355l17 8h26q18 -2 18 -17v-130q0 -17 -18 -17q-43 76 -43 156zM127 433v95q3 17 17 17h9v-112q0 -18 -17 -18zM161 407v103q3 18 18 18l8 -18v-103q0 -18 -17 -18zM179 104v26q2 17 17 17h121q17 -3 17 -17v-95l-8 -18q-147 60 -147 87zM196 225v259q3 18 17 18h113 q17 -3 17 -18v-259q0 -17 -17 -17h-113q-17 0 -17 17zM360 43q0 73 9 277h17v-121h26v78l9 17l104 -43q0 34 60 86q12 61 26 61h78q17 -3 17 -17v-147q0 -18 -17 -18h-130q-21 -17 -34 -17v-164q0 -18 -18 -18h-129q-18 0 -18 26zM559 17v130q3 17 18 17h129q18 -2 18 -17 v-95q0 -25 -156 -52zM603 813v130q2 17 17 17h69q17 -3 17 -17v-147q26 0 26 -17v-148q0 -17 -17 -17h-43q-17 0 -17 17v165q-52 0 -52 17zM620 1029v147q3 18 17 18h61q17 -3 17 -18v-147q0 -17 -17 -17h-61q-17 0 -17 17zM620 1228v104q0 13 26 26h52q17 -3 17 -17v-113 q0 -17 -17 -17h-61q-17 0 -17 17zM689 424v138q3 18 17 18h26q18 -3 18 -18v-138q0 -17 -18 -17h-26q-17 0 -17 17zM724 995v112q2 18 17 18h147q17 -3 17 -18v-112h26l-8 -61v-104q0 -17 -18 -17h-129q-18 0 -18 17v147q-34 0 -34 18zM758 78v86q0 22 35 26v139q3 17 17 17 h95q18 -3 18 -17q0 -118 -147 -251h-18zM758 407v138q3 17 18 17l8 -17v-138q0 -18 -17 -18zM793 407v285q3 17 17 17h121v-302q0 -18 -17 -18h-104q-17 0 -17 18zM793 1228v113q3 17 17 17h87q13 0 34 -35v-95q0 -17 -17 -17h-104q-17 0 -17 17z" />
<glyph unicode="K" horiz-adv-x="1315" d="M60 17v95q3 18 17 18h70q17 -3 17 -18v-95q0 -17 -17 -17h-70q-17 0 -17 17zM60 588v139q9 26 52 26v121q3 17 17 17h43q18 -3 18 -17v-113q0 -17 -26 -17v-156q0 -17 -17 -17h-70q-17 0 -17 17zM60 960v113q3 17 17 17h70q17 -3 17 -17v-113q0 -17 -17 -17h-70 q-17 0 -17 17zM77 173v121q3 17 18 17h242q17 -2 17 -17v-277q0 -17 -17 -17h-147q-18 0 -18 17v139h-77q-18 0 -18 17zM77 381v129q0 18 104 26q0 18 26 18v121q3 17 17 17h130q17 -3 17 -17v-113l-17 -26v-147q0 -17 -17 -17h-35q-73 0 -216 -9zM95 908v18h86v-18h-86z M112 1176v96q0 12 26 26h34q18 -3 18 -18v-104q0 -17 -18 -17h-43q-17 0 -17 17zM198 744v130h18v-130h-18zM198 1176v122h18v-122h-18zM216 718l17 9h121q17 -3 17 -18l-17 -8h-121q-17 0 -17 17zM224 753v103q3 18 18 18h121q22 0 34 -70l113 104h34q18 -2 18 -17v-121 q0 -17 -18 -17h-155l-26 -18h-121q-18 0 -18 18zM224 1185v113q3 17 18 17h121q17 -3 17 -17v-113q0 -17 -17 -17h-121q-18 0 -18 17zM242 995v147q2 17 17 17h104q17 -3 17 -17v-165h-121q-17 0 -17 18zM406 571v121q3 17 17 17h130q17 -2 17 -17v-121q0 -17 -17 -17h-130 q-17 0 -17 17zM518 969v8q0 13 26 26h9v-17q0 -17 -17 -17h-18zM553 484q11 0 52 61q15 9 35 9v103q2 18 17 18h104l43 8q156 -218 156 -242v-78q34 0 34 -17v-147q0 -17 -17 -17h-104q-17 0 -17 17v164h-26v-173h-17v173h-26v130l-9 43h-17v-147q0 -17 -18 -17h-103 q-29 16 -87 112zM640 796v147q2 17 17 17h112q18 0 44 -86q-78 -58 -78 -95h-78q-17 0 -17 17zM657 986v43q77 130 199 130h216v-9l-164 -173q-196 -8 -242 -8zM709 346v17h78v-121h-18q0 18 -60 104zM769 1168v17h18q0 -17 -18 -17zM804 1176v44h17v-44h-17zM821 147 q3 17 18 17h121q17 0 17 -52h156q17 -2 17 -17v-78q0 -17 -17 -17h-208q-9 0 -104 147zM839 1185v61q28 49 60 69h61q8 0 69 17h121q17 -3 17 -17v-69q0 -11 -69 -70q-190 -8 -251 -8zM1003 199v147q3 17 17 17l9 -17v-147q0 -17 -17 -17zM1037 199v138h9q12 0 104 -138v-17 h-95q-18 0 -18 17zM1202 17v87h8q11 0 44 -52v-26q0 -12 -26 -26h-9q-17 0 -17 17z" />
<glyph unicode="L" horiz-adv-x="1061" d="M43 398v147q0 17 35 17v113q2 17 17 17h9q17 -3 17 -17v-113l-17 -26v-138q0 -17 -18 -17h-26q-17 0 -17 17zM60 26v268q3 17 18 17h17q17 -2 17 -17v-277q0 -17 -17 -17h-9q-12 0 -26 26zM78 977v130q0 12 52 26q8 15 8 35v78q3 17 17 17h139q17 -3 17 -17 q-8 -160 -8 -269q0 -17 -18 -17h-190q-17 0 -17 17zM78 1185v104q0 12 26 26q17 -3 17 -17v-113q0 -17 -17 -17h-9q-17 0 -17 17zM112 787v139q3 17 18 17l8 -17v-139q0 -17 -17 -17zM138 182v129q3 18 17 18h139q17 -3 17 -18v-138l17 -26v-130q0 -17 -17 -17h-121 q-17 0 -17 17v147q-35 0 -35 18zM155 398v147q0 17 52 17v147q3 18 18 18h103q18 -3 18 -18v-129q0 -18 -26 -18v-164q0 -17 -17 -17h-130q-18 0 -18 17zM164 779v155h17v-155h-17zM207 787v139q3 17 18 17h103q18 -3 18 -17q-17 -9 -26 -9v-9q22 0 34 -34q18 -3 18 -18 v-121q-52 0 -52 35h-95q-18 0 -18 17zM337 156v104q3 17 17 17h18q26 0 26 -69h95l34 -61h156q17 -3 17 -17v-113q0 -17 -17 -17h-259q-18 0 -18 17v113q-69 0 -69 26zM354 381v155h18v-155h-18zM354 977v156h18v-156h-18zM536 199v78q3 17 17 17h139q17 -3 17 -17v-78 q0 -17 -17 -17h-139q-17 0 -17 17zM752 173v17q3 18 18 18h129q11 0 35 -70v-121q0 -17 -17 -17h-113q-17 0 -17 17v104zM960 9v112h17v-112h-17z" />
<glyph unicode="M" horiz-adv-x="1542" d="M53 787v268q3 18 17 18h70q17 -3 17 -18v-268q0 -17 -17 -17h-70q-17 0 -17 17zM62 156v104q2 17 17 17h69q17 -3 17 -17v-104q0 -18 -17 -18h-69q-17 0 -17 18zM79 1176v87q0 32 104 43q0 9 8 9h147q18 -3 18 -17v-113q0 -17 -18 -17h-34q-73 0 -216 -9zM88 112l17 9h60 q18 -3 18 -17v-9h-78q-17 0 -17 17zM96 303v17h61v-17h-61zM96 562v113q3 17 18 17h51q18 -3 18 -17v-113q0 -17 -18 -17h-51q-18 0 -18 17zM114 17v44q2 17 17 17h52q4 34 26 34h138q17 -2 17 -17v-69q0 -12 -26 -26h-207q-17 0 -17 17zM114 363v113q2 17 17 17h216 q17 -3 17 -17v-277q0 -17 -17 -17h-121q-17 0 -17 17v147h-78q-17 0 -17 17zM114 510v18h69v-18h-69zM209 571v121q2 17 17 17h121q17 -2 17 -17v-121q0 -17 -17 -17h-121q-17 0 -17 17zM209 995v147q2 17 17 17h130q17 -3 17 -17v-147q0 -18 -17 -18h-130q-17 0 -17 18z M226 779v129q3 18 17 18h139q4 34 26 34h52v95q2 18 17 18h86q15 0 52 -121l-17 -9l9 -17l-9 -18q22 0 69 -155q24 0 69 -182h-60q-17 0 -17 17v156q-11 0 -87 9v-156q0 -17 -17 -17h-78q-28 0 -69 173l17 8h147v173h-9v-147l-17 -8h-156l-26 -18h-121q-17 0 -17 18z M373 1194v121q3 17 17 17h78q30 0 61 -156h-139q-17 0 -17 18zM468 519l18 9h69q17 -3 17 -18v-216h-17zM589 182v129l35 44v121q3 17 17 17h121q18 -3 18 -17v-113l-18 -26v-155q0 -18 -17 -18h-138q-18 0 -18 18zM624 121l17 9h130l26 -18h104q17 -2 17 -17 q-28 -95 -43 -95h-199q-15 0 -52 121zM806 588q45 156 60 156h78q17 -3 17 -17v-139q0 -17 -17 -17h-121q-17 0 -17 17zM823 372v104q3 17 17 17h190q18 -3 18 -17q-78 -198 -78 -234q-30 -78 -43 -78h-70q-17 0 -17 18v121q0 8 -17 69zM909 761q29 165 61 165 q17 -29 17 -52h156q17 -3 17 -18v-103q26 0 26 -18q-26 0 -26 -52h-17v70h-9q-45 -182 -69 -182h-9q-17 0 -17 17v139q-26 0 -26 26l-26 -18q-8 17 -8 26h-70zM996 1168q37 130 52 130h95q17 -3 17 -18v-104q0 -17 -17 -17h-130zM1005 952l8 86h17v-86q0 -18 -17 -18z M1013 908l17 9h113q17 -3 17 -17l-17 -9h-113q-17 0 -17 17zM1039 952v103q3 18 17 18h113q17 -3 17 -18v-95q3 -17 17 -17h9l-9 17v121h18v-129h17v138q3 17 17 17h113q17 -3 17 -17v-121q0 -17 -26 -17v-165q0 -17 -17 -17h-139q-17 0 -17 17v130q0 17 -17 17h-113 q-17 0 -17 18zM1169 17v130q3 17 17 17h147q18 -2 18 -17v-130q0 -17 -18 -17h-147q-17 0 -17 17zM1195 190v104q5 52 26 52h130q17 -3 17 -17v-139q0 -17 -17 -17h-139q-17 0 -17 17zM1195 718v9h17v-9h-17zM1221 580v129q2 18 17 18h208q17 -3 17 -18v-129q0 -18 -17 -18 h-61v-164q0 -17 -17 -17h-113q-17 0 -17 17v156zM1238 1176v104q3 18 17 18h113q17 -3 17 -18v-104q0 -17 -17 -17h-113q-17 0 -17 17zM1385 164v113q3 17 17 17h44q17 -3 17 -17v-113q0 -17 -17 -17h-44q-17 0 -17 17zM1394 346v164h17v-164h-17zM1394 986v139h17v-139h-17 zM1402 17v61q3 17 18 17h26q17 -3 17 -17v-52q0 -12 -26 -26h-17q-18 0 -18 17zM1402 112v18h52v-18h-52zM1402 320l18 9h26q17 -3 17 -18l-17 -8h-26q-18 0 -18 17zM1411 1272h17v-113h35v-164q0 -18 -17 -18h-9q-17 0 -17 18q0 91 -9 277zM1420 355v103q2 18 17 18h9 q17 -3 17 -18v-103q0 -18 -17 -18h-9q-17 0 -17 18zM1420 770v121q2 17 17 17h9q17 -2 17 -17v-121q0 -17 -17 -17h-9q-17 0 -17 17z" />
<glyph unicode="N" horiz-adv-x="1216" d="M55 17v78q3 17 17 17h139q17 -2 17 -17v-78q0 -17 -17 -17h-139q-17 0 -17 17zM55 182v129q3 18 17 18h139q17 -3 17 -18v-129q0 -18 -17 -18h-139q-17 0 -17 18zM55 952v121q3 17 17 17h139q17 -3 17 -17v-113q26 0 26 -17v-147q0 -17 -17 -17h-113q-17 0 -17 17v147 q-26 0 -26 17l-17 -8h-9zM72 398v147q0 17 52 17v147q3 18 18 18h181q17 -3 17 -18v-129q0 -18 -17 -18h-86v-164q0 -17 -18 -17h-129q-18 0 -18 17zM81 1107v18h138v-18h-138zM90 1159v87q2 17 17 17h251q11 0 78 -121q43 0 121 -173h-9q-143 -9 -216 -9l-9 17v148 q-32 0 -52 17h-164q-17 0 -17 17zM237 156v104q2 17 17 17h69q17 -3 17 -17v-234q0 -12 -25 -26h-26q-18 0 -18 17v87zM271 770v164h18v-164h-18zM280 303v17h52v-17h-52zM306 363v113q3 17 17 17q17 -3 17 -17v-113q0 -17 -17 -17t-17 17zM306 779v129q3 18 17 18h113 q17 -3 17 -18v-129q0 -18 -17 -18h-70l-26 18q0 -18 -17 -18t-17 18zM384 718l17 9q17 -3 17 -18v-26h-8q-13 0 -26 35zM453 623v52q3 17 17 17h139q17 -3 17 -17v-113q0 -17 -17 -17h-113q-43 35 -43 78zM479 770v147h17v-147h-17zM505 519v17h112v-17h-112zM522 510h87 q17 -2 17 -17v-138h-9q-95 107 -95 155zM522 779v129q3 18 17 18h44q34 -32 86 -156l-17 -9h-113q-17 0 -17 18zM652 303v8q0 18 52 35v112q2 18 17 18h113v26h-139v17h139q0 43 17 43h69v130q3 17 17 17h113v9h-147v17h164q0 26 17 26h44q17 -3 17 -17v-147q0 -17 -17 -17 h-70q0 -26 -43 -26v-156q0 -17 -17 -17h-147v-70h147q17 -2 17 -17v-130q61 0 61 -69h52q17 -3 17 -17v-52q0 -12 -26 -26h-182q-17 0 -17 17v139h-26q-9 0 -9 -9l-17 9h-26v-87h-17q-28 95 -95 95q-78 94 -78 139zM669 562v113q3 17 17 17h35q13 0 95 -138l-17 -9h-113 q-17 0 -17 17zM825 164h9v173h-9v-173zM834 977v130q2 18 17 18h147q17 -3 17 -18v-130q0 -17 -17 -17h-147q-17 0 -17 17zM868 761v113q3 17 17 17h130q17 -3 17 -17v-113q0 -17 -17 -17h-130q-17 0 -17 17zM868 1194v112q0 13 26 26h121q17 -3 17 -17v-52h87q12 0 26 -26 v-242q0 -18 -17 -18h-44q-17 0 -17 18v147q-35 0 -35 34h-147q-17 0 -17 18zM1050 787v139q2 17 17 17h61q17 -3 17 -17v-139q0 -17 -17 -17h-61q-17 0 -17 17zM1119 199v147q3 17 17 17l9 -17v-147q0 -17 -17 -17zM1119 389v139q3 17 17 17l9 -17v-139q0 -17 -17 -17z" />
<glyph unicode="O" horiz-adv-x="1436" d="M51 701q9 52 26 52q17 -3 17 -18v-129q0 -18 -17 -18q-26 0 -26 113zM94 813v17h18v-17h-18zM112 597v121q2 17 17 17h147q17 -2 17 -17v-121q0 -17 -17 -17h-147q-17 0 -17 17zM129 441v87q0 12 26 26h156q0 8 -9 8l9 18v103q2 18 17 18h43q17 -3 17 -18v-60 q0 -82 61 -225h-9q-220 -9 -294 -9q-17 29 -17 52zM155 294l17 9h113q17 -3 17 -18v-103q0 -18 -17 -18h-18q-83 72 -112 130zM181 813v147q24 13 112 139h18q17 -3 17 -18v-121q17 -21 17 -43h78q-26 -147 -43 -147h-35q-17 0 -17 26h-130q-17 0 -17 17zM285 147v9h26 q17 -3 17 -18l-17 -8h-9q-17 0 -17 17zM311 1125v17h8v-17h-8zM328 1220v34q12 33 164 95l9 -17v-112q0 -18 -17 -18h-139q-17 0 -17 18zM336 104v26h18v-26h-18zM336 727v17h44v-17h-44zM345 199v121q3 17 17 17h130q17 -2 17 -17v-121q0 -17 -17 -17h-130q-17 0 -17 17z M345 986v121h17v-121h-17zM362 95v43q3 18 18 18h121q17 -3 17 -18v-112q-156 37 -156 69zM380 995v121q2 17 17 17h112q18 -3 18 -17v-69q0 -11 -69 -70h-61q-17 0 -17 18zM544 208v86q3 17 17 17q1 -27 147 -69v-52q26 0 26 -17v-147q0 -17 -17 -17h-69q-45 0 -52 26v155 q-52 0 -52 18zM544 1064v86h17v-86h-17zM561 1220v129q0 23 147 35l9 -17v-147q0 -18 -17 -18h-121q-18 0 -18 18zM579 1090v78q2 17 17 17h112q18 -3 18 -17v-61q0 -11 -139 -34zM743 190q59 9 164 52v-60q26 0 26 -18l-17 -26q26 0 26 -34h112v-17q-190 -87 -250 -87 l-9 17v139h-17v-139q0 -17 -18 -17l-8 17v113zM752 1099v60h17v-60h-17zM778 1220v138q0 17 26 17q138 0 138 -103q148 -54 164 -87v-69h70q65 -63 95 -139l-18 -8h-129l-26 17h-147q-20 29 -156 104v43q3 17 17 17h130v9q-17 22 -17 43h-130q-17 0 -17 18zM985 891l18 9h86 q17 -3 17 -18q9 -196 9 -294l-17 -8h-9q-17 0 -17 17v95q0 19 -69 138zM994 216v130q0 12 26 26h60q38 0 70 -17l-9 43v130h17v-156h18v130q2 17 17 17h112q18 -3 18 -17v-18q0 -95 -147 -294h-9q-89 9 -139 9h-17q-17 0 -17 17zM1028 389v9q58 156 70 156h8q18 -3 18 -18 v-129q0 -18 -18 -18h-78zM1106 138v18q3 17 18 17h17v-9q0 -12 -26 -26h-9zM1124 796v121q2 17 17 17h138q18 -3 18 -17v-121q0 -17 -18 -17h-138q-17 0 -17 17zM1124 943v17h164v-17h-164zM1150 1133v17h34v-17h-34zM1158 597v121q3 17 18 17h121q8 0 52 -52v-69 q0 -45 -26 -52q0 18 -18 18h-129q-18 0 -18 17z" />
<glyph unicode="P" horiz-adv-x="1153" d="M60 1176v96q0 12 26 26h61q17 0 17 -35h164q17 -3 17 -17v-87q14 0 35 -17v104q3 17 17 17h139q17 0 17 -26q0 -182 -26 -182h-173v-60q0 -18 -17 -18h-104q-17 0 -17 18v147q-41 0 -61 17h-78q-17 0 -17 17zM77 17v95l35 44v121q3 17 17 17h52q7 52 35 69h121 q17 -2 17 -17v-147q0 -17 -17 -17h-147q0 -22 -18 -44v-121q0 -17 -17 -17h-60q-18 0 -18 17zM77 389v139q0 21 35 26v121q3 17 17 17h43q18 -3 18 -17v-113l-18 -26v-147q0 -17 -17 -17h-60q-18 0 -18 17zM95 796v259q2 18 17 18h52q17 -3 17 -18v-78l9 -86h147 q17 -3 17 -17v-113q0 -17 -17 -17h-147q-18 0 -18 35h-60q-17 0 -17 17zM190 986v121h17v-121h-17zM198 138q3 18 18 18v-18h-18zM207 536v130q3 17 17 17l9 -17v-112q0 -18 -17 -18h-9zM224 701v17h156v-17h-156zM233 17v113q3 17 17 17h87q17 -3 17 -17v-104 q0 -12 -26 -26h-78q-17 0 -17 17zM250 389v268q3 18 18 18h103q18 -3 18 -18v-86l8 -43h9l-9 43v95q3 17 18 17q8 -16 8 -26v-112h9v104l17 8h113q17 -2 17 -17v-78q0 -17 -26 -17v-69q0 -18 -17 -18h-165q-17 0 -26 -86h-77q-18 0 -18 17zM579 1064v26q3 17 17 17h139 q17 -3 17 -17v-104h-17q0 44 -156 78zM596 476v17q3 17 18 17h129q18 -2 18 -17v-9q-6 -26 -70 -26h-77q-18 0 -18 18zM596 1185v113q3 17 18 17h52q95 0 95 -26v-104q0 -17 -18 -17h-129q-18 0 -18 17zM605 580v95h17v-95h-17zM648 588v104q0 26 139 43v-147q0 -17 -18 -17 h-103q-18 0 -18 17zM778 493v35q0 17 26 17l-9 17v130q3 17 18 17q8 -16 8 -26v-129h9v112l17 9h113q17 -3 17 -18v-60q-50 -78 -190 -121zM795 977v130q3 18 18 18h129q18 -3 18 -18v-130q0 -17 -18 -17h-129q-18 0 -18 17zM830 761v113q3 17 17 17h113q17 -3 17 -17v-113 q0 -17 -17 -17h-113q-17 0 -17 17zM830 1185v87l9 17q84 -34 129 -95v-26h-121q-17 0 -17 17zM839 701v17h129v-17h-129zM986 753v129h17v-129h-17zM994 1125l18 8q56 -78 69 -173l-18 -8h-34q-17 0 -17 17v130zM1003 640v26h17v-26h-17zM1012 761v113q2 17 17 17h34 q18 -3 18 -17v-26q0 -104 -35 -104h-17q-17 0 -17 17zM1037 701v17h9v-17h-9z" />
<glyph unicode="Q" horiz-adv-x="1450" d="M61 770q13 34 26 34h78q17 -2 17 -17v-130q22 0 43 -17h156q12 -10 52 -173l104 -60q12 0 60 -61v-61q0 -17 -17 -17h-156q-26 0 -34 -104q-51 24 -121 104v104q2 17 17 17h121q12 0 26 26q-35 43 -35 61h-216q-19 0 -52 164q-69 0 -69 130zM70 891q25 182 103 182v8h18 l-9 -86v-95q0 -18 -17 -18h-78zM208 398v17h17v-17h-17zM234 320v69q3 18 17 18l9 -18v-86h-9q-17 0 -17 17zM234 692v130q3 17 17 17h121q18 -3 18 -17v-121l8 -18l-17 -8h-130q-17 0 -17 17zM251 882v121q3 18 18 18h121q52 17 52 34h8q18 -2 18 -17q-36 -30 -78 -173 h-121q-18 0 -18 17zM251 1107v95q0 47 44 70h95q17 -3 17 -18v-147q0 -17 -17 -17h-121q-18 0 -18 17zM286 1289v9q64 77 104 77v-69q0 -17 -18 -17h-86zM416 1298v69q0 35 164 69h9v-138q0 -18 -18 -18h-138q-17 0 -17 18zM442 242q2 18 17 18v-18h-17zM485 130v95 q3 17 17 17h87q87 0 103 61q34 -18 96 -18h8v52q0 5 -34 44v8q43 0 43 52h26v69q3 18 17 18h9v-70h8v96l18 8h34q66 -60 78 -60q0 37 35 216l8 52q-8 14 -8 43v9q3 17 17 17h113q17 -3 17 -17v-312q0 -17 -17 -17h-156q17 -35 17 -52h147q18 -3 18 -17v-130q0 -17 -18 -17 h-147v-113q-61 -60 -130 -60l-8 17v156h-18q0 -26 -17 -26h-8v26h-18q0 -14 -17 -35v-138q0 -17 -17 -17h-104q-195 8 -199 43zM485 1081v104q3 17 17 17h61q17 0 86 -17v-17q-64 0 -155 -87h-9zM649 1298v129q9 26 52 26h87q31 -50 155 -60q44 -23 44 -35v-78 q0 -17 -18 -17h-147l-26 17h-129q-18 0 -18 18zM796 476v8q3 18 18 18h8v-9q0 -17 -17 -17h-9zM814 1176l17 9h138q18 -3 18 -17v-78q0 -17 -18 -17h-26zM978 277h35v138l-9 43h-26v-181zM1030 1021v43h17v-43h-17zM1038 130v104q3 17 18 17l8 -17v-104q0 -18 -17 -18z M1064 986v69q3 18 18 18h112q26 -6 26 -70h95q23 0 44 -138l-18 -9h-121q-17 0 -17 35h-104q-22 0 -35 95zM1064 1298v51q3 18 18 18l86 -78v-9h-86q-18 0 -18 18zM1082 104v104q2 17 17 17h104q17 -3 17 -17v-121q0 -18 -17 -18h-69q-52 23 -52 35zM1082 1099v138 q2 17 17 17h95q71 -74 121 -199l-17 -8h-61q-17 0 -17 34h-121q-17 0 -17 18zM1186 17v9h34v-9q0 -17 -17 -17t-17 17zM1229 1029l17 9h61q17 -3 17 -17l-17 -9h-61q-17 0 -17 17zM1237 78v121q3 17 18 17l8 -17v-121q0 -17 -17 -17zM1237 813v17h113v-17h-113zM1246 666 v104q3 17 17 17h78q18 -3 18 -17v-9q-15 -269 -70 -294l-8 17v130zM1272 234h17v-18q-17 0 -17 18zM1281 87v103q2 18 17 18h9q11 0 43 -44v-17q0 -13 -61 -60h-8z" />
<glyph unicode="R" horiz-adv-x="1238" d="M66 173v121q3 17 17 17h139q17 -2 17 -17v-121q0 -17 -17 -17h-139q-17 0 -17 17zM66 1159v87q3 17 17 17h139q17 -3 17 -17v-96q26 0 26 -17q-9 0 -9 -8l26 -18h139q17 -3 17 -17v-17q0 -18 -17 -18h-44v-268q0 -17 -17 -17h-9q-17 0 -17 17v156q-50 0 -86 26h-113 q-17 0 -17 17v147q-14 0 -35 17q0 -8 -8 -8zM83 796v147q3 17 18 17h129q18 -3 18 -17v-147q0 -17 -18 -17h-129q-18 0 -18 17zM101 320v17h129v-17h-129zM118 17v78q3 17 17 17h95q39 -34 44 -34h86q17 -3 17 -17v-35q0 -12 -26 -26h-216q-17 0 -17 17zM118 363v113 q3 17 17 17h87q61 -17 69 -17h69q17 -3 17 -18v-259q0 -17 -17 -17h-78q-17 0 -17 17v138l-43 9h-87q-17 0 -17 17zM118 562v113q3 17 17 17h113q17 -3 17 -17v-113q0 -17 -17 -17h-113q-17 0 -17 17zM127 510v18h121q17 -3 17 -18q-9 0 -9 -8l-17 8h-112zM274 580v129h17 v-129h-17zM300 588v139q2 17 17 17h86q52 -6 52 -26v-130q0 -17 -17 -17h-121q-17 0 -17 17zM317 1176v104q3 18 17 18h113q17 -3 17 -18v-104q0 -17 -17 -17h-113q-17 0 -17 17zM481 510q3 18 18 18h129q18 -3 18 -18q0 -17 -18 -17h-129q-18 0 -18 17zM490 1168v121h17 v-121h-17zM516 1073v69l17 26v112q3 18 17 18h87q61 17 69 17h121l35 -52q76 0 164 -95q0 -18 -17 -18h-147l-26 18h-156q-17 -3 -17 -18v-77q0 -18 -17 -18h-113q-17 0 -17 18zM533 571v112q3 18 17 18h26q87 0 260 8l9 -17v-121q0 -17 -18 -17h-277q-17 0 -17 17zM680 502 v8q3 18 17 18h130q18 -3 18 -18v-129q0 -18 -18 -18q-83 92 -147 139zM689 1064v61h17v-61h-17zM732 1055v35q3 17 17 17h96l25 18h148q17 -3 17 -18v-130q0 -17 -17 -17h-148q-108 62 -138 95zM845 779l8 43v78q3 17 17 17v-43h148q17 -3 17 -18v-103q0 -18 -17 -18h-148 q-12 0 -25 44zM862 363v113q3 17 17 17h139q17 -3 17 -17v-113q0 -17 -17 -17h-139q-17 0 -17 17zM862 519l17 9h139q17 -3 17 -18l-17 -8h-139q-17 0 -17 17zM862 554v103q3 18 17 18h147v-9l-34 -35v-8q26 0 26 -17q-9 -17 -9 -26q17 -3 17 -18q0 -12 -26 -26h-121 q-17 0 -17 18zM862 709l17 9h139q17 -3 17 -17l-17 -9h-139q-17 0 -17 17zM888 311v18h155v-18h-155zM896 164v113q3 17 18 17h129l26 17h35q24 0 43 -216q12 0 26 -60q-13 -35 -26 -35h-216q-17 0 -17 17v61q2 17 17 17h112v17h-129v18h129v17h-129q-18 0 -18 17zM1043 761 v113q3 17 18 17h60q18 -3 18 -17q-27 -130 -52 -130h-26q-18 0 -18 17zM1043 986v139q3 17 18 17h17q61 -72 61 -165l-18 -8h-60q-18 0 -18 17zM1052 709v18h17v-18h-17z" />
<glyph unicode="S" horiz-adv-x="1188" d="M72 311l17 9h147q18 -3 18 -17v-130q26 0 26 -17v-61q0 -17 -18 -17q-175 154 -190 233zM98 891l17 9h121q18 -3 18 -18v-121h34v-17h-17v-26q13 0 35 -17h129q18 -3 18 -18v-77q-120 0 -225 112q0 9 -95 69q-35 93 -35 104zM107 415v52q2 17 17 17h225q12 0 26 -26v-60 h-251q-17 0 -17 17zM159 1012q33 158 69 173h43q17 -3 17 -17v-147q0 -18 -17 -18h-95zM184 1194v8q0 13 61 61l9 -17v-35q0 -17 -18 -17h-52zM306 1003v147q2 18 17 18v-182q-17 0 -17 17zM323 199v121q3 17 17 17h78q61 -41 61 -52v-86q0 -17 -18 -17h-121q-17 0 -17 17z M323 822v164h17v121q0 10 -17 95q0 26 156 78q0 87 77 87h87q17 -3 17 -18v-138q0 -17 -17 -17h-164l8 -61v-26q-78 -57 -78 -121q0 -15 61 -86q0 -26 173 -70l9 -17v-9q0 -17 -18 -17h-147l-26 17h-121q-17 0 -17 18zM340 61v43q3 17 17 17h113q17 -3 17 -17v-78 q0 -17 -17 -17q-130 23 -130 52zM487 606v112q3 17 18 17h138q17 -2 17 -17v-121q0 -17 -17 -17h-130q-12 0 -26 26zM496 9v103h17v-103h-17zM505 225v43l8 17q34 -17 95 -17h44q17 -3 17 -17v-26q0 -17 -17 -17h-130q-17 0 -17 17zM505 1107v35h17v-35h-17zM522 17v87 q3 17 17 17h121q18 -3 18 -17v-87q0 -17 -18 -17h-121q-17 0 -17 17zM539 1125l17 8h113q17 -3 17 -17l-8 -17l-44 8h-78q-17 0 -17 18zM669 182q164 30 164 112h18v-112q0 -18 -18 -18h-147q-17 0 -17 18zM695 147l17 9h147q17 -3 17 -18l-17 -8h-147q-17 0 -17 17z M703 1099v43h18v-43h-18zM721 17v87q2 17 17 17h121q17 -3 17 -17v-52q0 -26 -147 -52zM721 528v26q2 17 17 17h121q17 -3 17 -17v-104h-17zM721 623v147q2 17 17 17h121q26 -8 26 -52h17q156 -30 156 -104q0 -40 17 -60v-147q0 -17 -17 -17h-121q-17 0 -17 17v156 q-9 0 -26 8q0 -8 -9 -8q-9 16 -9 26h-138q-17 0 -17 17zM721 813v9q2 17 17 17q65 -26 95 -26v-17h-95q-17 0 -17 17zM721 1185v130l8 17q147 -23 147 -43v-78l9 -61h-9q9 -15 9 -34h147q17 -3 17 -17v-113l18 -26v-26q0 -17 -18 -17h-129q-40 60 -78 95q-23 43 -104 78 q0 82 -17 95zM842 934v18q3 17 17 17h17v-35q0 -17 -17 -17t-17 17zM902 1202v78l9 18q85 -35 130 -96v-17h-121q-18 0 -18 17zM937 208v129q3 18 17 18h113q17 -3 17 -18v-147q-22 -49 -121 -112l-9 17v87zM1101 943v34h18v-34h-18zM1110 251v104h17v-104h-17z" />
<glyph unicode="T" horiz-adv-x="1209" d="M64 1194v104q0 13 35 34h77q18 -3 18 -17v-121q0 -18 -18 -18h-95q-17 0 -17 18zM99 1055v18q2 17 17 17h86v52q3 17 18 17h147q17 -3 17 -17v-87q0 -17 -17 -17h-251q-17 0 -17 17zM220 1185v113q2 17 17 17h138q18 -3 18 -17v-113q0 -17 -18 -17h-138q-17 0 -17 17z M401 1055v87q3 17 18 17h147q17 -3 17 -17v-147q0 -18 -17 -18h-113q-17 0 -17 18v43q-35 0 -35 17zM445 173v87q2 17 17 17h112q18 -3 18 -17v-104q26 0 26 -18v-121q0 -17 -18 -17h-86q-17 0 -17 17v130q-45 0 -52 26zM462 372v121q3 17 17 17h104q17 0 17 -34h147 q18 -3 18 -18v-276q0 -18 -18 -18h-60q-17 0 -17 18v138q-26 0 -78 35h-113q-17 0 -17 17zM471 1185v113q2 17 17 17h112q18 -3 18 -17v-113q0 -17 -18 -17h-112q-17 0 -17 17zM514 588v303q3 17 17 17h87q0 14 17 35l-17 26v121q0 17 26 17l-9 61v104h17v-139h18v95 q2 18 17 18h130q7 52 34 69h130q17 -3 17 -17v-113q0 -17 -17 -17h-164q0 -35 -26 -35v-78q0 -17 -26 -17v-242q0 -17 -18 -17h-121v-35q18 -21 18 -35h103q18 -2 18 -17v-121q0 -17 -18 -17h-112l-26 17h-78q-17 0 -17 17zM626 9v112h18v-112h-18zM652 17v78q3 17 18 17h77 q18 -2 18 -17v-69q0 -12 -26 -26h-69q-18 0 -18 17zM843 1133v9h17v-9h-17zM886 1055v70q2 17 17 17h216q18 -3 18 -17v-61q0 -12 -26 -26h-208q-17 0 -17 17zM1016 1194v121q2 17 17 17h78q12 0 26 -26v-112q0 -18 -18 -18h-86q-17 0 -17 18z" />
<glyph unicode="U" horiz-adv-x="1223" d="M55 398v112q0 18 104 26q0 9 8 9h148q17 -3 17 -17v-130q0 -17 -17 -17h-52q-61 0 -191 -9zM72 1185v95q0 13 26 26h44q17 -3 17 -17v-104q0 -17 -17 -17h-52q-18 0 -18 17zM90 606v138q2 17 17 17h43q4 -34 26 -34h139q17 -3 17 -18v-121q0 -17 -17 -17h-148 q-77 25 -77 35zM90 813v147l17 26v104q0 11 60 35h148q17 -3 17 -18v-303q0 -17 -17 -17h-87q-138 0 -138 26zM124 303q54 11 95 43h139q0 9 8 26q-17 0 -17 17v9h17q0 -64 165 -121q8 0 8 -9v-52q0 -17 -17 -17h-156l-26 -17h-155l-18 -9q-23 34 -43 130zM193 121v17h9v-17 h-9zM202 1185v104q3 17 17 17h113q17 -3 17 -17v-104q0 -17 -17 -17h-113q-17 0 -17 17zM237 87v8h112q17 -3 17 -17v-35q0 -17 -17 -17q-112 43 -112 61zM384 26v86h17v-86h-17zM418 26v104q3 17 18 17h155q21 0 35 69h69l61 9l8 -17v-26l-17 -26v-130q0 -26 -95 -26h-139 q-95 0 -95 26zM773 208v60h17v-60h-17zM799 216v104q43 52 43 61l-17 8l9 87v52q0 19 69 34v113q2 17 17 17h35q17 -3 17 -17v-95h17v103q3 18 18 18l8 -18v-103h17v112q3 17 18 17h78q17 -2 17 -17v-242q0 -45 -26 -52h-121q-17 0 -17 17v139h-44v-165l18 -26v-147 q0 -17 -18 -17h-121q-17 0 -17 17zM816 35v43q3 17 18 17h103v-17q-96 -43 -112 -43h-9zM816 995v112q3 18 18 18h77q18 -3 18 -18v-130h17v130q3 18 17 18h147q18 -3 18 -18v-121q0 -17 -18 -17h-138q9 -17 9 -26h138q17 -3 17 -17v-130q0 -17 -17 -17h-147q-69 24 -69 34 v164h-69q-18 0 -18 18zM868 1133v17h52v-17h-52zM903 1176v78q0 14 34 35h18q17 -3 17 -17v-96q0 -17 -17 -17h-35q-17 0 -17 17zM955 1133v17h8v-17h-8zM981 1194v95q2 17 17 17l9 -17v-95q0 -18 -18 -18zM998 190v121q3 18 17 18h87l17 -9q-53 -132 -87 -147h-17 q-17 0 -17 17zM1015 1194v112q3 17 17 17h96q17 -2 17 -17v-112q0 -18 -17 -18h-96q-17 0 -17 18z" />
<glyph unicode="V" horiz-adv-x="1315" d="M72 1272l35 26h121q17 -3 17 -18v-130q35 0 35 -17q14 9 43 9v86q3 18 17 18h61q18 0 52 -113q-18 -3 -18 -17v-139q0 -17 -17 -17h-156q-23 0 -78 190q-86 0 -86 26q-26 59 -26 96zM254 943l17 9q35 -41 35 -52h207q14 0 61 -147l-18 -9h-250q-13 0 -26 26v69 q0 26 -26 104zM306 657v44q2 17 17 17h121q17 -3 17 -17v-130q0 -17 -17 -17h-95q-29 0 -43 103zM332 493l17 9h86q18 -3 18 -18v-121q0 -17 -18 -17h-43q-26 0 -60 147zM409 294l18 9h17q17 -3 17 -18v-103h-17q0 23 -35 112zM470 389v165h17v129q3 18 18 18h69 q69 -107 69 -217v-95q0 -17 -17 -17h-139q-17 0 -17 17zM470 977v52h17q0 -26 18 -60l-18 -9q-17 0 -17 17zM487 17v87q3 17 18 17h129q18 -3 18 -17v-87q0 -17 -18 -17h-129q-18 0 -18 17zM487 173v130q3 17 18 17h129q18 -3 18 -17v-130q0 -17 -18 -17h-129q-18 0 -18 17z M703 363v52q0 64 26 69h113q17 -2 17 -17q9 -225 9 -303l-17 -8h-113q-17 0 -17 17v121q0 8 -18 69zM738 17v104q3 17 17 17h104v-8q-23 -130 -52 -130h-52q-17 0 -17 17zM738 562q81 287 104 303l9 -17q8 -197 8 -294l-17 -9h-87q-17 0 -17 17zM885 234v77h17v-77h-17z M885 381v138q3 17 17 17h78l18 -8q-51 -165 -70 -165h-26q-17 0 -17 18zM885 588v147q3 18 17 18h130q15 0 26 -44q-41 -135 -60 -138h-96q-17 0 -17 17zM885 943v104q3 17 17 17h130q17 -3 17 -17v-104h18v121l-9 61h-104q21 121 44 121h51q18 -3 18 -18v-69l8 -60h87 q17 -3 17 -18q-97 -320 -121 -320h-104q-17 0 -17 18v138q-39 26 -52 26zM920 1099l17 8h95q17 -3 17 -17l-17 -9h-95q-17 0 -17 18zM1093 1168v104h17v-104h-17zM1136 1176v122q3 17 17 17h69q13 0 26 -26q-40 -130 -60 -130h-35q-17 0 -17 17z" />
<glyph unicode="W" horiz-adv-x="1810" d="M62 1298l26 17h95q17 -3 17 -17v-122q0 -17 -17 -17h-78q-23 0 -43 139zM166 1125l17 8h26q61 -17 69 -17h121q18 -3 18 -17v-130q0 -17 -18 -17h-129q-78 0 -78 86q-11 0 -26 87zM200 908l18 9l26 -17h147q17 -3 17 -18v-121q0 -17 -17 -17h-147q-11 0 -44 164zM252 597 v52q3 17 18 17h147v26l-9 17l17 9h87q20 0 43 -164h-138v-173q0 -18 -18 -18h-52q-15 0 -77 191q-16 0 -18 43zM252 1185v130q3 17 18 17h103q24 0 44 -156l-18 -8h-129q-18 0 -18 17zM322 329l17 8h52q17 -2 17 -17v-138q0 -18 -17 -18h-9q-24 0 -60 165zM365 156h17 q17 -3 17 -18v-95h-17zM417 17v35q2 17 17 17h147q17 -3 17 -17v-35q0 -17 -17 -17h-147q-17 0 -17 17zM486 173v130q3 17 17 17h113q17 -3 17 -17v-130q0 -17 -17 -17h-113q-17 0 -17 17zM486 363v121q3 18 17 18h113q17 -3 17 -18v-121q0 -17 -17 -17h-113q-17 0 -17 17z M486 770v78h17q0 -47 17 -87l-17 -8q-17 0 -17 17zM581 554v43h17v-26q0 -17 -17 -17zM642 173v147h17v-147h-17zM659 372v138h17v-138h-17zM668 17v104q2 17 17 17h52l17 -8q-26 -130 -43 -130h-26q-17 0 -17 17zM668 182v138q2 17 17 17h112v-8q-22 -165 -52 -165h-60 q-17 0 -17 18zM676 787q35 165 52 165h78q17 -3 17 -18v-147q0 -17 -17 -17h-113q-17 0 -17 17zM685 580v69q3 17 17 17h113q17 -3 17 -17v-95h9v129h17v-95q-33 -225 -61 -225h-78q-17 0 -17 18v103q0 10 -17 96zM693 969q61 277 87 277q17 -3 17 -18q9 -145 9 -225v-26 q0 -17 -17 -17h-78zM866 640v52q0 8 18 69v104q2 17 17 17h113q17 -2 17 -17v-104l-9 -43l17 -9l-8 -17v-9h156q17 -2 17 -17q-9 -220 -9 -294l-17 -9h-147q-17 0 -17 18v112l-9 43h17v18q-24 0 -52 164l-17 -9h-9v26l-17 -8q-9 14 -9 43h-8l-26 -130h-18zM866 943v104 q3 17 18 17h130v52q0 21 34 26v104q3 17 17 17h9q23 0 78 -303h-130q0 -34 -17 -34h-121q-18 0 -18 17zM866 1176v122q3 17 18 17h121q17 -3 17 -17v-122q0 -17 -17 -17h-121q-18 0 -18 17zM875 908l17 9h122q17 -3 17 -17l-17 -9h-122q-17 0 -17 17zM1039 285h148 q17 -2 17 -17v-121l17 -26v-104q0 -17 -17 -17h-43q-18 6 -52 121q-70 34 -70 164zM1039 753v129h18v-129h-18zM1065 761v121q3 18 18 18h78q22 0 51 -147l-17 -9h-112q-18 0 -18 17zM1247 147v104q3 17 17 17h130q17 -3 17 -17v-121q26 0 26 -18v-43q0 -64 -26 -69h-95 q-17 0 -17 17v87q-21 0 -52 43zM1264 372v121q0 24 18 52q34 -4 34 -26h18q40 151 60 164h17q18 -2 18 -17v-112h121l17 -9q-38 -173 -60 -173h-78l-26 -17h-121q-18 0 -18 17zM1360 761q22 139 43 139l8 -18v-121q0 -17 -17 -17h-17q-17 0 -17 17zM1368 943q9 13 9 52h17 v-43q0 -18 -17 -18q0 9 -9 9zM1385 908v18h18v-18h-18zM1437 1150q13 113 35 113h112q18 -3 18 -17v-104q26 0 26 -17v-148q0 -17 -18 -17h-112q-17 0 -17 17v148q-25 0 -44 25zM1446 571v130h17v-130h-17zM1481 580v138q2 17 17 17h104l17 -8q-42 -165 -61 -165h-60 q-17 0 -17 18zM1498 329v17h17v-17h-17zM1498 787v147q3 18 17 18h104q20 0 26 -113q-17 -64 -17 -86h-18v17h-95q-17 0 -17 17zM1636 969v147q3 17 18 17l-9 17v96q3 17 17 17h78l17 -9l-77 -285h-18v156h-8v-156h-18z" />
<glyph unicode="X" horiz-adv-x="1315" d="M66 17l69 87h147q18 -3 18 -17v-70q0 -17 -18 -17h-199q-17 0 -17 17zM75 1263q5 52 26 52l8 -17v-70h-17q0 14 -17 35zM127 1150v78q2 18 17 18h138q18 -3 18 -18v-52q0 -86 26 -86q14 -9 43 -9h104q17 -2 17 -17q9 -197 9 -294l-18 -9h-78q-25 0 -86 130q9 15 9 35 q-96 172 -199 224zM153 112v18h138v-18h-138zM170 156q94 129 104 129h26q17 -2 17 -17v-112q0 -18 -17 -18h-113q-17 0 -17 18zM265 346v9q13 34 26 34h9v-26q0 -17 -18 -17h-17zM343 9v112q3 17 17 17h61q17 -2 17 -17q-77 -111 -87 -112h-8zM377 173v130q3 17 18 17h112 q17 -3 17 -17v-18q0 -46 -77 -129h-52q-18 0 -18 17zM386 571q15 1 61 86q-18 35 -18 61h52q18 -3 18 -17v-147q34 0 34 -18v-147q0 -17 -17 -17h-104q-17 0 -17 17v113l34 52q-43 0 -43 17zM395 1159v104q2 17 17 17h9q24 -12 86 -130l-17 -8h-78q-17 0 -17 17zM507 943 v104h9q9 0 69 -104v-17h-61q-17 0 -17 17zM542 554v112q2 17 17 17h130q17 -2 17 -17v-112q0 -18 -17 -18h-130q-17 0 -17 18zM550 346v147q3 17 18 17h155v-17h-147v-147q0 -17 -17 -17zM550 900l18 8h69q17 -2 17 -17v-9h-86q-18 0 -18 18zM568 709l17 9h104q17 -3 17 -17 l-17 -9h-104q-17 0 -17 17zM594 389v61q2 17 17 17h104q17 -3 17 -17v-87l9 -43h138q17 -3 17 -17v-147q26 0 26 -18v-77h-17q-31 95 -95 95q-59 0 -95 147h8q0 16 -51 43q-44 50 -44 69q-17 0 -17 -26h-17zM594 744v104q2 17 17 17h104v17h-18v18h9l17 -9q0 26 18 26h138 q17 -3 17 -17v-96q-30 -51 -43 -51h-121q0 -26 -17 -26h-104q-17 0 -17 17zM741 363v104q2 17 17 17l9 -17v-104q0 -17 -18 -17zM749 718l18 9l8 -18l-17 -8zM775 363v121q3 18 18 18h103q105 -170 191 -208q0 -21 60 -112v-18l-104 -8h-86q-17 0 -17 17v138q-14 35 -61 35 h-86q-18 0 -18 17zM793 562v121q2 18 17 18h9q0 -14 86 -147l-17 -9h-78q-17 0 -17 17zM793 969v43q52 114 52 121q69 130 69 165h155q18 -3 18 -18v-112q0 -18 -18 -18h-164v-8q0 -13 26 -26h147q17 -3 17 -17q-103 -147 -112 -147h-173q-17 0 -17 17zM931 9v129h17v-129 h-17zM957 17v104q3 17 17 17h130l9 -34h52q21 -8 69 -87q0 -17 -18 -17h-242q-17 0 -17 17z" />
<glyph unicode="Y" horiz-adv-x="1266" d="M68 1176v52q3 18 17 18h121q18 -3 18 -18q-9 -174 -9 -242h-17q-45 109 -130 190zM267 908l17 9h121q18 -3 18 -17v-130q0 -17 -18 -17h-43q-30 0 -95 155zM267 969v130q3 17 17 17h121q18 -3 18 -17v-130q0 -17 -18 -17h-121q-17 0 -17 17zM267 1168v112q3 18 17 18h78 q61 -58 61 -104v-26q0 -18 -18 -18h-121q-17 0 -17 18zM379 718h26q26 0 26 -35h156q17 -2 17 -17v-130q35 0 35 -34h9l26 17h103q18 -3 18 -17l-18 -9h-112v-9h121l9 -17v-294q0 -17 -18 -17h-78q-17 0 -17 17v121q0 69 -130 69v104q-16 55 -112 78q0 18 -61 173zM449 787 v147q2 18 17 18h95q52 -36 52 -87v-78q0 -17 -17 -17h-130q-17 0 -17 17zM449 977v139q2 17 17 17l95 -156v-17h-95q-17 0 -17 17zM466 26v95q5 26 69 26v121q3 17 17 17h61q17 -2 17 -17v-121l44 -9h103q18 -2 18 -17v-86q0 -14 -35 -35h-95q-17 0 -17 17v113l-44 8h-8 v-121q0 -17 -18 -17h-86q-13 0 -26 26zM648 164v130h17v-130h-17zM648 545v104q2 17 17 17h130q17 -3 17 -17v-104q0 -17 -17 -17h-130q-17 0 -17 17zM665 701l17 8h113q17 -2 17 -17l-17 -9h-113q-17 0 -17 18zM682 744v35q35 0 69 77l18 9h43q17 -3 17 -17v-104 q0 -17 -17 -17h-113q-17 0 -17 17zM777 891v17h44v-17h-44zM795 934v18q17 21 17 34h17v-34q0 -18 -17 -18h-17zM838 761v113h17v-130q-17 0 -17 17zM855 727l9 43v112q3 18 17 18h121l18 -9q-104 -179 -104 -190h-18q0 43 -26 43v-17h-17zM855 960v104h17v-104h-17z M890 1168v17q79 144 95 147h9l26 -17h155q18 -3 18 -17v-122q0 -17 -26 -17q-73 0 -277 9zM898 969v130q3 17 18 17h104q17 -3 17 -17v-130q0 -17 -17 -17h-104q-18 0 -18 17zM1045 986v130q3 17 18 17l8 -17v-130q0 -17 -17 -17zM1080 1012v121q3 17 17 17h70 q0 -39 -78 -138h-9z" />
<glyph unicode="Z" horiz-adv-x="1266" d="M72 26v61q3 17 17 17l9 -17v-78h-9q-17 0 -17 17zM124 147l17 9h147q18 -3 18 -18v-121q0 -17 -18 -17h-138q-17 0 -17 17v87zM124 182l9 103v26q0 12 43 44h95q9 0 61 60h8v-52q0 -17 -34 -17v-156q0 -17 -18 -17h-147zM193 1055v44q3 17 17 17h104q18 -3 18 -17v-44 q0 -17 -18 -17h-104q-17 0 -17 17zM210 1176v122q3 17 18 17h95q17 -3 17 -17v-122q0 -17 -17 -17h-95q-18 0 -18 17zM314 147v104q3 17 18 17h147q17 -3 17 -17v-113q43 0 43 -17v-26q17 0 17 -26h139q17 -3 17 -17v-35q0 -17 -17 -17h-277q-17 0 -17 17v95q-51 0 -87 35z M340 1047v60h17v-60h-17zM349 363v87q3 17 17 17h9v-104q0 -17 -18 -17zM349 1159v121q3 18 17 18l9 -18v-121q0 -17 -18 -17zM366 1055v44q3 17 17 17h139l8 -35h156q17 -2 17 -17v-9q0 -17 -17 -17h-303q-17 0 -17 17zM383 363v139q139 172 139 199h156q17 -3 17 -18v-138 q34 0 34 -17q-77 -69 -129 -156h-18v164q-7 0 -69 9v-9l17 -26v-147q0 -17 -17 -17h-112q-18 0 -18 17zM383 1159v104q3 17 18 17h112q17 -3 17 -17v-104q0 -17 -17 -17h-112q-18 0 -18 17zM513 173v130q3 17 17 17h9v-9q0 -8 -9 -8q9 -15 9 -43h139q17 -3 17 -18v-69 q0 -17 -17 -17h-148q-17 0 -17 17zM522 753v17q128 164 164 164l9 -17v-147q0 -17 -17 -17h-156zM539 1142v121h17v-121h-17zM548 372v138h17v-138h-17zM556 1099v17h139v-17h-139zM565 1150v96q3 17 17 17h130l26 -17h147q17 -3 17 -18v-251q0 -17 -17 -17h-138 q-18 0 -18 17v139q0 17 -17 17h-130q-17 0 -17 17zM729 173v69q3 18 18 18h138q17 -3 17 -18v-69q0 -17 -17 -17h-138q-18 0 -18 17zM781 17v35q3 17 18 17h112q0 69 69 69v52q3 18 18 18h112q17 -3 17 -18v-43q0 -17 -34 -17v-113q0 -17 -18 -17h-276q-18 0 -18 17z M781 770v130q3 17 18 17h112q17 -3 17 -17v-121q0 -13 -26 -26h-103q-18 0 -18 17zM799 640v78q2 17 17 17h69v-8q-64 -87 -78 -87h-8zM911 960v121q41 44 69 44v103q3 18 18 18h112q0 52 17 52h18q12 0 26 -26v-104q0 -18 -44 -18v-17q44 0 44 -17v-43q-45 -61 -52 -61h-9 v113h-17v-148q-78 -89 -78 -103h-17v60q-87 0 -87 26zM954 822v95h18v-95h-18zM1136 138v9h17v-9h-17zM1136 182v60h17v-60h-17zM1162 9v129q3 18 17 18l9 -18v-112q0 -17 -17 -17h-9zM1162 190v87h9q17 -3 17 -17v-70q0 -17 -17 -17z" />
<glyph unicode="[" horiz-adv-x="481" d="M40 504v129q3 18 17 18l9 -18v-129q0 -18 -17 -18zM40 858v268q3 18 17 18l9 -18v-268q0 -17 -17 -17zM57 677v147h18v-147h-18zM57 1204v130h18v-130h-18zM83 1040v121q3 17 18 17h95q17 -2 17 -17v-121q0 -17 -17 -17h-95q-18 0 -18 17zM83 1222v121q3 17 18 17h129 q18 -3 18 -17v-44q0 -17 -35 -17v-60q0 -18 -17 -18h-95q-18 0 -18 18zM92 253h104q17 -3 17 -18v-121l43 -34v-113q0 -17 -17 -17h-121q-17 0 -17 17q-9 236 -9 286zM101 305v112q2 17 17 17h78q17 -2 17 -17v-112q0 -18 -17 -18h-78q-17 0 -17 18zM101 478v103q2 18 17 18 h78q17 -3 17 -18v-103q0 -18 -17 -18h-78q-17 0 -17 18zM118 1395l17 8h113q17 -3 17 -17l-17 -9h-113q-17 0 -17 18zM135 677v121q3 17 17 17h44q17 -3 17 -17v-121q0 -18 -17 -18h-44q-17 0 -17 18zM135 850v112q3 17 17 17h44q17 -2 17 -17v-112q0 -18 -17 -18h-44 q-17 0 -17 18zM300 -33v70q2 17 17 17h86q18 -3 18 -17v-61q0 -12 -26 -26h-78q-17 0 -17 17zM317 1299v9q3 17 17 17h69q18 -2 18 -17l-35 -26h-52q-17 0 -17 17zM325 1369v17h87v-17h-87z" />
<glyph unicode="\" horiz-adv-x="771" d="M55 1263v9q3 17 17 17h52q18 -3 18 -17l-18 -9h-69zM72 1220l18 8h43q17 -2 17 -17v-130h-17q-20 0 -61 139zM185 917v112q2 18 17 18h78q32 0 52 -121v-9q0 -17 -17 -17h-113q-17 0 -17 17zM185 1099v112q2 17 17 17h17q14 0 61 -138l-17 -9h-61q-17 0 -17 18zM193 865 h113q17 -3 17 -17v-113q0 -17 -17 -17h-52q-29 0 -61 147zM193 1254v18h18v-18h-18zM289 675l17 8h17q17 -2 17 -17v-86h-17q-15 62 -34 95zM366 467v35q3 17 18 17h95q34 -12 34 -78v-60q0 -18 -17 -18h-86q-44 36 -44 104zM366 562v121q3 18 18 18h26q25 0 69 -147l-17 -9 h-78q-18 0 -18 17zM384 744v35h17q9 -46 9 -52h-9q-17 0 -17 17zM401 294v9h78q17 -3 17 -18v-103q0 -18 -17 -18h-17q-29 0 -61 130zM496 112q17 0 17 18l-8 17l17 9h95q18 0 61 -147l-17 -9h-130q-13 0 -35 112zM531 363v26h17l9 -43h-9q-17 0 -17 17zM565 199v95h18 q0 -19 34 -104l-17 -8h-17q-18 0 -18 17z" />
<glyph unicode="]" horiz-adv-x="481" d="M37 -24v95q0 13 26 26h35q17 0 17 -26h147q17 -3 17 -17v-87q0 -17 -17 -17h-199q-12 0 -26 26zM37 1299v9q3 17 17 17h44q17 -2 17 -17v-9q0 -17 -17 -17h-44q-17 0 -17 17zM72 1369v17h43v-17h-43zM167 1299v70q2 17 17 17h190v-17h-69q9 -17 9 -26h52q17 -3 17 -18 v-112q0 -17 -17 -17h-9q-95 0 -95 26v43q-95 15 -95 34zM210 140v130q0 17 52 17v113q3 17 17 17h9q17 -3 17 -17v-104q0 -17 -26 -17v-139q0 -17 -17 -17h-35q-17 0 -17 17zM210 677v121q3 17 17 17h35q17 -3 17 -17v-121q0 -18 -17 -18h-35q-17 0 -17 18zM210 867v130 q0 17 35 17v112q2 18 17 18h17q18 -3 18 -18v-103l-18 -26v-130q0 -17 -17 -17h-35q-17 0 -17 17zM262 495v121q3 17 17 17h9q19 -15 95 -26v-121q0 -17 -17 -17h-35q-64 0 -69 26zM314 668v112q3 18 17 18h35q17 -3 17 -18v-112q0 -17 -17 -17h-35q-17 0 -17 17zM314 1040 v121q3 17 17 17h35q17 -2 17 -17v-121q0 -17 -17 -17h-35q-17 0 -17 17zM331 114v104q3 17 17 17h18q17 -2 17 -17v-104q0 -17 -17 -17h-18q-17 0 -17 17zM331 305v112q3 17 17 17h18q17 -2 17 -17v-112q0 -18 -17 -18h-18q-17 0 -17 18zM331 858v121q3 18 17 18h18 q17 -3 17 -18v-121q0 -17 -17 -17h-18q-17 0 -17 17zM348 -33v87q3 17 18 17q17 -3 17 -17v-78q0 -12 -26 -26z" />
<glyph unicode="^" />
<glyph unicode="_" horiz-adv-x="1024" d="M0 -100h1024v-60h-1024v60z" />
<glyph unicode="`" horiz-adv-x="1024" d="M212 1363q0 31 20.5 51t53.5 20q20 0 40.5 -12t55.5 -47l291 -296h-69l-330 202q-31 20 -46.5 40t-15.5 42z" />
<glyph unicode="a" horiz-adv-x="1025" d="M33 285v44q0 104 35 104h77q18 -3 18 -18v-130q0 -17 -18 -17h-95q-17 0 -17 17zM59 701q0 95 61 95q69 37 69 112q46 35 78 35h60q17 -3 17 -17v-113q0 -17 -17 -17h-121l-43 -9v-104q0 -17 -18 -17h-60q-22 0 -26 35zM68 208l17 8h86l26 18h130q17 -3 17 -18v-121 q0 -17 -17 -17h-86l-104 -9q-69 82 -69 139zM68 467q62 71 86 78l9 -17v-61q0 -17 -18 -17h-60q-17 0 -17 17zM180 268v113q3 17 17 17h130l17 -9l-8 -104v-34h-139q-17 0 -17 17zM197 52q3 17 18 17h121q17 -3 17 -17v-35q0 -17 -26 -17q-130 26 -130 52zM197 458v78 q0 29 147 52l9 -17v-113q0 -17 -17 -17h-121q-18 0 -18 17zM197 683v78q3 18 18 18h121q17 -3 17 -18v-78q0 -17 -17 -17h-121q-18 0 -18 17zM362 69v121q56 -17 78 -17h86v-112q9 0 26 -9q-6 -52 -130 -52q0 54 -60 69zM379 450v112q3 18 17 18h121q18 -3 18 -18v-112 q0 -17 -18 -17h-121q-17 0 -17 17zM396 770v138q3 18 18 18h112q17 -3 17 -18v-86q0 -9 -129 -43q0 -9 -18 -9zM491 977v18h35v-18h-35zM561 104v121q0 12 26 26h112q17 -3 17 -17v-130q0 -17 -17 -17h-121q-17 0 -17 17zM578 458v122q3 17 17 17h113l26 -17h138 q17 -3 17 -18v-112q0 -17 -17 -17h-17q-143 0 -242 17q-17 -9 -26 -9zM578 631v18q61 0 61 60q-10 70 -44 70v17h95q18 -3 18 -17v-130q0 -18 -18 -18h-112zM578 1003h112v-17h-95q-17 0 -17 17zM595 830v130q3 17 18 17h181q61 -29 104 -86v-61q0 -17 -17 -17h-268 q-18 0 -18 17zM639 268v9q22 48 43 156h43v-18h147q17 -3 17 -17v-121q0 -17 -17 -17h-17q-73 0 -216 8zM742 78v104q3 17 18 17h121q17 -3 17 -17v-104q0 -17 -17 -17h-121q-18 0 -18 17zM742 623v104q3 17 18 17h121q17 -3 17 -17v-104q0 -17 -17 -17h-121q-18 0 -18 17z M907 277v121q2 17 17 17q17 -3 17 -17v-121q0 -17 -17 -17t-17 17zM907 467v130q2 17 17 17q17 -3 17 -17v-130q0 -17 -17 -17t-17 17zM941 78v34h18l8 -43l-17 -8z" />
<glyph unicode="b" horiz-adv-x="1068" d="M41 268v113q3 17 17 17h121q18 -3 18 -17v-113q0 -17 -18 -17h-121q-17 0 -17 17zM41 1185v121q3 17 17 17h121q18 -2 18 -17v-121q0 -17 -18 -17h-121q-17 0 -17 17zM58 467v277q3 17 18 17h112q17 -3 17 -17v-277q0 -17 -17 -17h-112q-18 0 -18 17zM58 986v104 q3 17 18 17h112q17 -3 17 -17v-113q26 -33 26 -51h104q26 0 26 -44l17 9h9v-87q0 -17 -17 -17h-130l-26 17h-104q-17 0 -17 18v138q-35 0 -35 26zM93 43l17 9h95q18 -3 18 -17l-18 -9h-95q-17 0 -17 17zM93 95v121q3 18 17 18h95q22 17 44 17v130q2 17 17 17h69 q61 -75 61 -113v-17l-18 -26v-138q0 -17 -26 -17q-222 -9 -250 -9zM249 43v9q2 17 17 17h52q17 -3 17 -17v-9q0 -17 -17 -17h-52q-17 0 -17 17zM249 467v130l17 26v121q3 17 17 17h104q17 0 17 -26q-65 -82 -78 -225v-8q9 -15 9 -44l-17 -8h-52q-17 0 -17 17zM266 1003v122 q3 17 17 17h43q18 -3 18 -17v-122q0 -17 -18 -17h-43q-17 0 -17 17zM266 1194v129q3 18 17 18h43q18 -3 18 -18v-129q0 -18 -18 -18h-43q-17 0 -17 18zM396 95v121q2 18 17 18h130q17 -3 17 -18v-121q0 -17 -17 -17h-130q-17 0 -17 17zM396 830v130q2 17 17 17h86l61 9v-156 q0 -17 -17 -17h-130q-17 0 -17 17zM543 0v17h17v-17h-17zM586 0v17h78v-17h-78zM595 78v104q2 17 17 17h121q17 -3 17 -17v-104q0 -17 -17 -17h-121q-17 0 -17 17zM595 804v104q2 18 17 18h121q17 -3 17 -18v-104q0 -17 -17 -17h-121q-17 0 -17 17zM629 753l18 8h121 q0 15 26 43v122q2 17 17 17q53 0 130 -113l-9 -86v-95q0 -18 -17 -18h-139l-26 -17q-47 75 -121 139zM629 1003l18 9l103 -9v-17h-103q-18 0 -18 17zM681 260q17 0 61 121h8l9 -18v-103q0 -18 -17 -18h-44q-17 0 -17 18zM733 554l17 8l9 -17v-112h-17v34zM794 467v130 q2 17 17 17h130v-147q0 -17 -18 -17h-112q-17 0 -17 17zM811 69v113q3 17 17 17h104v-9q0 -48 -121 -121zM811 268v113q3 17 17 17h104l26 17h35q17 -3 17 -17q-17 -147 -78 -147h-104q-17 0 -17 17zM941 614v130q2 17 17 17q26 -46 52 -138l-17 -9h-52zM993 450v112 q2 18 17 18l8 -18v-112q0 -17 -17 -17z" />
<glyph unicode="c" horiz-adv-x="1032" d="M29 372l17 9h61q17 -3 17 -18v-103q0 -18 -17 -18h-17q-26 0 -61 130zM29 458q6 139 26 139h61q17 -3 17 -17v-122q0 -17 -17 -17h-70q-17 0 -17 17zM64 640q40 156 69 156l8 -17v-130q0 -18 -17 -18h-43zM98 208l18 8l8 -17v-9h-8q-18 0 -18 18zM176 433v112q3 17 17 17 h113l17 -8l-9 -44q0 -164 70 -259v-9h-52q8 -17 8 -26h139q17 -2 17 -17v-130h164q18 -3 18 -17v-17q0 -26 -147 -35h-9q-156 0 -156 69q-155 27 -155 69q-18 0 -18 18v78q3 17 18 17h112v9h-121l-9 17v130zM176 830v35q65 79 138 112l9 -17v-130q0 -17 -17 -17h-113 q-17 0 -17 17zM193 640v121q3 18 18 18h233v-18q-41 0 -121 -138h-112q-18 0 -18 17zM358 830v130q2 17 17 17h112q18 -2 18 -17v-130q0 -17 -18 -17h-112q-17 0 -17 17zM522 95v113q0 12 26 26h26l104 8v-147q0 -17 -18 -17h-121q-17 0 -17 17zM522 822v121q3 17 17 17h121 q18 -3 18 -17v-121q0 -18 -18 -18h-121q-17 0 -17 18zM557 1003q8 0 8 9l87 -9h26v-17h-104q-17 0 -17 17zM617 753v8h35q17 -3 17 -17v-52h-17q0 26 -35 61zM704 640v121q2 18 17 18h121q17 -3 17 -18v-121q0 -17 -17 -17h-121q-17 0 -17 17zM704 830v130q2 17 17 17h9 q52 0 129 -86v-61q0 -17 -17 -17h-121q-17 0 -17 17zM738 104v277q3 17 18 17h103q18 -3 18 -17v-147q29 0 43 -9q-16 -48 -121 -138h-43q-18 0 -18 17zM885 640v104q3 17 18 17h26q34 0 34 -104v-8q0 -13 -26 -26h-34q-18 0 -18 17zM885 830v18h9q17 -3 17 -18v-17h-8 q-18 0 -18 17zM920 260v121q3 17 17 17h18q17 -3 17 -17q-23 -121 -43 -121h-9z" />
<glyph unicode="d" horiz-adv-x="1082" d="M56 450v112q3 18 17 18h61q17 -3 17 -18v-129h9v138l17 9h130q17 -3 17 -18v-121l17 -26v-130q0 -17 -17 -17h-112q-18 0 -18 17v148l-17 -9q0 9 -9 9v-148q0 -17 -17 -17q-52 57 -52 165q-43 0 -43 17zM73 614v9q0 65 52 138h9q17 -3 17 -17v-113q0 -17 -17 -17h-61z M134 190l17 9l9 -17v-9h-9q-17 0 -17 17zM168 830q0 98 139 147h9q17 -2 17 -17v-130q0 -17 -17 -17h-130q-18 0 -18 17zM177 147v87q3 17 17 17h122q17 -3 17 -17v-130q0 -17 -17 -17h-52q-49 0 -87 60zM177 640v121q3 18 17 18h122q17 -3 17 -18v-121q0 -17 -17 -17h-122 q-17 0 -17 17zM359 804v104q2 18 17 18h121q17 -3 17 -18v-104q0 -17 -17 -17h-121q-17 0 -17 17zM376 285v52h17q0 -15 44 -60v-9h-44q-17 0 -17 17zM376 692v52q3 17 17 17h44v-8q-44 -45 -44 -61h-17zM393 26l18 9h103q18 -3 18 -18q0 -17 -18 -17h-51q-64 0 -70 26z M393 104v130q3 17 18 17h103q18 -3 18 -17v-130q0 -17 -18 -17h-103q-18 0 -18 17zM428 986v17h17q36 0 69 9q34 -9 70 -9v-17h-156zM558 87v112q2 17 17 17h112q18 -2 18 -17v-112q0 -18 -18 -18h-112q-17 0 -17 18zM558 830v130q2 17 17 17h87q10 0 60 -51q0 34 17 34h113 q17 -3 17 -17v-121q0 -18 -26 -18q-44 0 -277 9zM644 744v17h26q17 -3 17 -17v-26h-17q0 26 -26 26zM696 268v9q28 20 43 104h121q18 -3 18 -18v-103q0 -18 -18 -18h-129q-22 26 -35 26zM722 433q6 129 26 129h104q17 -2 17 -17v-104q0 -17 -17 -17h-113zM757 121v78 q2 17 17 17h104q17 -2 17 -17v-69l-9 -104h-103q-26 0 -26 95zM757 657v122q2 17 17 17h104q17 -3 17 -17v-130q0 -18 -17 -18h-95q-13 0 -26 26zM757 1194v129q2 18 17 18h95q17 -3 17 -18v-129q0 -18 -17 -18h-95q-17 0 -17 18zM774 1003v122q3 17 17 17h87q17 -3 17 -17 v-122q0 -17 -17 -17h-87q-17 0 -17 17zM886 450v112q3 18 18 18h104q17 -3 17 -18v-277q0 -17 -17 -17h-87q-17 0 -17 17v139zM904 830v130q2 17 17 17h87q17 -2 17 -17v-130q0 -17 -17 -17h-87q-17 0 -17 17zM921 1003v130l17 26v113q3 17 18 17h52q17 -3 17 -17v-269 q0 -17 -17 -17h-70q-17 0 -17 17zM938 78v104q3 17 18 17h52q17 -3 17 -17v-104q0 -17 -17 -17h-52q-18 0 -18 17zM938 649v130q3 17 18 17h52q17 -3 17 -17v-130q0 -18 -17 -18h-52q-18 0 -18 18z" />
<glyph unicode="e" horiz-adv-x="1082" d="M54 631q43 130 69 130q18 -3 18 -17v-113q0 -17 -18 -17h-52q-17 0 -17 17zM63 407v8h69q17 -3 17 -17v-121q0 -17 -17 -17h-26q-32 13 -43 147zM71 458v113q0 12 26 26h44q17 -3 17 -17v-122q0 -17 -17 -17h-52q-18 0 -18 17zM132 190l17 9l9 -17v-9h-9q-17 0 -17 17z M158 260v103q3 18 17 18h130q17 -3 17 -18v-103q0 -18 -17 -18h-130q-17 0 -17 18zM192 813v9q131 139 199 147h96q17 -3 17 -17v-130q0 -18 -17 -18h-148l9 -17v-138q0 -18 -17 -18h-104q-17 0 -17 18v138zM210 112v70q2 17 17 17h112v17h148q17 -2 17 -17v-112 q0 -18 -17 -18h-26q-69 0 -182 -8q-64 32 -69 51zM210 450v112q2 18 17 18h104q17 -3 17 -18v-112q0 -17 -17 -17h-104q-17 0 -17 17zM374 285v18h9q12 0 26 -26v-9h-18q-17 0 -17 17zM374 441v104q3 17 17 17h113q17 -2 17 -17v-121h-130q-17 0 -17 17zM391 744q3 17 18 17 v-17h-18zM469 0v17h52q0 52 35 52v113q2 17 17 17h112q18 -3 18 -17v-104q-16 -78 -130 -78h-104zM556 424v138q2 18 17 18h112q18 -3 18 -18v-112q0 -13 -26 -26h-121zM573 804v104q3 18 17 18h104q17 -3 17 -18v-104q0 -17 -17 -17h-104q-17 0 -17 17zM573 1012q17 9 26 9 l61 -9v-17h-70q-17 0 -17 17zM651 744h17q17 -3 17 -17v-35h-17zM660 268v9q2 17 17 17h8v-9q0 -17 -17 -17h-8zM703 260q5 51 26 51h121q26 0 26 -138v-35q-31 -51 -78 -51h-61q-17 0 -17 17v130zM703 631v113q2 17 17 17h130q17 -3 17 -17v-113q0 -17 -17 -17h-130 q-17 0 -17 17zM720 441v104q3 17 17 17h121q18 -2 18 -17v-104q0 -17 -18 -17h-121q-17 0 -17 17zM755 830v130q71 0 138 -121v-9q0 -17 -17 -17h-104q-17 0 -17 17zM884 164v35q3 17 18 17h8l18 -8q-17 -40 -35 -44h-9zM884 277v52q3 17 18 17h52q26 0 26 -35 q-21 -51 -35 -51h-43q-18 0 -18 17zM902 458v122q0 21 34 26v121q3 17 18 17q52 -119 52 -260q-12 -43 -26 -43h-61q-17 0 -17 17z" />
<glyph unicode="f" horiz-adv-x="714" d="M48 796v121q3 17 17 17h9q17 -3 17 -17v-121q0 -17 -17 -17h-9q-17 0 -17 17zM83 753v17h8v-17h-8zM135 796v121q2 17 17 17h112q18 -3 18 -17v-121q0 -17 -18 -17h-112q-17 0 -17 17zM178 26q0 17 52 17v130q2 17 17 17h26l26 -17h130q17 -3 17 -17v-139q0 -17 -17 -17 h-130q-17 0 -17 43h-18q0 -43 -17 -43h-43q-13 0 -26 26zM186 709l18 9h52q17 -3 17 -17v-113l17 -26h-8q8 -17 8 -26h139q17 -2 17 -17v-259q0 -18 -17 -18h-130q-17 0 -17 18v155q-52 0 -52 18v138q-35 0 -35 26v95zM195 234v103q3 18 17 18h44q17 -3 17 -18v-103 q0 -18 -17 -18h-44q-17 0 -17 18zM195 969v17q0 113 26 113h35q17 -3 17 -18v-112q0 -17 -17 -17h-44q-17 0 -17 17zM212 1150q18 78 44 78h8v-60q0 -18 -17 -18h-35zM316 779v103q3 18 17 18h113q17 -3 17 -18v-103q0 -18 -17 -18h-113q-17 0 -17 18zM316 977v122 q3 17 17 17h113q17 -3 17 -17v-122q0 -17 -17 -17h-113q-17 0 -17 17zM316 1159v78q54 61 130 61q17 -3 17 -18v-121q0 -17 -17 -17h-113q-17 0 -17 17zM333 597v104q3 17 18 17h112v9l-8 17l17 9q17 -3 17 -18v-121l-17 -26q17 -3 17 -17v-130q0 -17 -17 -17l-9 17v139 h-112q-18 0 -18 17zM481 787v113q2 17 17 17h121q17 -3 17 -17v-113q0 -17 -17 -17h-121q-17 0 -17 17zM498 1064v52q3 17 17 17h113q17 -3 17 -17v-17q0 -18 -17 -18h-52q-22 0 -78 -17zM515 1168v130q3 17 17 17h104q18 -3 18 -17v-130q0 -18 -18 -18h-104q-17 0 -17 18z " />
<glyph unicode="g" horiz-adv-x="1054" d="M38 342l17 8h61q17 -2 17 -17v-121q0 -17 -17 -17h-17q-30 0 -61 147zM38 437q5 78 26 78h61q17 -3 17 -18v-112q0 -17 -17 -17h-61q-26 5 -26 69zM64 -100l17 9h35q17 -3 17 -17v-130h-17q-52 93 -52 138zM90 558q0 110 52 156l26 -18h130q17 -2 17 -17v-112 q0 -18 -17 -18h-61q-45 0 -147 9zM116 748q9 17 9 26h17v-17q0 -17 -17 -17q0 8 -9 8zM125 125v26q17 -2 17 -17v-9h-17zM150 -74q3 18 18 18h130q17 -3 17 -18v-77q0 -18 -17 -18h-130q-18 0 -18 18v77zM150 108v43q3 18 18 18h130q17 -3 17 -18v-121q0 -17 -17 -17 q-65 0 -148 95zM168 221v129q0 18 34 18v129q3 18 18 18h95q17 -3 17 -18v-60l9 -61q-18 -3 -18 -17v-138q0 -18 -17 -18h-121q-17 0 -17 18zM202 -229q3 17 18 17h103q18 -3 18 -17v-130h-18q-78 0 -121 61v69zM202 748v52q30 54 147 95h130q17 -3 17 -17v-121 q0 -17 -25 -17q-221 -9 -260 -9zM332 212v130h9q80 -130 155 -130v-9l-17 -8h-130q-17 0 -17 17zM341 -359q17 0 17 9l17 -9h9v112q3 18 17 18h113q0 43 112 43q18 0 52 35h9l-9 -87v-95q0 -17 -17 -17h-139v-26l-17 8l-26 -17h-26q-112 0 -112 26zM367 30v121q2 18 17 18 h277q17 -3 17 -18v-78q0 -31 -104 -60h-190q-17 0 -17 17zM367 -108h8q45 -43 78 -43v-18h-69q-17 0 -17 18v43zM367 653v61q2 17 17 17h121v-17q-75 0 -130 -61h-8zM419 913v17h60v-17h-60zM531 947h43v-17h-26q-17 0 -17 17zM540 195v8l95 52q0 12 43 43h9v-86 q0 -17 -18 -17h-129zM566 748v113q2 17 17 17h95l17 -9q0 26 18 26h129q18 -3 18 -17v-121q0 -17 -26 -17q-221 -9 -260 -9zM626 670v9h61q17 -3 17 -17v-61h-9q-11 0 -69 69zM695 394v8q0 31 9 78q-9 14 -9 43q21 18 35 18v121q3 17 17 17h113q17 -3 17 -17v-104l-17 -26 v-138q0 -18 -18 -18h-129q-18 0 -18 18zM713 39v130q0 17 34 17v130q3 17 18 17h112q0 22 17 43v121q3 18 18 18h60q18 -3 18 -18v-276q0 -18 -18 -18h-78q-12 0 -26 -26v-138q0 -17 -17 -17h-121q-17 0 -17 17zM730 -30q3 17 17 17h121l61 9v121q3 17 17 17h26 q18 -3 18 -17v-44q-7 -227 -61 -242h-182q-17 0 -17 18v121zM747 -195q3 18 18 18h112q22 -18 43 -18v-17q-90 -106 -164 -130l-9 18v129zM929 575v121q3 18 17 18h26q18 -3 18 -18v-121q0 -17 -18 -17h-26q-17 0 -17 17zM929 748v113q3 17 17 17h26q18 -3 18 -17v-113 q0 -17 -18 -17h-26q-17 0 -17 17z" />
<glyph unicode="h" horiz-adv-x="1025" d="M50 26q3 17 17 17h35q17 -2 17 -17v-9q0 -17 -17 -17h-26q-12 0 -26 26zM50 69v121q3 18 17 18h35q17 -3 17 -18v-121q0 -17 -17 -17h-35q-17 0 -17 17zM50 242v113q3 17 17 17h35q17 -3 17 -17v-113q0 -17 -17 -17h-35q-17 0 -17 17zM50 787v95q3 18 17 18h35 q17 -3 17 -18v-103q18 -22 18 -44h147q17 -2 17 -17q9 -232 9 -285l-18 -9h-121q-17 0 -17 17v139q0 20 -69 34v156q-35 0 -35 17zM50 977v130l17 26v113q3 17 18 17h26q17 -3 17 -17q-9 -204 -9 -277l-17 -9h-35q-17 0 -17 17zM67 424v112q3 18 18 18h26q17 -3 17 -18v-112 q0 -17 -17 -17h-26q-18 0 -18 17zM137 17l17 9h130q17 -3 17 -17l-17 -9h-130q-17 0 -17 17zM154 69v268q3 18 17 18h121q18 -3 18 -18v-268q0 -17 -18 -17h-121q-17 0 -17 17zM188 779v103q3 18 18 18h104l25 17q18 0 18 -52q52 52 86 52h26q18 -3 18 -17v-113 q0 -17 -26 -17q-221 -9 -260 -9zM188 986v260q3 17 18 17h129q18 -3 18 -17v-269l-9 -17l-60 9h-78q-18 0 -18 17zM335 69v147h18v-147h-18zM370 683v52q3 18 17 18h78v-18q-34 0 -86 -52h-9zM534 796v121q3 17 18 17h112q17 -3 17 -17v-121q0 -17 -17 -17h-112 q-18 0 -18 17zM543 969v8q3 18 17 18h104q17 -3 17 -18l-17 -8h-121zM560 735v18h87q17 -3 17 -18v-129h-17q0 129 -87 129zM681 433v121q3 17 18 17h130q17 -3 17 -17v-121q0 -18 -17 -18h-130q-18 0 -18 18zM716 234v103q3 18 17 18h113q17 -3 17 -18v-103q0 -18 -17 -18 h-113q-17 0 -17 18zM716 779v103q3 18 17 18h113q17 -3 17 -18v-103q0 -18 -17 -18h-113q-17 0 -17 18zM733 52v104q3 17 18 17h103q18 -3 18 -17v-130h69v-9q0 -17 -17 -17h-61q0 9 -9 26q9 0 9 9h-112q-18 0 -18 17zM733 606v112q3 17 18 17h112q19 -15 87 -26v-112 q0 -17 -18 -17q-94 8 -164 8h-17q-18 0 -18 18zM898 787v52h17l17 -60l-17 -9q-17 0 -17 17zM915 78v130q3 17 17 17q18 -3 18 -17v-130q0 -17 -18 -17q-17 0 -17 17zM915 251v121q3 17 17 17q18 -2 18 -17v-121q0 -17 -18 -17q-17 0 -17 17zM915 424v112q3 18 17 18 q18 -3 18 -18v-112q0 -17 -18 -17q-17 0 -17 17z" />
<glyph unicode="i" horiz-adv-x="446" d="M56 666l17 9h44q17 -3 17 -18q9 -203 9 -276l-18 -9h-43q-17 0 -17 26q0 40 -9 268zM65 199v95q2 17 17 17h43q18 -2 18 -17v-60l8 -87h147q18 -3 18 -17v-113q0 -17 -18 -17h-130q-19 15 -86 26v147zM65 1038v17q2 18 17 18h43q18 -3 18 -18v-17q0 -17 -18 -17h-43 q-17 0 -17 17zM82 735v104q3 17 17 17h35q17 -2 17 -17v-104q0 -17 -17 -17h-35q-17 0 -17 17zM82 1107v113q3 17 17 17h35l26 -17h138q18 -3 18 -18v-103q0 -18 -18 -18h-60q-156 0 -156 26zM151 381v112q3 17 17 17h130q18 -2 18 -17v-130h17v139h17v-113q0 -19 -9 -34 q9 -15 9 -35v-112l-9 -18l-17 9h-104q-17 0 -17 17v147q-52 0 -52 18zM151 571v121q3 17 17 17h130q18 -2 18 -17v-121q0 -17 -18 -17h-130q-17 0 -17 17zM186 761v130q2 17 17 17h113q17 -2 17 -17v-130q0 -17 -17 -17h-113q-17 0 -17 17zM203 1038q3 17 17 17h104 q17 -2 17 -17q0 -17 -17 -17h-104q-17 0 -17 17zM333 562v139h17v-139h-17z" />
<glyph unicode="j" horiz-adv-x="510" d="M0 -239q3 17 17 17h130q17 -2 17 -17v-95q0 -21 -86 -26q-78 7 -78 26v95zM17 -126h52q72 0 78 103h9q17 -2 17 -17v-112q0 -18 -17 -18h-121q-18 0 -18 18v26zM121 747v104q3 17 17 17h9q17 -2 17 -17v-104q0 -17 -17 -17h-9q-17 0 -17 17zM138 29v113q3 17 18 17 q17 -3 17 -17v-113q0 -17 -17 -17q-18 0 -18 17zM138 202v104q3 17 18 17q17 -2 17 -17v-104q0 -17 -17 -17q-18 0 -18 17zM156 410v259q2 18 17 18l9 -18v-259q0 -17 -18 -17zM173 1041q9 17 9 26h147q17 -2 17 -17q0 -17 -17 -17h-139zM173 1111v103q3 18 17 18h139 q17 -3 17 -18v-103q0 -18 -17 -18h-139q-17 0 -17 18zM182 29v113q2 17 17 17h130q17 -3 17 -17v-113q0 -17 -17 -17h-130q-17 0 -17 17zM182 -187q0 17 34 17v113q3 17 18 17h112q17 -3 17 -17v-104l-17 -26v-95q0 -26 -95 -52h-52q-17 0 -17 17v130zM199 228v130 q3 17 17 17h121q18 -2 18 -17v-130q0 -17 -18 -17h-121q-17 0 -17 17zM216 747v104q3 17 18 17h129q0 52 18 52h26q17 -3 17 -17v-130q0 -17 -17 -17h-44q0 -61 61 -61v-121q0 -17 -17 -17h-26l-26 17h-104q-17 0 -17 18v129zM234 401v121q2 18 17 18h104q17 -3 17 -18v-121 q0 -17 -17 -17h-104q-17 0 -17 17zM363 211v112q3 18 18 18h26q17 -3 17 -18v-112q0 -17 -17 -17h-26q-18 0 -18 17zM381 -5q2 17 17 17h9q17 -3 17 -17v-121q0 -13 -26 -26q-17 0 -17 17v130zM381 1128v121q2 17 17 17h9q17 -3 17 -17v-121q0 -17 -17 -17h-9q-17 0 -17 17z M398 38v121q3 17 17 17l9 -17v-121q0 -17 -17 -17zM398 401v121q3 18 17 18l9 -18v-121q0 -17 -17 -17zM398 1041v26q3 18 17 18l9 -18v-8q0 -18 -17 -18h-9z" />
<glyph unicode="k" horiz-adv-x="1068" d="M49 43v95q3 18 17 18h35q17 -3 17 -18v-112q26 0 26 -17v-9h-17zM66 398v104q3 17 18 17h26q17 -3 17 -17v-104q0 -17 -17 -17h-26q-18 0 -18 17zM66 787v277q3 17 18 17h26q17 -2 17 -17v-277q0 -17 -17 -17h-26q-18 0 -18 17zM66 1142v130q3 17 18 17h26q17 -3 17 -17 v-130q0 -17 -17 -17h-26q-18 0 -18 17zM84 588v113q2 17 17 17h17q18 -3 18 -17v-113q0 -17 -18 -17h-17q-17 0 -17 17zM101 216v104q3 17 17 17h9q17 -2 17 -17v-130l43 9v121q3 17 18 17h121q4 35 26 35h26v-9l-26 -34v-95q0 -18 -26 -18v-8q26 0 26 -18v-129 q0 -18 -18 -18q-17 0 -17 18v138h-17v-147q0 -17 -17 -17h-130q-17 0 -17 17v147q-35 0 -35 17zM136 787v130q2 17 17 17h130q17 -3 17 -17v-130q0 -17 -17 -17h-130q-17 0 -17 17zM136 960v121q8 26 51 26v121q3 18 18 18h104q17 -3 17 -18v-103q0 -18 -26 -18v-147 q0 -17 -17 -17h-130q-17 0 -17 17zM153 588v113q3 17 17 17h121q18 -3 18 -17v-113q0 -17 -18 -17h-121q-17 0 -17 17zM187 407v112q3 17 18 17h104q17 -2 17 -17v-112q0 -18 -17 -18h-104q-18 0 -18 18zM317 779v121q3 17 17 17q18 -3 18 -17v-121q0 -18 -18 -18 q-17 0 -17 18zM334 597v130h18q0 -52 26 -52q0 12 60 60h35q17 -2 17 -17v-121q0 -17 -17 -17h-121q-18 0 -18 17zM352 407v112q2 17 17 17h113q17 -2 17 -17v-130h-130q-17 0 -17 18zM447 372h26q17 -3 17 -17v-52h-17q-26 53 -26 69zM447 779l26 17h9v-17q0 -18 -18 -18 q-17 0 -17 18zM499 260v129h34v130q3 17 18 17h112q11 0 35 -86q40 -69 95 -87q78 -126 78 -138l-18 -9h-103q-18 0 -18 18v138q-14 0 -69 17v-147q0 -17 -17 -17h-113q-13 0 -34 35zM516 580v103q3 18 17 18h122q17 -3 17 -18v-34l-43 -52q17 -3 17 -17q0 -18 -17 -18h-96 q-17 0 -17 18zM551 761v26q0 12 95 95h43q6 52 26 52h121q17 -3 17 -17v-87q0 -12 -60 -60h-104q0 -26 -17 -26h-104q-17 0 -17 17zM568 147l17 9h61q17 -3 17 -18v-103q0 -18 -17 -18zM637 952v8q3 17 18 17q17 -2 17 -17l-17 -8h-18zM698 683q2 18 17 18v-18h-17zM698 969 l17 8h121q17 -2 17 -17l-17 -8h-121q-17 0 -17 17zM715 52v121q3 17 17 17h113q17 -2 17 -17v-121q0 -17 -17 -17h-113q-17 0 -17 17zM879 865v35q3 17 18 17h43v-17q-17 0 -52 -35h-9zM914 61v95h17q61 -101 61 -113h-61q-17 0 -17 18z" />
<glyph unicode="l" horiz-adv-x="474" d="M78 571v121q3 17 17 17h113q17 -2 17 -17v-121q0 -17 -17 -17h-113q-17 0 -17 17zM87 943v130q2 17 17 17h112q18 -3 18 -17v-130q0 -17 -18 -17h-112q-17 0 -17 17zM104 17v113q3 17 17 17h104q17 -3 17 -17v-113q0 -17 -17 -17h-104q-17 0 -17 17zM104 389v121 q3 18 17 18h104q17 0 17 -35h113q17 -3 17 -17v-104q0 -17 -17 -17h-104v-139q0 -17 -17 -17h-95q-18 0 -18 17v130q3 17 18 17h103v9h-129zM104 1116v121q3 17 17 17h104q17 -2 17 -17v-121q0 -17 -17 -17h-104q-17 0 -17 17zM121 744v112q3 18 18 18h103l26 -18h87 q17 -2 17 -17v-104q0 -17 -17 -17q-170 9 -225 9zM260 17v113q2 17 17 17h78q17 -3 17 -17v-113q0 -17 -17 -17h-78q-17 0 -17 17zM260 943v130q2 17 17 17h78q17 -3 17 -17v-130q0 -17 -17 -17h-78q-17 0 -17 17zM277 190v104q3 17 17 17h61q17 -2 17 -17v-104 q0 -17 -17 -17h-61q-17 0 -17 17zM286 1289v17h69v-17h-69zM294 562v113q3 17 18 17h43q17 -3 17 -17v-113q0 -17 -17 -17h-43q-18 0 -18 17zM294 1125v129q3 18 18 18h43q17 -3 17 -18v-129q0 -18 -17 -18h-43q-18 0 -18 18z" />
<glyph unicode="m" horiz-adv-x="1569" d="M64 216v104q3 17 17 17h9q17 -2 17 -17v-121h9l43 9v129q3 18 17 18h113q17 -3 17 -18q-8 -231 -8 -285l-18 -9h-121l-43 -8l-9 17v138q-43 0 -43 26zM64 398v104q3 17 17 17h9q17 -3 17 -17v-104q0 -17 -17 -17h-9q-17 0 -17 17zM73 580v103q2 18 17 18h9q17 -3 17 -18 v-103q0 -18 -17 -18h-9q-17 0 -17 18zM90 770v112q3 18 17 18l26 -18h139q17 -2 17 -17v-104q0 -17 -17 -17h-113q-64 0 -69 26zM107 952v17h18q0 -17 -18 -17zM159 580v103q3 18 17 18h130v8q0 9 -8 9l8 17v130q3 17 18 17h8q17 0 17 -34l52 34h52q18 -2 18 -17v-112 q-104 -70 -104 -139q0 -26 -18 -26h-43q4 -53 52 -86v-104q0 -17 -17 -17h-9q-17 0 -17 26h-121q-18 0 -18 17v130zM168 943v17h130v-17h-130zM540 779v129q0 32 130 44q8 -13 8 -52h139q17 -3 17 -18v-112q0 -17 -26 -17q-39 0 -260 8zM592 727v8h52q17 -2 17 -17v-130h-17 v26q0 50 -52 113zM635 17v147h17v-147h-17zM661 208v121q0 12 26 26h130q17 -3 17 -18v-112q0 -17 -17 -17h-156zM670 571v112q2 18 17 18h130q17 -3 17 -18q9 -203 9 -276l-18 -9h-130q-17 0 -17 17v121l9 18q-17 0 -17 17zM687 26v112q3 18 17 18h121q18 -3 18 -18v-121 l17 9h69v-9q0 -17 -17 -17h-199q-13 0 -26 26zM730 926v17h26v-17h-26zM851 398v104q3 17 17 17h52q18 -3 18 -17v-260q0 -17 -18 -17h-34q-18 0 -18 17v130zM886 61v129q2 18 17 18h17q18 -3 18 -18v-129q0 -18 -18 -18h-17q-17 0 -17 18zM903 606v250h17v-17l70 61h34 q17 -3 17 -18v-129q-103 -56 -103 -156l-18 -9q-17 0 -17 18zM1076 934v18q83 17 130 17l8 -17v-18h-138zM1085 770v112q2 18 17 18h112v34h148q17 -3 17 -17v-130q0 -17 -17 -17h-130l-26 -17h-104q-17 0 -17 17zM1189 692v9h17q17 -3 17 -18v-17h-9q-12 0 -25 26zM1232 61 v129l17 26v121q3 18 17 18h113q17 -3 17 -18q-9 -231 -9 -285l-17 -9h-121q-17 0 -17 18zM1232 424v130q2 17 17 17h121q17 -3 17 -17v-130q0 -17 -17 -17h-121q-17 0 -17 17zM1232 960q2 17 17 17q74 -17 87 -17v-17h-87q-17 0 -17 17zM1249 597v121q3 17 17 17h113 q17 -2 17 -17v-121q0 -17 -17 -17h-113q-17 0 -17 17zM1396 753v112h9q82 -71 104 -164v-104q0 -17 -18 -17h-60q-18 0 -18 17v130zM1448 17v121q3 18 17 18h26q18 -3 18 -18v-112q0 -12 -26 -26h-18q-17 0 -17 17zM1448 242v130q3 17 17 17h26q18 -2 18 -17v-130 q0 -17 -18 -17h-26q-17 0 -17 17zM1448 424v130q3 17 17 17h26q18 -3 18 -17v-130q0 -17 -18 -17h-26q-17 0 -17 17z" />
<glyph unicode="n" horiz-adv-x="1040" d="M50 234v121q0 21 35 26v121q2 17 17 17h43q17 -3 17 -17v-104l-17 -26v-138q0 -18 -17 -18h-61q-17 0 -17 18zM50 597v121q9 26 52 26v121q3 17 17 17h43q0 35 18 35h130q17 -3 17 -17v-121q0 -18 -17 -18h-139v-26h139q17 -2 17 -17v-121q0 -17 -17 -17h-130 q-18 0 -18 17v147h-17v-147q0 -17 -17 -17h-61q-17 0 -17 17zM67 43v95q3 18 18 18h52q17 -3 17 -18v-86l8 -43l-17 -9h-34q-12 0 -44 43zM197 242v130l17 26v104q3 17 18 17h103q18 -3 18 -17q-9 -211 -9 -268l-17 -9h-113q-17 0 -17 17zM214 52v121q3 17 18 17h121v-138 q0 -17 -18 -17h-103q-18 0 -18 17zM361 770v86q0 12 44 44h95q17 -3 17 -18v-112q0 -17 -17 -17h-121q-18 0 -18 17zM396 709v9q3 17 17 17h9v-8q0 -18 -17 -18h-9zM439 952v17l61 17l8 -17q0 -17 -17 -17h-52zM526 960q0 21 69 26q95 -7 95 -26q0 -17 -17 -17h-130 q-17 0 -17 17zM560 787v130q3 17 18 17h112q17 -3 17 -17v-130q0 -17 -17 -17h-112q-18 0 -18 17zM604 727v8h69q17 -2 17 -17v-121q0 -17 -17 -17h-9q-15 0 -34 112q-9 0 -26 35zM656 35v103q2 18 17 18q17 -3 17 -18v-103q0 -18 -17 -18t-17 18zM656 415v121q2 18 17 18 q17 -3 17 -18v-121q0 -17 -17 -17t-17 17zM681 234v121q3 17 18 17q8 -15 8 -35h147q18 -2 18 -17v-104l17 -26v-129q0 -18 -17 -18h-113q-17 0 -17 18v138q-39 0 -61 35zM725 580v103q2 18 17 18h121q17 -3 17 -18v-103q0 -18 -17 -18h-121q-17 0 -17 18zM725 770v112 q2 18 17 18h112q13 0 26 -26v-104q0 -17 -17 -17h-121q-17 0 -17 17zM742 960l17 9l44 -9v-17h-44q-17 0 -17 17zM759 407v112q3 17 18 17h103q18 -2 18 -17v-112q0 -18 -18 -18h-103q-18 0 -18 18zM906 61v129q3 18 18 18h8q18 -3 18 -18v-129q0 -18 -18 -18h-8 q-18 0 -18 18zM924 407v112q2 17 17 17l9 -17v-130h-9q-17 0 -17 18z" />
<glyph unicode="o" horiz-adv-x="1082" d="M61 450v130q0 17 35 17v34q0 64 43 113h86q18 -3 18 -17v-113l-18 -26v-138q0 -17 -17 -17h-130q-17 0 -17 17zM113 311v35q3 17 17 17h121l9 61v121q3 17 17 17h52q17 -2 17 -17v-61q0 -110 70 -199v-17q0 -17 -18 -17h-147q0 -26 -17 -26h-86q-24 0 -35 86zM130 770v9 q20 42 78 86h17v-78q0 -17 -17 -17h-78zM139 190v9h69q17 -3 17 -17v-70h-17q-49 36 -69 78zM260 87v77q3 18 17 18h121q18 -3 18 -18v-95q0 -45 -26 -52q-130 44 -130 70zM260 606v103q3 18 17 18h104l17 -9q-34 -64 -52 -130h-69q-17 0 -17 18zM260 813v121q0 13 26 26 h112q18 -3 18 -17v-130q0 -17 -18 -17h-121q-17 0 -17 17zM424 796v112q3 18 18 18h129q18 -3 18 -18v-112q0 -17 -18 -17h-129q-18 0 -18 17zM468 952v17h8q130 0 130 17t26 17q79 -17 95 -17v-17h-112l-26 -17h-121zM476 17q3 18 18 18h103q13 0 26 -26v-9h-129 q-18 0 -18 17zM476 87v147h130l26 -18h130q17 -2 17 -17v-121q0 -17 -26 -17q-228 8 -268 8zM641 804v122q2 17 17 17h112q18 -3 18 -17v-122q0 -17 -18 -17h-112q-17 0 -17 17zM649 242v9q51 46 104 147h9q17 -3 17 -17v-121q0 -18 -17 -18h-113zM658 735v9h112 q18 -3 18 -17v-113q0 -17 -18 -17h-8q-49 84 -104 138zM744 554l18 8q17 -2 17 -17v-112q0 -18 -17 -18l-9 18v103zM788 87v129q2 18 17 18h130q17 -3 17 -18v-17q-94 -130 -156 -130zM788 433v112q2 17 17 17h130q17 -2 17 -17v-112q0 -18 -17 -18h-130q-17 0 -17 18z M822 260v121q3 17 18 17h112q17 -3 17 -17v-121q0 -18 -17 -18h-112q-18 0 -18 18zM840 614v113q2 17 17 17h95l43 9q35 -89 35 -139q-39 -17 -113 -17h-60q-17 0 -17 17zM840 787v104q2 17 17 17h8q104 -68 104 -129l-17 -9h-95q-17 0 -17 17zM987 441v121q2 18 17 18h17 q17 -3 17 -18v-121q0 -17 -17 -17h-17q-17 0 -17 17zM1004 337v18h17v-18h-17z" />
<glyph unicode="p" horiz-adv-x="1096" d="M64 768v121q3 18 17 18h113q17 -3 17 -18v-121q0 -17 -17 -17h-113q-17 0 -17 17zM81 128q3 17 18 17h103q18 -2 18 -17v-259q0 -18 -18 -18h-103q-18 0 -18 18v259zM81 206v104q3 17 18 17h103q18 -3 18 -17v-104q0 -17 -18 -17h-103q-18 0 -18 17zM81 -218q3 17 18 17 h103q18 -2 18 -17v-104q0 -17 -18 -17h-103q-18 0 -18 17v104zM81 561v112q3 17 18 17h103q18 -2 18 -17q8 -204 8 -277l-17 -8h-95q-17 0 -17 17v130zM125 933v17h95v-17h-95zM228 24v104q3 17 18 17h129q18 -2 18 -17v-78h-9l-17 9q0 -52 -18 -52h-103q-18 0 -18 17z M228 768v130q3 17 18 17h95q17 0 17 -26l26 18l9 -18v-121q0 -17 -18 -17h-129q-18 0 -18 17zM246 388v103q2 18 17 18h69q14 0 43 -173q7 0 44 -69v-44q0 -17 -18 -17h-103q-18 0 -18 17v139q-34 0 -34 26zM263 587v121q3 17 17 17h113q17 -3 17 -17v-35q-49 -103 -61 -104 h-69q-17 0 -17 18zM280 -54q3 18 18 18h51q18 -3 18 -18v-250q0 -14 -35 -35h-34q-18 0 -18 17v268zM427 708q3 17 18 17h8v-17h-26zM445 24v104q2 17 17 17h112q18 -2 18 -17v-104q0 -17 -18 -17h-112q-17 0 -17 17zM445 232l17 9l9 -18v-8h-9q-17 0 -17 17zM445 768v130 q0 17 129 35q18 -3 18 -18v-147q0 -17 -18 -17h-112q-17 0 -17 17zM609 50v130q3 17 17 17h121q18 -2 18 -17v-130q0 -17 -18 -17h-121q-17 0 -17 17zM609 768v121q3 18 17 18h121q18 -3 18 -18v-121q0 -17 -18 -17h-121q-17 0 -17 17zM635 215v8q47 33 112 156l9 -17v-130 q0 -17 -17 -17h-104zM644 941l8 18q21 0 121 -18v-17h-112q-17 0 -17 17zM687 682v8h78q17 -2 17 -17v-112h-17q0 36 -78 121zM773 16v112q3 17 18 17h129q18 -2 18 -17v-9q-110 -121 -156 -121zM773 405v138q7 0 52 9v121q3 17 18 17h103q18 -2 18 -17v-112l17 8q0 -8 9 -8 v138h17q43 -145 43 -259q-11 -44 -26 -44h-52q-17 0 -17 18v138h-17v-147q0 -17 -18 -17h-129q-18 0 -18 17zM825 215v112q3 17 18 17h112q19 -15 78 -26q-17 -72 -52 -129l-43 8h-95q-18 0 -18 18zM825 751v104q3 17 18 17h43q78 -62 78 -112v-9q0 -17 -18 -17h-103 q-18 0 -18 17z" />
<glyph unicode="q" horiz-adv-x="1082" d="M50 325v26q3 18 17 18h130q17 -3 17 -18v-121q0 -17 -17 -17h-104q-26 0 -43 112zM67 421v155q26 139 52 139h87q17 -3 17 -18v-276q0 -18 -17 -18h-121q-18 0 -18 18zM111 204h95q17 -2 17 -17v-130h-9q-103 91 -103 147zM145 767v17q49 78 78 95h9v-95q0 -17 -18 -17 h-69zM232 40v112q2 18 17 18h130q17 -3 17 -18v-112q0 -17 -17 -17h-130q-17 0 -17 17zM266 395v103q3 18 18 18h43q17 -3 17 -18v-26q0 -141 78 -224v-26h-121q-17 0 -17 17v130zM266 767v112q3 17 18 17h112q17 -2 17 -17v-112q0 -18 -17 -18h-112q-18 0 -18 18zM284 594 v121q2 17 17 17h104q17 -3 17 -17q-35 -35 -78 -139h-43q-17 0 -17 18zM379 931v17h8l44 -8q4 0 34 8q130 -6 130 -43v-130q0 -17 -17 -17h-113q-17 0 -17 17v139q-47 17 -69 17zM465 40v112q3 18 18 18h268q17 -3 17 -18v-112q0 -17 -17 -17h-18q-17 0 -17 34h-9 q-36 -34 -69 -34h-155q-18 0 -18 17zM612 775v121q3 18 18 18h95q8 0 8 -9l18 9q17 -3 17 -18v-121q0 -17 -17 -17h-121q-18 0 -18 17zM638 723v9h104q17 -3 17 -17v-121q0 -18 -17 -18h-17l-69 130q-18 0 -18 17zM647 213v9q86 80 86 199v77q3 18 18 18q17 -3 17 -18v-268 q0 -17 -17 -17h-104zM656 931v17h8v-17h-8zM733 -211q3 17 18 17q17 -2 17 -17v-104q0 -17 -17 -17q-18 0 -18 17v104zM742 -3l17 8q18 -2 18 -17v-121q0 -17 -18 -17q-8 8 -17 147zM777 230v121q2 18 17 18h130q17 -3 17 -18v-121q0 -17 -17 -17h-130q-17 0 -17 17z M777 412v121q2 17 17 17h130q17 -2 17 -17v-121q0 -17 -17 -17h-130q-17 0 -17 17zM794 -228q3 17 17 17h121q18 -3 18 -17v-87q0 -17 -18 -17h-121q-17 0 -17 17v87zM811 585v112q3 18 18 18h112q17 -3 17 -18v-112q0 -17 -17 -17h-112q-18 0 -18 17zM829 -12q2 17 17 17 h104q17 -2 17 -17v-121q0 -17 -17 -17h-104q-17 0 -17 17v121zM829 40v112q2 18 17 18h121l9 43v121q2 17 17 17h9q17 -2 17 -17v-277q0 -10 -69 -34h-104q-17 0 -17 17zM829 767v112q2 17 17 17h104q69 -24 69 -34v-104l-9 -17q-86 8 -130 8h-34q-17 0 -17 18zM829 966 l17 8h104q17 -3 17 -17l-17 -9h-104q-17 0 -17 18zM976 -228q2 17 17 17h9q17 -3 17 -17v-78q0 -12 -26 -26q-17 0 -17 17v87zM993 -47q3 18 17 18l9 -18v-103q0 -18 -17 -18l-9 18v103zM993 395v103q3 18 17 18l9 -18v-103q0 -18 -17 -18zM993 585v112q3 18 17 18l9 -18 v-112q0 -17 -17 -17z" />
<glyph unicode="r" horiz-adv-x="785" d="M81 52v121q3 17 17 17h95q18 -2 18 -17v-121q0 -17 -18 -17h-95q-17 0 -17 17zM81 580v103q3 18 17 18h95q18 -3 18 -18v-103q0 -18 -18 -18h-95q-17 0 -17 18zM98 407v112q3 17 18 17h86q17 -2 17 -17v-112q0 -18 -17 -18h-86q-18 0 -18 18zM116 234v121q2 17 17 17h78 q17 -3 17 -17v-121q0 -18 -17 -18h-78q-17 0 -17 18zM133 761v104q3 17 17 17h78q0 35 17 35h104q17 0 17 -61l18 9h8v-86q0 -18 -17 -18h-130l-26 -17h-69q-17 0 -17 17zM142 17v9h77q18 -3 18 -17l-18 -9h-60q-17 0 -17 17zM150 943v17h78q17 -3 17 -17h-95zM228 424v130 l17 26v121q3 17 18 17h121q17 -3 17 -17v-70q-17 -146 -17 -164v-43q0 -17 -18 -17h-121q-17 0 -17 17zM263 61v129l17 26v104q3 17 17 17h69q18 -2 18 -17v-259q0 -18 -18 -18h-86q-17 0 -17 18zM280 17l17 9h69v-9q0 -17 -17 -17h-52q-17 0 -17 17zM427 640v61q3 17 17 17 h113v-17q-113 -18 -113 -61h-17zM462 761v95q0 13 26 26h95q17 -2 17 -17v-121h-121q-17 0 -17 17zM557 943v17q19 0 34 9l9 -17l-17 -9h-26zM609 727v8h103v-8l-17 -26q-86 8 -86 26zM626 779v129q0 14 35 35h43q17 -3 17 -17v-147q0 -18 -17 -18h-61q-17 0 -17 18z" />
<glyph unicode="s" horiz-adv-x="1011" d="M72 588l17 9l-8 17v61q5 52 26 52h103q18 -3 18 -18v-103l-18 -26v-96q-138 57 -138 104zM72 770q48 138 130 138l8 -17v-104q0 -17 -17 -17h-121zM98 234v77q3 18 17 18h104q17 -3 17 -18v-77q3 -18 18 -18l8 18v77q3 18 18 18h34l87 -121v-130q0 -17 -18 -17h-164 q-121 101 -121 173zM228 813v130q0 20 155 43l9 -17v-156q0 -17 -17 -17h-130q-17 0 -17 17zM262 467v61q3 17 18 17h112q17 -3 17 -17v-87q0 -17 -17 -17q-130 23 -130 43zM280 631v130q2 18 17 18h60v-26q0 -26 61 -96l173 -60v-147q0 -17 -17 -17h-113q-17 0 -17 17v147 q-22 0 -43 17h-104q-17 0 -17 17zM297 35v17h104l26 -17h129q18 -3 18 -18q0 -17 -18 -17h-112q-17 0 -147 35zM427 813v95q2 18 17 18h121q17 -3 17 -18v-112l-8 -17q-46 22 -147 34zM453 952v17l60 8q62 -8 69 -8v-17h-129zM461 78v121l9 17l43 -8h87v-130q0 -17 -18 -17 h-103q-18 0 -18 17zM608 692v52h130q17 -3 17 -17v-35q0 -17 -17 -17h-112q-18 0 -18 17zM626 78v121q52 45 52 61q0 8 -35 51v35q3 17 17 17h251q17 -2 17 -17v-26q0 -147 -129 -242l-9 17v130h-17v-147q0 -17 -18 -17h-112q-17 0 -17 17zM626 787v104q2 17 17 17h112 q18 -2 18 -17v-104q0 -17 -18 -17h-112q-17 0 -17 17zM643 424v104q3 17 17 17h104q17 -3 17 -17v-104q0 -17 -17 -17h-104q-17 0 -17 17zM652 952v17h8v-17h-8zM790 692v69q3 18 17 18h69q13 0 26 -26v-52q0 -13 -26 -26h-69q-17 0 -17 17zM807 424v104q77 0 121 -113 l-17 -8h-86q-18 0 -18 17zM825 813v78h8q30 -19 52 -87l-17 -8h-26q-17 0 -17 17z" />
<glyph unicode="t" horiz-adv-x="735" d="M69 770v112q3 18 17 18h113l26 -18h138q17 -2 17 -17v-104q0 -24 87 -34v-130l-9 -17q-101 8 -147 8h-43q-17 0 -17 18v138l-52 9v-147q0 -18 -18 -18q-17 0 -17 18v147h-78q-17 0 -17 17zM173 216v104q3 17 17 17q17 -2 17 -17v-104q0 -17 -17 -17t-17 17zM173 415v121 q3 18 17 18q17 -3 17 -18v-121q0 -17 -17 -17t-17 17zM190 943v104q3 17 17 17l9 -17v-104q0 -17 -17 -17zM207 1133v52q24 52 35 52h130q17 -3 17 -17v-78q0 -17 -17 -17h-139l-17 -9zM233 424v130q3 17 18 17h121q17 -3 17 -17v-130q0 -17 -17 -17h-121q-18 0 -18 17z M251 234v121q2 17 17 17h112q18 -3 18 -17v-121q0 -18 -18 -18h-112q-17 0 -17 18zM268 43v95q3 18 17 18h104q17 -3 17 -18v-103q-26 -22 -26 -35h-8q-68 0 -104 43zM268 960v121q3 18 17 18h104q17 -3 17 -18v-121q0 -17 -17 -17h-104q-17 0 -17 17zM398 415v121 q2 18 17 18h35q17 -3 17 -18v-121q0 -17 -17 -17h-35q-17 0 -17 17zM398 1133v69q2 18 17 18h26q12 0 26 -26v-61q0 -17 -17 -17h-35q-17 0 -17 17zM432 225v112q3 18 18 18q13 0 34 -95q12 0 43 -44v-8h-77q-18 0 -18 17zM432 770v112q3 18 18 18h112q17 -3 17 -18v-112 q0 -17 -17 -17h-112q-18 0 -18 17zM450 35v103q2 18 17 18h104l26 17h34q18 -3 18 -17v-113q0 -26 -139 -26h-43q-17 0 -17 18zM450 952v121h17v-96q32 -3 52 -34v-9h-52q-17 0 -17 18zM614 770v112q3 18 17 18q18 -3 18 -18v-103q0 -13 -26 -26z" />
<glyph unicode="u" horiz-adv-x="1040" d="M59 562v104q3 17 17 17h44q17 -2 17 -17v-104q0 -17 -17 -17h-44q-17 0 -17 17zM76 943l26 17h26q18 -3 18 -17q0 -17 -18 -17h-34q-18 0 -18 17zM94 285v35q2 17 17 17h182q17 -2 17 -17v-121l17 -26v-130q0 -17 -17 -17h-104q-12 0 -26 26v138h-60q-26 0 -26 95z M94 389v113q2 17 17 17h43q4 35 26 35h121q18 -3 18 -18v-129q0 -18 -18 -18h-138l-26 -17h-26q-17 0 -17 17zM94 753v112q2 17 17 17h26q17 -2 17 -17v-112q0 -18 -17 -18h-26q-17 0 -17 18zM120 147v9h17q17 -3 17 -18v-51h-17zM163 934l17 9h121q18 -3 18 -17l-18 -9 h-121q-17 0 -17 17zM180 761v121q3 18 17 18h113q17 -3 17 -18v-121q0 -17 -17 -17h-113q-17 0 -17 17zM197 580v121q3 17 18 17h104q17 -3 17 -17v-121q0 -18 -17 -18h-104q-18 0 -18 18zM362 35v242h17q52 -104 130 -104v-138q0 -18 -17 -18h-113q-17 0 -17 18zM526 35 v121q0 18 104 52q35 34 86 164h26v112q3 18 18 18h112q0 34 17 34h35q17 -2 17 -17v-121q0 -10 -78 -35v-138q0 -17 -17 -17h-147q0 -14 -17 -35v-121h-9q-17 0 -17 26q-66 -52 -87 -61h-26q-17 0 -17 18zM647 588v130q3 17 18 17l8 -17v-130q0 -17 -17 -17zM656 381v103 q3 18 17 18l9 -18v-103q0 -18 -17 -18zM673 770v130q0 11 52 26q3 17 17 17h113q17 -3 17 -17q-17 -3 -17 -18v-138q0 -17 -17 -17h-148q-17 0 -17 17zM725 571v112q3 18 17 18h113q17 -3 17 -18v-112q0 -17 -17 -17h-113q-17 0 -17 17zM742 17v104q3 17 18 17h103 q18 -2 18 -17v-104q0 -17 -18 -17h-103q-18 0 -18 17zM872 208v112q3 17 17 17h35q17 -2 17 -17v-112q0 -18 -17 -18h-35q-17 0 -17 18zM907 26v112q2 18 17 18q17 -3 17 -18v-112q0 -17 -17 -17t-17 17zM924 562v130h17v-130h-17zM924 735v121h17v-121h-17zM924 934v18h17 v-18h-17z" />
<glyph unicode="v" horiz-adv-x="993" d="M63 822v60q3 18 17 18h113q17 -3 17 -18v-121q0 -17 -17 -17h-95q-20 0 -35 78zM80 934l18 9h103q18 -3 18 -17l-18 -9h-103q-18 0 -18 17zM115 675l17 8h78q0 35 17 35h130q17 -3 17 -17v-121q0 -18 -17 -18h-130l-26 -17h-26q-19 0 -60 130zM141 510l17 9h26 q17 -3 17 -17v-121h-17q0 23 -43 129zM227 389v113q3 17 18 17h121q17 -3 17 -17v-113q0 -17 -17 -17h-121q-18 0 -18 17zM227 770v138l9 18q9 0 9 -9l43 9h17q20 0 69 -165l-17 -8h-112q-18 0 -18 17zM245 303v34q2 18 17 18h277q17 -3 17 -18v-121q0 -17 -17 -17h-251 q-28 0 -43 104zM305 156h78l26 17h130q17 -3 17 -17v-121q0 -18 -17 -18h-78l-104 -8q-52 99 -52 147zM392 398v121q2 17 17 17h17q18 0 52 -129h9q23 129 52 129q17 -2 17 -17v-121q0 -17 -17 -17h-130q-17 0 -17 17zM392 588v69h17q0 -21 17 -77l-17 -9q-17 0 -17 17z M530 580q9 15 9 34h17v-26q0 -17 -17 -17q0 9 -9 9zM573 407v129q3 18 18 18h129q18 -3 18 -18v-129q0 -18 -18 -18h-129q-18 0 -18 18zM591 588v130q2 17 17 17h121q17 -2 17 -17v-130q0 -17 -17 -17h-121q-17 0 -17 17zM591 761q37 139 52 139h77q18 -3 18 -18v-121 q0 -17 -18 -17h-112q-17 0 -17 17zM608 0v121q3 17 17 17h35q17 -2 17 -17q-37 -121 -52 -121h-17zM625 225v130q3 17 18 17h95q17 -3 17 -17q-47 -147 -61 -147h-51q-18 0 -18 17zM660 952q0 12 26 25h43q17 -2 17 -17v-8q0 -18 -17 -18h-52q-17 0 -17 18zM764 917v9h138 l35 -26q-47 -156 -70 -156h-60q-17 0 -17 17v139q-26 0 -26 17zM772 450v86q3 18 18 18h8q18 -3 18 -18q-26 -60 -26 -86h-18zM807 571v130q3 17 17 17h43q-28 -147 -51 -147h-9z" />
<glyph unicode="w" horiz-adv-x="1570" d="M40 917v9q3 17 17 17h70q17 -3 17 -17l-17 -9h-87zM66 856l17 9h78q0 35 17 35h130q17 -3 17 -18v-121q0 -17 -17 -17h-138l-26 -17h-26q-20 0 -52 129zM101 692l17 9h9q17 -3 17 -18v-86h-17q0 16 -26 95zM161 519v17q3 18 17 18h130q17 -3 17 -18v-129q0 -18 -17 -18 h-95q-29 0 -52 130zM161 580v121q3 17 17 17h130q17 -3 17 -17v-121q0 -18 -17 -18h-130q-17 0 -17 18zM196 943q2 17 17 17h112q18 -3 18 -17q0 -17 -18 -17h-112q-17 0 -17 17zM213 355h95q17 -3 17 -18v-121q0 -17 -17 -17h-34q-30 0 -61 156zM282 147v9h35q17 -3 17 -18 v-121h-17q-35 104 -35 130zM343 216v121q2 18 17 18h130q17 -3 17 -18v-121q0 -17 -17 -17h-130q-17 0 -17 17zM343 770v130h17q0 -38 35 -139l-18 -8h-17q-17 0 -17 17zM377 580v121q3 17 18 17q43 -79 43 -156h-43q-18 0 -18 18zM395 35v121q2 17 17 17h112l26 -17h104v-9 q-20 -138 -43 -138q-122 8 -208 8zM395 398v121q2 17 17 17h26q26 0 35 -95h8q9 0 9 9l17 -9h9q6 95 26 95h129q18 -2 18 -17v-121q0 -17 -18 -17h-259q-17 0 -17 17zM524 225v130q3 17 18 17h129q18 -3 18 -17v-44q0 -103 -35 -103h-112q-18 0 -18 17zM559 597 q20 138 43 138h87q17 -2 17 -17v-130q0 -17 -17 -17h-113q-17 0 -17 26zM611 761q35 165 52 165h34q18 -3 18 -18v-138q0 -17 -18 -17h-69zM741 580v121q2 17 17 17h190q30 0 52 -156h-242q-17 0 -17 18zM741 761v130q0 13 34 35h104l17 -9l-8 -17v-139q0 -17 -18 -17h-112 q-17 0 -17 17zM758 502v17q3 17 17 17h113l26 -17h95q14 0 52 -130q0 -17 -18 -17h-69q-147 0 -147 43q-17 80 -17 95h-9v-26h-17v35h-9v-17h-17zM836 337h34l26 -17h139q17 -3 17 -17v-104q0 -17 -17 -17h-121q-78 0 -78 155zM862 147v17h17v-17h-17zM905 17v104 q3 17 17 17h121q18 -2 18 -17v-104q0 -17 -18 -17h-121q-17 0 -17 17zM922 761v87h18q0 -16 17 -95l-17 -9q-18 0 -18 17zM1069 216v121q3 18 18 18h129q18 -3 18 -18v-121q0 -17 -18 -17h-129q-18 0 -18 17zM1087 398v130q50 151 69 155h69q17 -2 17 -17v-268 q0 -17 -17 -17h-121q-17 0 -17 17zM1104 43v130q3 17 17 17h113q17 -2 17 -17q-38 -147 -61 -147h-69q-17 0 -17 17zM1173 727v8q20 130 43 130h18q17 -3 17 -17v-104q0 -17 -17 -17h-61zM1208 908v18h26v-18h-26zM1251 381v103q3 18 17 18h70l17 -9q-26 -64 -52 -173h-17 q0 31 -35 61zM1268 761v121q3 18 18 18h121q17 -3 17 -18v-121q0 -17 -17 -17h-121q-18 0 -18 17zM1286 571v112q2 18 17 18h95q17 -3 17 -18q-40 -129 -60 -129h-52q-17 0 -17 17zM1303 943q3 17 17 17h104q17 -3 17 -17q0 -17 -17 -17h-104q-17 0 -17 17zM1433 787v95 q2 18 17 18h9q17 -3 17 -18q-26 -79 -26 -95h-17zM1467 952v8h18v-26q-18 0 -18 18z" />
<glyph unicode="x" horiz-adv-x="1089" d="M56 26q61 92 61 104h17v-104q0 -17 -17 -17h-44q-17 0 -17 17zM73 926l26 17h9q17 -3 17 -17q0 -18 -17 -18h-17q-18 0 -18 18zM134 865h164q18 -3 18 -17v-113q0 -17 -18 -17h-86q-41 12 -78 147zM143 17v121q2 18 17 18h130q17 -3 17 -18v-121q0 -17 -17 -17h-130 q-17 0 -17 17zM194 934v9q3 17 18 17h164q14 0 35 -34l-18 -9h-181q-18 0 -18 17zM212 199l104 138q17 -2 17 -17v-121q0 -17 -17 -17h-87q-17 0 -17 17zM246 666h44q17 -3 17 -17v-69h-17zM341 363v35l26 43q-8 15 -8 35v8h121q17 -2 17 -17q9 -186 9 -268l-17 -9h-113 q-17 0 -17 18v129zM341 571v130q0 17 35 17v130q3 17 17 17h52q8 0 95 -130v-8l-43 -9v-147q0 -17 -17 -17h-121q-18 0 -18 17zM359 26v130q2 17 17 17h95v-17q-94 -147 -104 -147zM506 562v121q3 18 17 18h130q17 -3 17 -18v-121q0 -17 -17 -17h-130q-17 0 -17 17zM558 234 v233q2 17 17 17h104q17 -2 17 -17v-112q3 -18 17 -18l9 18v95h9q9 -1 129 -182v-69q0 -17 -17 -17h-34q-208 0 -208 34q0 18 -43 18zM558 744q93 138 104 138q17 -2 17 -17v-121q0 -17 -17 -17h-87q-17 0 -17 17zM636 147l17 9h26q17 -3 17 -18v-69h-17q0 21 -43 78z M696 891v17h147v-17h-147zM722 17v121q3 18 17 18h113q17 -3 17 -18v-121q0 -17 -17 -17h-113q-17 0 -17 17zM722 536v113q3 17 17 17h61q17 -3 17 -17q-78 -91 -78 -113h-17zM722 727v103q3 18 17 18h113q17 -3 17 -18v-95q0 -12 -26 -26h-104q-17 0 -17 18zM886 779v51 q3 18 18 18h34v-18q-32 -51 -43 -51h-9zM904 26v164h17q0 -15 104 -164q0 -17 -17 -17h-87q-17 0 -17 17zM904 926q2 17 17 17h52q17 -3 17 -17q0 -18 -17 -18h-52q-17 0 -17 18z" />
<glyph unicode="y" horiz-adv-x="1075" d="M51 909v9h17v-9h-17zM77 805v43q0 13 52 44h121l-9 -44v-121q0 -17 -17 -17h-104q-21 0 -43 95zM146 675l17 9h78q18 -3 18 -17v-121q0 -18 -18 -18h-26q-19 0 -69 147zM155 -172q0 13 34 34h18q52 -5 52 -26v-34q0 -18 -18 -18h-69q-17 0 -17 18v26zM155 -259 q3 17 17 17h69q18 -2 18 -17v-78q0 -17 -18 -17h-69q-17 0 -17 17v78zM215 511l18 9h8q18 -3 18 -18v-77h-18q0 18 -26 86zM276 -259q3 17 17 17h121q18 -2 18 -17v-60q0 -35 -121 -35h-18q-17 0 -17 17v78zM276 277v9q3 17 17 17h121q18 -2 18 -17v-277q0 -17 -18 -17h-17 q-14 0 -61 156q-28 0 -60 129zM276 373v129q3 18 17 18h121q18 -3 18 -18v-129q0 -18 -18 -18h-121q-17 0 -17 18zM276 554v130q3 17 17 17h121q18 -2 18 -17v-130q0 -17 -18 -17h-121q-17 0 -17 17zM293 -146l78 43l43 43h9q17 -3 17 -17v-113q0 -17 -17 -17h-112 q-18 0 -18 17v44zM293 883l18 9h43q30 0 69 -182h-95q-17 0 -17 17v130zM440 -242q3 18 18 18h129v-9q-60 -76 -138 -95l-9 17v69zM458 -17v104q2 17 17 17h121q17 -2 17 -17v-104q0 -17 -17 -17h-121q-17 0 -17 17zM475 347v103q3 18 17 18q19 -1 52 -95q26 -35 35 -35 q41 147 60 147h130q17 -3 17 -17v-191q-15 -103 -43 -103h-234q-17 0 -17 17v130zM492 -77q3 17 17 17h104q18 -3 18 -17v-69q0 -47 -35 -61h-87q-17 0 -17 17v113zM622 9v130q3 17 17 17h104q-19 -114 -61 -164h-43q-17 0 -17 17zM657 -43q2 18 17 18q0 -9 8 -9 q-8 -15 -8 -35h-17v26zM674 537v43q10 87 34 87h87q17 -3 17 -18v-112q0 -17 -17 -17h-104q-17 0 -17 17zM682 693v8q23 130 52 130h44q17 -3 17 -17v-104q0 -17 -17 -17h-96zM743 874v18h43v-18h-43zM804 364v121q2 17 17 17h34q18 -2 18 -17q-47 -138 -61 -138zM804 900 l17 9h130q17 -3 17 -17l-17 -9h-130q-17 0 -17 17zM821 719v112q3 17 17 17h121q18 -2 18 -17v-35q-13 -95 -35 -95h-104q-17 0 -17 18zM855 537v112q3 18 18 18h43q17 -3 17 -18q-37 -113 -60 -129q-18 0 -18 17zM985 918v17h9q12 0 26 -26l-17 -9q-18 0 -18 18z" />
<glyph unicode="z" horiz-adv-x="1025" d="M59 199l104 112h8q9 -231 9 -285l-17 -9h-78q-17 0 -17 18v121zM128 753v129q0 14 35 35h17q17 0 17 -43h139q17 -3 17 -18v-112q0 -17 -17 -17h-69q-139 0 -139 26zM206 199v112q3 18 17 18h121q18 -3 18 -18v-112q0 -17 -18 -17h-121q-17 0 -17 17zM223 17v113 q3 17 18 17h112q17 -3 17 -17v-113q0 -17 -17 -17h-112q-18 0 -18 17zM249 900v17h121v-17h-121zM258 355v8q71 99 112 130h147q18 -3 18 -17v-52l8 -104q-77 -82 -77 -86q77 0 77 -18q0 -17 -17 -17h-121q-17 0 -17 17v139h-130zM370 562q104 102 104 130h43q18 -3 18 -17 v-113q0 -17 -18 -17h-129q-18 0 -18 17zM405 744v95q3 17 17 17h113q17 -2 17 -17v-104q0 -17 -17 -17q-130 0 -130 26zM414 900v17h129v-17h-129zM422 26v121q3 17 18 17h112l69 35h113l26 -17h138v-156q0 -17 -17 -17h-130q-17 0 -17 17v112l8 44h-17v-147q0 -18 -26 -18 q-228 -8 -268 -8zM552 372v104q3 17 17 17h113v-9q-3 -13 -113 -129q-17 0 -17 17zM569 562v113q3 17 18 17h121q17 -3 17 -17v-113q0 -17 -17 -17h-121q-18 0 -18 17zM587 744v112q2 18 17 18h112q18 -3 18 -18v-112q0 -17 -18 -17h-112q-17 0 -17 17zM587 926l17 8h112 q18 -3 18 -17l-18 -9h-112q-17 0 -17 18zM734 571v121q8 26 52 26v121q2 17 17 17h86q18 -2 18 -17v-104q-155 -180 -165 -181zM794 900v17h104v-17h-104zM915 17v113q3 17 18 17l8 -17v-113q0 -17 -17 -17z" />
<glyph unicode="{" horiz-adv-x="587" d="M68 -26q0 13 35 34h86q17 -3 17 -17v-87q0 -17 -17 -17h-95q-12 0 -26 26v61zM111 1314v9q3 17 18 17h77q18 -3 18 -17l-18 -9h-95zM120 1228v34q3 18 17 18h78q17 -3 17 -18v-69h-8q-37 22 -104 35zM224 69q17 28 17 52v77q0 18 26 18l-9 86v35q3 17 18 17h112 q17 -3 17 -17v-104l-17 -26v-138q0 -18 -17 -18h-130q-17 0 -17 18zM232 726l18 9h121q17 -3 17 -18v-112q0 -17 -17 -17h-69v34l8 18q-78 46 -78 86zM250 977l8 104v34l18 26v104q2 17 17 17h78q34 0 34 -138h-8v-138q0 -18 -18 -18h-112zM250 1314v18h17v-18h-17zM258 25 q3 18 18 18h121q0 -78 -130 -139l-9 18v103zM258 432v52q0 67 44 86h86q17 -2 17 -17q-6 -138 -26 -138h-103q-18 0 -18 17zM276 795v121q2 18 17 18h95l17 -9l-8 -17v-113q0 -17 -18 -17h-86q-17 0 -17 17zM423 622v95q112 -6 112 -26v-69q0 -17 -17 -17h-78q-17 0 -17 17z M457 570q3 18 18 18h51v-9q0 -14 -60 -26z" />
<glyph unicode="|" d="M427 -418v1995h160v-1995h-160z" />
<glyph unicode="}" d="M130 -192h90q61 0 107 33.5t47 91.5l-1 500q0 83 61 158t144 76v2q-83 1 -143.5 76.5t-60.5 158.5v500q-1 58 -47 91.5t-107 33.5h-90v50h108q108 0 185 -67.5t77 -141.5v-468q0 -67 51 -133t223 -71v-60q-172 -5 -223 -71t-51 -132v-468q-1 -74 -77.5 -141.5 t-184.5 -67.5h-108v50z" />
<glyph unicode="~" horiz-adv-x="1054" d="M54 436v35q5 51 26 51h104q17 -2 17 -17v-69q0 -17 -17 -17h-113q-17 0 -17 17zM132 566v26q29 58 86 103q3 44 26 44h121q18 -3 18 -18v-129q0 -18 -18 -18q-73 0 -233 -8zM417 566v104q156 -26 156 -96q0 -37 35 -52h129q18 -2 18 -17v-78q0 -17 -18 -17 q-98 0 -285 121zM582 592v34l8 18q115 -52 147 -52v-18h-138q-17 0 -17 18zM781 427v95q2 18 17 18h121q17 -3 17 -18v-43q0 -38 -138 -69q-17 0 -17 17zM824 574v18q60 0 60 147h104q18 -3 18 -18v-77q0 -64 -26 -70h-156z" />
<glyph unicode="&#xa1;" horiz-adv-x="672" />
<glyph unicode="&#xa2;" horiz-adv-x="1139" />
<glyph unicode="&#xa3;" d="M76 673v60h135q-58 143 -58 253q0 226 123.5 347t306.5 121h4q75 0 185.5 -14t110.5 -34v-161h-58q-5 61 -77 102q-72 31 -160 31h-2q-100 0 -190 -101q-84 -93 -84 -241q0 -15 1 -30q0 -135 53 -273h360v-60h-334q14 -30 31 -60q35 -63 35 -138q0 -161 -162 -375h402 q130 0 189 132l49 -1l-103 -231h-719l1 50q187 238 187 418q0 77 -34 143q-17 32 -31 62h-161z" />
<glyph unicode="&#xa4;" d="M122 413l118 117q-32 46 -48 103q-12 42 -12 84q0 44 13 87q16 55 47 99l-118 118l80 81l118 -118q44 30 99 46q44 14 89 14q41 0 83 -12q57 -17 102 -48l118 118l80 -81l-117 -117q31 -46 48 -102q12 -42 12 -85q0 -42 -12 -85q-17 -56 -48 -102l117 -117l-80 -81 l-118 118q-45 -32 -101 -48q-42 -12 -85 -12q-42 0 -85 12q-57 16 -102 48l-118 -118zM284 716q0 -28 9 -56q16 -59 57 -100q41 -40 99 -57q29 -8 58 -8t58 8q58 17 99 57q40 41 57 99q9 29 9 58t-9 58q-17 58 -57 99q-41 40 -100 57q-29 8 -58 8t-58 -9q-58 -17 -98 -56 q-39 -40 -56 -98q-10 -30 -10 -60z" />
<glyph unicode="&#xa5;" horiz-adv-x="1262" d="M8 1176q0 19 10.5 27.5t32.5 8.5q27 0 123 -8t164 -8h88q33 0 41 -6.5t8 -26.5q0 -8 -15 -14t-38 -6q-6 0 -18.5 2t-18.5 2q-24 0 -37.5 -9.5t-13.5 -25.5q0 -18 16.5 -52t46.5 -77l158 -221q13 -19 33 -53q41 -70 71 -70q9 0 16.5 5t14.5 15l277 396q8 12 13 26.5 t5 24.5q0 18 -10 27t-37 14q-15 2 -41 4q-47 3 -47 25q0 15 8 22.5t25 7.5q3 0 15 -1q56 -7 108 -7h139q30 0 65 1t37 1q11 0 18.5 -4.5t8.5 -11.5q0 -28 -38 -34q-18 -3 -27 -5q-63 -15 -147 -117q-7 -9 -12 -15l-169 -206h323q15 0 24 -6t9 -17q0 -15 -6 -20.5t-23 -5.5 h-366q-46 -57 -96.5 -112.5t-52.5 -59.5h511q18 0 25.5 -5.5t7.5 -17.5q0 -14 -7 -21t-22 -7h-530q0 -11 -1 -30.5t-1 -29.5l2 -215q0 -114 5.5 -150t20.5 -44q30 -17 107.5 -19t77.5 -31q0 -12 -10 -20t-25 -8q-2 0 -35.5 4t-64.5 4q-91 0 -208.5 -4t-142.5 -4q-31 0 -40 4 t-9 16t8 18.5t37 12.5q9 2 25 5q74 16 92 32q17 13 24 47t7 102l-2 242q0 19 -1.5 35t-4.5 32l-484 1q-14 0 -21 6.5t-7 19.5t6.5 19t21.5 6h467l-121 172h-344q-17 0 -23.5 5.5t-6.5 18.5q0 14 6 19.5t22 5.5h307q-43 57 -108 155q-131 197 -227 197q-7 0 -13 5.5t-6 11.5z " />
<glyph unicode="&#xa6;" d="M427 371h160v-789h-160v789zM427 789v789h160v-789h-160z" />
<glyph unicode="&#xa7;" d="M170 1130q0 148 89 237q82 79 216 86q8 1 17 1h3q66 0 163 -16.5t97 -41.5v-194h-51q-5 81 -80 132q-70 47 -149 51h-15q-78 0 -125 -44.5t-47 -117.5q0 -132 287 -269q149 -67 204.5 -143.5t55.5 -187.5q0 -171 -101 -282q-47 -39 -99 -64q108 -56 154 -118 q55 -77 55 -187q0 -171 -101 -283q-124 -102 -277 -105v1q-6 -1 -13 -1h-3q-66 0 -163 16.5t-97 41.5v194h51q5 -81 80 -132q68 -45 145 -50q113 6 185 69q72 64 72 165q0 125 -316 276q-123 64 -175.5 137t-52.5 177q0 148 89 237q67 65 170 82l-40 19q-123 64 -175.5 137 t-52.5 177zM297 571q0 -123 248 -250q56 16 97 53q73 65 73 166q0 5 -1 10h-2q-1 14 -4 27q-22 61 -113 127q-59 29 -126 29q-78 0 -125 -44.5t-47 -117.5z" />
<glyph unicode="&#xa8;" horiz-adv-x="1024" d="M209 1263q0 13 14 26l71 72q13 12 25 12q11 0 27 -14l69 -73q10 -14 10 -25q0 -13 -12 -27l-69 -75q-17 -17 -25 -17q-14 0 -25 12l-76 86q-9 12 -9 23zM574 1263q0 13 14 26l71 72q13 12 25 12q11 0 27 -13l69 -74q10 -14 10 -25q0 -13 -12 -26l-69 -76q-17 -17 -25 -17 q-14 0 -25 12l-76 87q-9 11 -9 22z" />
<glyph unicode="&#xa9;" horiz-adv-x="1674" d="M100 718q0 148 55.5 283t159.5 238q102 104 238.5 160.5t286.5 56.5q145 0 280 -56.5t239 -160.5q102 -101 158.5 -238t56.5 -283q0 -147 -56.5 -282t-162.5 -240q-105 -105 -239 -159.5t-283 -54.5q-146 0 -278 55.5t-238 160.5q-106 104 -161.5 237.5t-55.5 282.5z M160 718q0 -137 51 -259t148 -219q98 -96 219 -147t256 -51q137 0 259.5 50.5t219.5 145.5q97 98 149 221.5t52 258.5q0 134 -52 259.5t-145 219.5q-96 96 -220 147.5t-258 51.5q-137 0 -262 -51.5t-220 -147.5t-146 -219.5t-51 -259.5zM351 719q0 126 65.5 244t187.5 184.5 t254 66.5q38 0 75 -6.5t76 -20.5q5 -1 9 -1q19 0 26 30h42l72 -198h-44q-52 94 -131 124q-72 26 -147 26h-15q-86 -8 -166.5 -71t-121.5 -177q-33 -90 -33 -184q0 -25 2 -50q11 -121 69.5 -224t149.5 -152q72 -40 166 -42q124 0 194 56t70 126h53v-100q0 -46 -96.5 -86.5 t-242.5 -40.5q-142 0 -264 68t-186 185t-64 243z" />
<glyph unicode="&#xaa;" horiz-adv-x="648" />
<glyph unicode="&#xab;" horiz-adv-x="944" d="M174 479l342 303h14v-37l-205 -266l205 -266v-37h-14zM487 479l342 303h14v-37l-205 -266l205 -266v-37h-14z" />
<glyph unicode="&#xac;" d="M87 667v100h840v-491l-1 -1h-98v392h-741z" />
<glyph unicode="&#xad;" horiz-adv-x="644" d="M60 385v26q3 18 17 18h121q18 -3 18 -18v-26q0 -17 -18 -17h-121q-17 0 -17 17zM77 472l26 17h104q17 -3 17 -17q0 -17 -17 -17h-112q-18 0 -18 17zM224 385v26q3 18 18 18h129q18 -3 18 -18v-26q0 -17 -18 -17h-129q-18 0 -18 17zM276 489v17q3 18 18 18h103 q18 -3 18 -18v-17q0 -17 -18 -17h-103q-18 0 -18 17zM458 385v26q3 18 17 18h52q17 -3 17 -18v-8q0 -14 -34 -35h-35q-17 0 -17 17zM458 489v17q3 18 17 18h52q17 -3 17 -18v-17q0 -17 -17 -17h-52q-17 0 -17 17z" />
<glyph unicode="&#xae;" horiz-adv-x="1674" d="M100 718q0 148 55.5 283t159.5 238q102 104 238.5 160.5t286.5 56.5q145 0 280 -56.5t239 -160.5q102 -101 158.5 -238t56.5 -283q0 -147 -56.5 -282t-162.5 -240q-105 -105 -239 -159.5t-283 -54.5q-146 0 -278 55.5t-238 160.5q-106 104 -161.5 237.5t-55.5 282.5z M160 718q0 -137 51 -259t148 -219q98 -96 219 -147t256 -51q137 0 259.5 50.5t219.5 145.5q97 98 149 221.5t52 258.5q0 134 -52 259.5t-145 219.5q-96 96 -220 147.5t-258 51.5q-137 0 -262 -51.5t-220 -147.5t-146 -219.5t-51 -259.5zM524 269v50h43q37 0 37 121v538 q0 121 -37 121h-43v70h356q64 -1 125 -42q60 -41 92.5 -114t32.5 -152q0 -78 -32 -150.5t-114 -134.5l82 -116q100 -141 150 -141h34v-50h-346v50h45q30 0 30 22q0 29 -69 114l-75 102q-42 0 -84 42v-159q0 -121 36 -121h53v-50h-316zM751 725l3 -8q23 -56 56 -81 q29 -22 56 -22h6q31 4 61.5 38.5t46.5 97.5q13 50 13 103q0 13 -1 27q-4 67 -28 124.5t-56.5 76t-63.5 18.5h-93v-374z" />
<glyph unicode="&#xaf;" horiz-adv-x="670" />
<glyph unicode="&#xb0;" horiz-adv-x="674" d="M60 1164q0 116 81.5 197t197.5 81q115 0 196 -81.5t81 -196.5q0 -114 -82 -196t-197 -82q-117 0 -197 81t-80 197zM130 1163q0 -87 61 -147t148 -60t147 60t60 147t-60.5 148t-146.5 61t-147.5 -61t-61.5 -148z" />
<glyph unicode="&#xb1;" />
<glyph unicode="&#xb2;" />
<glyph unicode="&#xb3;" />
<glyph unicode="&#xb4;" horiz-adv-x="1024" d="M316 1078l291 297q35 35 55.5 47t40.5 12q33 0 53.5 -20t20.5 -51q0 -22 -15.5 -42t-46.5 -40l-330 -203h-69z" />
<glyph unicode="&#xb5;" horiz-adv-x="1180" />
<glyph unicode="&#xb6;" horiz-adv-x="1024" d="M93 1086q0 157 107.5 253t285.5 96h443v-70h-127v-1365h-82v1365h-166v-1365h-84v738q-174 8 -275.5 102.5t-101.5 245.5z" />
<glyph unicode="&#xb7;" horiz-adv-x="508" d="M129 709q0 15 16 31l82 84q15 14 29 14q13 0 31 -16l80 -86q12 -16 12 -29q0 -15 -14 -31l-80 -88q-20 -20 -29 -20q-16 0 -29 14l-88 101q-10 13 -10 26z" />
<glyph unicode="&#xb8;" horiz-adv-x="1024" d="M360 -290q85 -52 152 -52q66 0 94.5 21.5t28.5 66.5t-49 64q-40 16 -102 16q-16 0 -34 -2l48 176h63l-37 -104q32 4 62 5q86 0 134 -40.5t48 -113.5q0 -76 -58.5 -120.5t-160.5 -44.5q-109 0 -189 32v96z" />
<glyph unicode="&#xb9;" />
<glyph unicode="&#xba;" horiz-adv-x="718" />
<glyph unicode="&#xbb;" horiz-adv-x="944" d="M101 176v37l205 266l-205 266v37h14l342 -303l-342 -303h-14zM414 176v37l205 266l-205 266v37h14l342 -303l-342 -303h-14z" />
<glyph unicode="&#xbc;" horiz-adv-x="1708" />
<glyph unicode="&#xbd;" horiz-adv-x="1964" />
<glyph unicode="&#xbe;" horiz-adv-x="1708" />
<glyph unicode="&#xbf;" horiz-adv-x="748" />
<glyph unicode="&#xc0;" horiz-adv-x="1540" />
<glyph unicode="&#xc1;" horiz-adv-x="1540" />
<glyph unicode="&#xc2;" horiz-adv-x="1540" />
<glyph unicode="&#xc3;" horiz-adv-x="1540" />
<glyph unicode="&#xc4;" horiz-adv-x="1540" />
<glyph unicode="&#xc5;" horiz-adv-x="1540" />
<glyph unicode="&#xc6;" horiz-adv-x="2118" />
<glyph unicode="&#xc7;" horiz-adv-x="1399" />
<glyph unicode="&#xc8;" horiz-adv-x="1151" />
<glyph unicode="&#xc9;" horiz-adv-x="1151" />
<glyph unicode="&#xca;" horiz-adv-x="1151" />
<glyph unicode="&#xcb;" horiz-adv-x="1151" />
<glyph unicode="&#xcc;" horiz-adv-x="657" />
<glyph unicode="&#xcd;" horiz-adv-x="657" />
<glyph unicode="&#xce;" horiz-adv-x="657" />
<glyph unicode="&#xcf;" horiz-adv-x="657" />
<glyph unicode="&#xd0;" horiz-adv-x="1518" />
<glyph unicode="&#xd1;" horiz-adv-x="1554" />
<glyph unicode="&#xd2;" horiz-adv-x="1614" />
<glyph unicode="&#xd3;" horiz-adv-x="1614" />
<glyph unicode="&#xd4;" horiz-adv-x="1614" />
<glyph unicode="&#xd5;" horiz-adv-x="1614" />
<glyph unicode="&#xd6;" horiz-adv-x="1614" />
<glyph unicode="&#xd7;" d="M161 470l247 247l-247 248l99 98l247 -247l248 247l98 -99l-247 -247l247 -247l-99 -99l-247 247l-247 -247z" />
<glyph unicode="&#xd8;" horiz-adv-x="1614" />
<glyph unicode="&#xd9;" horiz-adv-x="1501" />
<glyph unicode="&#xda;" horiz-adv-x="1501" />
<glyph unicode="&#xdb;" horiz-adv-x="1501" />
<glyph unicode="&#xdc;" horiz-adv-x="1501" />
<glyph unicode="&#xdd;" horiz-adv-x="1233" />
<glyph unicode="&#xde;" horiz-adv-x="1120" />
<glyph unicode="&#xdf;" horiz-adv-x="1251" />
<glyph unicode="&#xe0;" horiz-adv-x="922" />
<glyph unicode="&#xe1;" horiz-adv-x="922" />
<glyph unicode="&#xe2;" horiz-adv-x="922" />
<glyph unicode="&#xe3;" horiz-adv-x="922" />
<glyph unicode="&#xe4;" horiz-adv-x="922" />
<glyph unicode="&#xe5;" horiz-adv-x="922" />
<glyph unicode="&#xe6;" horiz-adv-x="1454" />
<glyph unicode="&#xe7;" horiz-adv-x="905" />
<glyph unicode="&#xe8;" horiz-adv-x="909" />
<glyph unicode="&#xe9;" horiz-adv-x="909" />
<glyph unicode="&#xea;" horiz-adv-x="909" />
<glyph unicode="&#xeb;" horiz-adv-x="909" />
<glyph unicode="&#xec;" horiz-adv-x="514" />
<glyph unicode="&#xed;" horiz-adv-x="514" />
<glyph unicode="&#xee;" horiz-adv-x="514" />
<glyph unicode="&#xef;" horiz-adv-x="514" />
<glyph unicode="&#xf0;" horiz-adv-x="1139" />
<glyph unicode="&#xf1;" horiz-adv-x="1108" />
<glyph unicode="&#xf2;" horiz-adv-x="1010" />
<glyph unicode="&#xf3;" horiz-adv-x="1010" />
<glyph unicode="&#xf4;" horiz-adv-x="1010" />
<glyph unicode="&#xf5;" horiz-adv-x="1010" />
<glyph unicode="&#xf6;" horiz-adv-x="1010" />
<glyph unicode="&#xf7;" d="M87 647v140h839l1 -1v-139h-840zM382 377q0 15 16 31l82 84q15 14 29 14q13 0 31 -16l80 -86q12 -16 12 -29q0 -15 -14 -31l-80 -88q-20 -20 -29 -20q-16 0 -29 14l-88 101q-10 13 -10 26zM382 1070q0 15 16 31l82 84q15 14 29 14q13 0 31 -16l80 -86q12 -16 12 -29 q0 -15 -14 -31l-80 -88q-20 -20 -29 -20q-16 0 -29 14l-88 101q-10 13 -10 26z" />
<glyph unicode="&#xf8;" horiz-adv-x="1010" />
<glyph unicode="&#xf9;" horiz-adv-x="1059" />
<glyph unicode="&#xfa;" horiz-adv-x="1059" />
<glyph unicode="&#xfb;" horiz-adv-x="1059" />
<glyph unicode="&#xfc;" horiz-adv-x="1059" />
<glyph unicode="&#xfd;" horiz-adv-x="868" />
<glyph unicode="&#xfe;" horiz-adv-x="1010" />
<glyph unicode="&#xff;" horiz-adv-x="868" />
<glyph unicode="&#x152;" horiz-adv-x="0" />
<glyph unicode="&#x153;" horiz-adv-x="0" />
<glyph unicode="&#x178;" horiz-adv-x="0" />
<glyph unicode="&#x2c6;" horiz-adv-x="1024" d="M221 1079l232 355h118l232 -355h-58l-233 216l-233 -216h-58z" />
<glyph unicode="&#x2dc;" horiz-adv-x="1024" d="M234 1132q19 106 68 158.5t129 52.5q46 -1 113 -24q64 -23 112 -23h4q36 0 58 20t36 66h54q-20 -103 -68.5 -154t-126.5 -51h-4q-50 0 -113 23q-66 24 -114 24q-39 0 -60.5 -20.5t-33.5 -71.5h-54z" />
<glyph unicode="&#x2000;" horiz-adv-x="855" />
<glyph unicode="&#x2001;" horiz-adv-x="1711" />
<glyph unicode="&#x2002;" horiz-adv-x="855" />
<glyph unicode="&#x2003;" horiz-adv-x="1711" />
<glyph unicode="&#x2004;" horiz-adv-x="570" />
<glyph unicode="&#x2005;" horiz-adv-x="427" />
<glyph unicode="&#x2006;" horiz-adv-x="285" />
<glyph unicode="&#x2007;" horiz-adv-x="285" />
<glyph unicode="&#x2008;" horiz-adv-x="213" />
<glyph unicode="&#x2009;" horiz-adv-x="342" />
<glyph unicode="&#x200a;" horiz-adv-x="95" />
<glyph unicode="&#x2010;" horiz-adv-x="644" d="M60 385v26q3 18 17 18h121q18 -3 18 -18v-26q0 -17 -18 -17h-121q-17 0 -17 17zM77 472l26 17h104q17 -3 17 -17q0 -17 -17 -17h-112q-18 0 -18 17zM224 385v26q3 18 18 18h129q18 -3 18 -18v-26q0 -17 -18 -17h-129q-18 0 -18 17zM276 489v17q3 18 18 18h103 q18 -3 18 -18v-17q0 -17 -18 -17h-103q-18 0 -18 17zM458 385v26q3 18 17 18h52q17 -3 17 -18v-8q0 -14 -34 -35h-35q-17 0 -17 17zM458 489v17q3 18 17 18h52q17 -3 17 -18v-17q0 -17 -17 -17h-52q-17 0 -17 17z" />
<glyph unicode="&#x2011;" horiz-adv-x="644" d="M60 385v26q3 18 17 18h121q18 -3 18 -18v-26q0 -17 -18 -17h-121q-17 0 -17 17zM77 472l26 17h104q17 -3 17 -17q0 -17 -17 -17h-112q-18 0 -18 17zM224 385v26q3 18 18 18h129q18 -3 18 -18v-26q0 -17 -18 -17h-129q-18 0 -18 17zM276 489v17q3 18 18 18h103 q18 -3 18 -18v-17q0 -17 -18 -17h-103q-18 0 -18 17zM458 385v26q3 18 17 18h52q17 -3 17 -18v-8q0 -14 -34 -35h-35q-17 0 -17 17zM458 489v17q3 18 17 18h52q17 -3 17 -18v-17q0 -17 -17 -17h-52q-17 0 -17 17z" />
<glyph unicode="&#x2012;" horiz-adv-x="644" d="M60 385v26q3 18 17 18h121q18 -3 18 -18v-26q0 -17 -18 -17h-121q-17 0 -17 17zM77 472l26 17h104q17 -3 17 -17q0 -17 -17 -17h-112q-18 0 -18 17zM224 385v26q3 18 18 18h129q18 -3 18 -18v-26q0 -17 -18 -17h-129q-18 0 -18 17zM276 489v17q3 18 18 18h103 q18 -3 18 -18v-17q0 -17 -18 -17h-103q-18 0 -18 17zM458 385v26q3 18 17 18h52q17 -3 17 -18v-8q0 -14 -34 -35h-35q-17 0 -17 17zM458 489v17q3 18 17 18h52q17 -3 17 -18v-17q0 -17 -17 -17h-52q-17 0 -17 17z" />
<glyph unicode="&#x2013;" horiz-adv-x="1108" d="M56 419v120h996v-120h-996z" />
<glyph unicode="&#x2014;" horiz-adv-x="2048" d="M0 419v120h2048v-120h-2048z" />
<glyph unicode="&#x2018;" horiz-adv-x="557" d="M186 1233q0 109 71 226.5t139 117.5v-43q-73 -43 -87 -190q0 -119 129 -161v-42l-119 -125q-44 0 -88.5 65.5t-44.5 151.5z" />
<glyph unicode="&#x2019;" horiz-adv-x="557" d="M119 1410v42l119 125q44 0 88.5 -65.5t44.5 -151.5q0 -109 -71 -226.5t-139 -117.5v43q73 43 87 190q0 119 -129 161z" />
<glyph unicode="&#x201a;" horiz-adv-x="557" d="M119 114v42l119 125q44 0 88.5 -65.5t44.5 -151.5q0 -109 -71 -226.5t-139 -117.5v43q73 43 87 190q0 119 -129 161z" />
<glyph unicode="&#x201c;" horiz-adv-x="910" d="M186 1233q0 109 71 226.5t139 117.5v-43q-73 -43 -87 -190q0 -119 129 -161v-42l-119 -125q-44 0 -88.5 65.5t-44.5 151.5zM539 1233q0 109 71 226.5t139 117.5v-43q-73 -43 -87 -190q0 -119 129 -161v-42l-119 -125q-44 0 -88.5 65.5t-44.5 151.5z" />
<glyph unicode="&#x201d;" horiz-adv-x="910" d="M119 1410v42l119 125q44 0 88.5 -65.5t44.5 -151.5q0 -109 -71 -226.5t-139 -117.5v43q73 43 87 190q0 119 -129 161zM472 1410v42l119 125q44 0 88.5 -65.5t44.5 -151.5q0 -109 -71 -226.5t-139 -117.5v43q73 43 87 190q0 119 -129 161z" />
<glyph unicode="&#x201e;" horiz-adv-x="910" d="M119 114v42l119 125q44 0 88.5 -65.5t44.5 -151.5q0 -109 -71 -226.5t-139 -117.5v43q73 43 87 190q0 119 -129 161zM472 114v42l119 125q44 0 88.5 -65.5t44.5 -151.5q0 -109 -71 -226.5t-139 -117.5v43q73 43 87 190q0 119 -129 161z" />
<glyph unicode="&#x2022;" horiz-adv-x="1024" d="M216 718q0 123 87 209t210 86q122 0 208.5 -86.5t86.5 -208.5t-87.5 -209.5t-209.5 -87.5q-123 0 -209 87t-86 210z" />
<glyph unicode="&#x2026;" horiz-adv-x="2048" d="M129 136q0 15 16 31l82 84q15 14 29 14q13 0 31 -16l80 -86q12 -16 12 -29q0 -15 -14 -31l-80 -88q-20 -20 -29 -20q-16 0 -29 14l-88 101q-10 13 -10 26zM812 136q0 15 16 31l82 84q15 14 29 14q13 0 31 -16l80 -86q12 -16 12 -29q0 -15 -14 -31l-80 -88 q-20 -20 -29 -20q-16 0 -29 14l-88 101q-10 13 -10 26zM1495 136q0 15 16 31l82 84q15 14 29 14q13 0 31 -16l80 -86q12 -16 12 -29q0 -15 -14 -31l-80 -88q-20 -20 -29 -20q-16 0 -29 14l-88 101q-10 13 -10 26z" />
<glyph unicode="&#x202f;" horiz-adv-x="342" />
<glyph unicode="&#x2039;" horiz-adv-x="631" d="M174 479l342 303h14v-37l-205 -266l205 -266v-37h-14z" />
<glyph unicode="&#x203a;" horiz-adv-x="631" d="M101 176v37l205 266l-205 266v37h14l342 -303l-342 -303h-14z" />
<glyph unicode="&#x205f;" horiz-adv-x="427" />
<glyph unicode="&#x20ac;" d="M-44 653l17 60h87v29q0 16 1 31h-71l17 60h58q14 145 76 281q81 178 226 274t298 96q43 0 87 -8q40 -10 82 -29q8 -6 16 -6q20 0 34 45h41l84 -281l-40 -1q-49 134 -138 178q-43 22 -81 32v3q-50 16 -101 16q-17 0 -34 -2q-120 -12 -226 -113.5t-157 -273.5 q-32 -104 -39 -211h706l-17 -60h-692q0 -30 2 -60h674l-17 -60h-652q17 -158 83 -298q74 -157 193 -236q102 -68 216 -69q186 3 256 91q74 91 74 185h48v-143q0 -70 -111 -127q-105 -54 -267 -56q-181 0 -325.5 98t-223.5 274q-62 135 -76 281h-108z" />
<glyph unicode="&#x2122;" horiz-adv-x="1497" />
<glyph unicode="&#xe000;" horiz-adv-x="960" d="M0 0v960h960v-960h-960z" />
</font>
</defs>
</svg>
